SplineFontDB: 1.0
FontName: Essays1743-BoldItalic
FullName: Essays 1743 Bold Italic
FamilyName: Essays1743
Weight: Bold
Copyright: Created by John Stracke with PfaEdit 1.0 (http://pfaedit.sf.net)
Comments: 2004-10-31: working on bold italic version.\n\n2004-10-09: Added bunch of other Latin-derived chars.  Calling this 0.2; don't expect much change before 1.0.\n\n2004-10-04: Finished Latin-1 and Latin Extended A (plus miscellaneous other chars).\n\n2004-9-21: Finished the basic alphabet (Roman alphabet +  + ß).\n\n2004-6-7: Began.
Version: 000.400
ItalicAngle: -10
UnderlinePosition: -100
UnderlineWidth: 50
Ascent: 759
Descent: 265
NeedsXUIDChange: 1
XUID: [1021 117 711671440 16274522]
FSType: 0
PfmFamily: 17
TTFWeight: 700
TTFWidth: 5
Panose: 2 0 6 2 0 0 0 0 0 0
LineGap: 90
VLineGap: 0
OS2WinAscent: 0
OS2WinAOffset: 1
OS2WinDescent: 0
OS2WinDOffset: 1
HheadAscent: 0
HheadAOffset: 1
HheadDescent: 0
HheadDOffset: 1
ScriptLang: 3
 1 latn 1 dflt 
 1 DFLT 1 dflt 
 1 hani 1 dflt 
TtfTable: cvt  8
!$hWI!$VK#
EndTtf
LangName: 1033 "Copyright 2004, John Stracke.  Based on a 1743 translation of the essays of Montaigne." "" "" "" "" "" "" "" "" "Based on the typeface in a 1743 English translation of the essays of Montaigne.  PostScript/TrueType font designed by John Stracke." "" "http://www.thibault.org/fonts/" "http://www.thibault.org/fonts/" "Licensed under the GNU Lesser General Public License." "http://www.fsf.org/copyleft/lesser.html" "" "" "" "" "Essays" 
Encoding: UnicodeBmp
UnicodeInterp: none
DisplaySize: -24
AntiAlias: 1
FitToEm: 1
WinInfo: 8480 32 31
TeXData: 1 10485760 0 346030 173015 115343 0 1048576 115343 783286 444596 497025 792723 393216 433062 380633 303038 157286 324010 404750 52429 2506097 1059062 262144
BeginChars: 65536 814
StartChar: exclam
Encoding: 33 33 1
Width: 320
Flags: HW
Fore
211.115 244.596 m 4
 213.981 246.762 216.138 249.284 217.821 252.374 c 5
 284.926 376.948 283.138 366.89 318.223 441.618 c 4
 366.559 544.569 385.399 585.956 427.526 708.913 c 4
 430.499 717.589 428.891 723.765 423.3 731.184 c 5
 385.231 776.369 322.767 765.945 272.565 726.008 c 4
 269.279 723.395 267.006 720.367 265.389 716.597 c 5
 213.273 592.564 200.583 531.081 162.656 415.618 c 4
 142.918 355.528 132.419 352.167 110.752 250.969 c 4
 108.61 240.97 111.45 234.896 119.215 227.847 c 5
 153.117 201.01 195.337 232.671 211.115 244.596 c 4
38.0957 30.5312 m 0
 71.2334 6.61621 116.485 13.7744 152.255 38.8955 c 0
 187.043 63.3271 216.297 104.308 197.872 144.438 c 0
 178.843 185.887 125.913 176.426 96.9658 165.589 c 0
 64.0176 153.255 41.8623 130.168 28.3477 102.061 c 0
 19.0781 82.7822 10.0098 50.7998 38.0957 30.5312 c 0
EndSplineSet
EndChar
StartChar: numbersign
Encoding: 35 35 3
Width: 560
Flags: HW
Fore
258.333 88.8095 m 1
 251.528 88.9465 275 84 296.828 90.6562 c 1
 311.422 59.2969 l 0
 339.016 14.9219 391.484 36.7969 423.359 61.8438 c 0
 453.234 85.2969 462.219 106.047 460.484 103.016 c 1
 464.219 103.922 480.859 104.281 518.766 131.766 c 0
 559 160.953 567 204.078 541.422 238.828 c 0
 535.62 246.705 530.043 252.628 525.129 256.983 c 1
 527.129 266.233 529.16 279.111 530.345 294.881 c 1
 588.641 323.766 l 0
 628.891 352.953 636.891 396.078 611.297 430.828 c 0
 594.948 453.025 579.993 462.627 570.513 465.844 c 1
 569.739 473.41 568.474 481.194 566.281 486.719 c 0
 550.344 526.875 506.688 536.359 467.969 506.234 c 0
 441.11 485.332 429.58 469.983 427.204 466.406 c 1
 425.308 469.742 397.323 484.144 380.792 467.871 c 1
 374.281 486.719 l 0
 358.344 526.875 314.688 536.359 275.969 506.234 c 0
 225.672 467.094 225.688 454.109 221.531 447.344 c 1
 226.922 448.609 200.75 441.375 179.094 428.469 c 0
 144.906 408.109 111.062 369.047 139.688 329.375 c 0
 150.828 313.922 146 317 160.922 305.297 c 1
 144.849 256.064 l 1
 137.549 252.636 126.147 246.559 109.219 236.469 c 0
 75.0312 216.109 41.1719 177.047 69.7969 137.375 c 0
 81.1435 121.652 95.4744 111.59 104.879 106.264 c 2
 105.327 106.012 l 2
 106.552 105.326 107.689 104.723 108.719 104.2 c 0
 115.679 100.67 113.906 102.212 105.364 105.402 c 1
 105.271 109.872 102.498 86.4893 119.422 59.2969 c 0
 147.016 14.9219 199.484 36.7969 231.359 61.8438 c 0
 244.1 71.8541 254.547 84.2724 258.333 88.8095 c 1
403.797 300.109 m 0
 384.609 241.203 l 0
 380.281 230.703 375.203 225.938 364 224.141 c 0
 348.344 221.641 330.938 219.422 310.047 217.141 c 0
 302.469 216.391 l 0
 277.75 221.781 274.234 222.109 275.984 247.344 c 0
 277.266 265.828 283.781 283.516 289.938 308.141 c 2
 290.812 311.578 l 0
 295.594 324.297 300.641 329.312 314.203 330.359 c 0
 334.812 331.953 356.797 332.188 379.312 332.844 c 1
 403.859 325.812 403.984 325.656 403.797 300.109 c 0
EndSplineSet
EndChar
StartChar: dollar
Encoding: 36 36 4
Width: 382
VWidth: 1080
Flags: HW
Fore
312.975 673.238 m 0
 312.794 673.093 312.574 672.769 312.312 672.25 c 1
 312.499 672.598 312.722 672.926 312.975 673.238 c 0
312.975 673.238 m 1
 317.199 678.452 322.686 683.546 319 689 c 0
 313.672 696.875 430.812 724.328 428.359 651.156 c 1
 428.281 649.031 427.953 646.984 427.359 644.938 c 0
 414.094 599.859 412 614 406 590 c 0
 395.898 549.594 461.891 571.297 463.672 521.906 c 0
 464.922 487.156 453.094 466.969 417.703 424.906 c 0
 357.188 352.969 363.391 470.219 352.047 480.344 c 0
 330.703 499.391 336.719 501.562 320.531 496.953 c 0
 293.234 489.188 272.734 468.922 270.469 454.203 c 0
 268.891 443.859 296.797 465.453 339.625 417.688 c 0
 365.234 389.141 409.406 364.609 406.875 298.047 c 0
 404.844 244.828 382.547 199.156 336.531 155.797 c 0
 293.812 115.562 256.983 116.467 216.047 96.625 c 0
 190 84 172 42 166 15 c 1
 160.146 11.6426 95 -6 59 27 c 1
 58.0312 30.4219 71.5625 56.7812 72.0312 60.2969 c 0
 72.4297 63.3496 80.4053 84.0234 89.3613 97.2988 c 1
 71.6289 105.737 48.5098 124.291 42.0469 147.219 c 0
 30.0469 189.828 38.25 229.484 82.0156 279.516 c 0
 162.875 371.922 146.344 192.984 184.109 196.875 c 0
 211.969 199.734 241.172 224.844 253.406 255.312 c 0
 259.266 269.938 265.438 301.641 234.922 292.312 c 0
 217.625 287.016 135.781 285.609 123.188 357.703 c 0
 116.094 398.391 120.828 418.328 138.797 462.438 c 0
 165.703 528.484 215.75 614.156 281.234 594.438 c 0
 300.866 588.527 317.06 676.534 312.975 673.238 c 1
EndSplineSet
EndChar
StartChar: percent
Encoding: 37 37 5
Width: 793
VWidth: 1080
Flags: HW
Fore
637.956 119.802 m 0
 627.529 114.383 625.284 114.348 612.422 117.775 c 0
 589.589 123.859 581.463 128.63 572.244 144.927 c 0
 563.714 160.009 563.979 167.632 570.02 188.739 c 0
 575.909 209.318 579.829 215.717 593.647 223.006 c 0
 611.599 232.474 621.299 232.123 642.337 223.852 c 0
 653.592 219.427 656.016 216.523 663.165 202.356 c 0
 673.545 181.785 675.33 174.407 670.465 157.552 c 0
 664.688 137.537 657.858 130.145 637.956 119.802 c 0
562.344 41.7646 m 0
 606.592 17.1816 647.028 13.4902 692 32 c 0
 735.112 49.7441 758.298 81.9482 771.762 123.395 c 0
 785.98 167.167 785.734 209.149 760.507 251.837 c 0
 738.459 289.146 705.84 302.246 671.711 312.551 c 0
 635.053 323.619 600.859 327.731 560.781 311.862 c 0
 527.387 298.64 505.874 276.874 490.186 245.921 c 0
 469.246 204.607 467.999 163.992 484.756 121.876 c 0
 501.398 80.0469 532.72 58.2217 562.344 41.7646 c 0
287.972 542.683 m 0
 277.545 537.265 275.299 537.23 262.437 540.657 c 0
 239.605 546.741 231.478 551.512 222.26 567.808 c 0
 213.729 582.89 213.994 590.514 220.035 611.621 c 0
 225.925 632.2 229.845 638.599 243.663 645.887 c 0
 261.615 655.356 271.315 655.005 292.353 646.733 c 0
 303.608 642.309 306.031 639.406 313.18 625.238 c 0
 323.56 604.667 325.346 597.289 320.481 580.433 c 0
 314.704 560.419 307.874 553.027 287.972 542.683 c 0
212.359 464.646 m 0
 256.607 440.064 297.044 436.372 342.015 454.882 c 0
 385.128 472.626 408.314 504.83 421.777 546.276 c 0
 435.996 590.049 435.75 632.031 410.523 674.719 c 0
 388.475 712.027 355.856 725.128 321.726 735.433 c 0
 285.069 746.501 250.875 750.614 210.796 734.744 c 0
 177.402 721.522 155.889 699.756 140.201 668.802 c 0
 119.261 627.489 118.014 586.874 134.771 544.758 c 0
 151.414 502.929 182.735 481.104 212.359 464.646 c 0
EndSplineSet
Ref: 47 47 N 1 0 0 1 0 0
EndChar
StartChar: ampersand
Encoding: 38 38 6
Width: 859
Flags: HW
Fore
400.913 616.857 m 0
 426.191 640.79 442.269 683.285 408.707 718.117 c 0
 353.642 775.266 274.545 741.688 224.832 714.101 c 0
 157.772 676.886 137.044 624.152 136.268 556.992 c 0
 135.669 505.235 177.819 482.946 179.453 476.129 c 1
 169.76 462.777 148.409 522.389 83.7324 350.995 c 0
 49.5371 260.378 78.5312 183.669 135.111 110.429 c 0
 181.807 49.9854 238.64 32.54 308.504 16.8203 c 0
 426.222 -9.66602 488.297 3.5625 589.308 23.3184 c 0
 671.196 39.335 701.036 95.9658 742 146 c 0
 813.235 233.01 773.898 297.13 773.265 368.83 c 0
 772.854 415.273 751.812 423.737 757.885 432.15 c 0
 772.676 452.644 826.625 410.269 880.097 456.52 c 0
 936.857 505.614 948.868 579.661 942.047 628.27 c 0
 932.181 698.567 847.194 726.682 785.166 706.499 c 0
 730.274 688.641 711.494 633.761 721.776 586.157 c 0
 732.647 535.824 794.331 547.367 794.863 539.435 c 0
 798.285 488.463 679.927 582.563 568.741 554.008 c 0
 524.378 542.614 474.2 533.601 445.25 482.483 c 0
 412.691 424.995 403.72 353.781 458.401 300.717 c 0
 499.806 260.537 559.586 262.037 606.074 288.385 c 0
 640.192 307.721 681.642 352.753 650.229 398.672 c 0
 612.763 453.44 544.604 398.075 537.426 403.853 c 0
 529.599 410.152 528.96 418.021 533.048 423.829 c 0
 550.548 448.691 582.139 453.387 620.894 440.303 c 0
 648.335 431.037 658.886 413.613 668.057 379.804 c 0
 683.814 321.715 678.556 284.462 644.541 236.562 c 0
 614.846 194.746 582.6 184.575 523.661 169.237 c 0
 460.422 152.78 424.544 154.911 359.301 170.328 c 0
 300.824 184.146 268.567 188.371 244.377 224.602 c 0
 205.522 282.797 199.578 291.793 238.521 385.564 c 0
 244.242 399.338 296.787 366.476 344.246 408.199 c 0
 370.833 431.573 403.752 469.017 382.095 515.111 c 0
 353.844 575.239 271.946 540.112 265.766 556.286 c 0
 260.167 570.934 270.646 586.451 300.937 605.246 c 0
 314.144 613.44 359.128 577.298 400.913 616.857 c 0
EndSplineSet
EndChar
StartChar: quotesingle
Encoding: 39 39 7
Width: 285
Flags: HW
Fore
144.587 458.57 m 1
 131.845 468.267 112.557 504.916 112.927 543.242 c 0
 113.347 586.59 130.019 619.109 155.438 656.942 c 0
 178.088 690.653 199.924 733.183 251.885 748.037 c 0
 315.193 766.136 363.048 737.914 383.066 688.365 c 0
 406.621 630.067 374.566 578.268 344.938 525.722 c 0
 321.517 484.181 292.578 470.632 270.841 443.402 c 0
 231.081 393.599 248.243 227.688 105.89 224.009 c 1
 95.8916 224.335 89.6943 227.111 84.2148 235.48 c 0
 51.209 285.895 125.996 396.105 144.587 458.57 c 1
EndSplineSet
EndChar
StartChar: parenleft
Encoding: 40 40 8
Width: 286
Flags: HW
Fore
9.25684 -236.605 m 0
 17.1963 -312.369 185.037 -274.804 176.779 -204.1 c 0
 157.896 -42.4199 137.437 -58.5566 151.428 41.5391 c 0
 167.609 157.299 196.659 225.752 260.294 345.249 c 0
 322.079 461.271 352.648 496.324 464.183 628.906 c 0
 491.939 661.9 455.655 728.124 408.6 691.787 c 0
 293.878 603.199 231.655 525.811 158.956 405.966 c 0
 70.6309 260.361 45.7686 165.707 16.248 19.9629 c 0
 -4.70215 -83.4688 -0.788086 -140.743 9.25684 -236.605 c 0
EndSplineSet
EndChar
StartChar: asterisk
Encoding: 42 42 10
Width: 552
Flags: HW
Fore
533.761 548.995 m 1
 558.016 572.878 647.473 596.535 562.908 666.177 c 0
 463.535 748.014 460.016 642.878 422.36 610.903 c 1
 418.016 678.878 449.644 729.736 375.725 728.876 c 0
 261.341 727.545 322.016 642.878 316.543 612.294 c 1
 274.016 642.878 249.935 736.398 176.742 647.8 c 0
 117.615 576.229 196.016 552.878 247.77 530.19 c 1
 190.016 516.878 97.2686 561.573 104.08 467.08 c 0
 112.422 351.359 202.016 422.878 265.191 418.35 c 1
 218.016 396.878 89.6514 362.645 179.804 285.848 c 0
 293.818 188.726 284.016 324.878 316.934 354.049 c 1
 314.016 300.878 276.023 228.095 371.664 222.914 c 0
 486.68 216.688 447.511 365.858 446.182 356.026 c 1
 453.441 350.747 450.54 212.081 550.537 291.28 c 0
 636.873 359.659 522.016 418.878 502.857 436.598 c 1
 528.016 434.878 629.235 411.242 632 490 c 0
 635.51 589.931 564.016 554.878 533.761 548.995 c 1
EndSplineSet
EndChar
StartChar: plus
Encoding: 43 43 11
Width: 360
Flags: HW
Fore
294.744 343 m 5
 307.109 333.995 338.111 360.57 369.9 316.781 c 5
 390.463 288.766 399.354 249.859 376.447 216 c 4
 356.661 186.729 305.127 202.998 288 199 c 5
 287.623 185.968 304.21 132.216 273.025 109.344 c 4
 245.01 88.7812 206.104 79.8906 172.244 102.797 c 4
 138.035 125.924 139.819 179.466 138 193 c 5
 122.16 196.82 82.6963 183.275 59.4941 215.344 c 4
 36.8379 246.641 45.1035 284.562 66.9473 309.469 c 4
 83.7695 328.672 128.764 327.421 142 331 c 5
 144.397 349.382 131.247 390.556 171.588 419.75 c 4
 202.885 442.406 240.807 434.141 265.713 412.297 c 4
 265.713 412.297 294.744 373 294.744 343 c 5
EndSplineSet
EndChar
StartChar: comma
Encoding: 44 44 12
Width: 283
Flags: HW
Fore
-4.58008 -101.807 m 0
 40.792 -36.0166 78.457 -39.5859 106.354 -8.34766 c 0
 125.645 13.2539 128.256 16.9102 130.39 10.7812 c 0
 131.01 8.99805 83.2598 -6.7207 52.7607 30.0361 c 0
 24.3633 64.2588 19.3369 106.799 37.2256 146.311 c 0
 54.3506 184.139 88.4746 194.521 116.441 202.124 c 0
 152.108 211.821 204.109 231.025 245.631 189.725 c 0
 310.661 125.039 288.093 42.1348 263.611 -28.2168 c 0
 245.423 -80.4844 210.28 -102.117 175.152 -128.885 c 0
 159.13 -141.094 141.955 -152.974 115.592 -157.74 c 0
 115.298 -157.794 -58.9854 -180.693 -4.58008 -101.807 c 0
EndSplineSet
EndChar
StartChar: hyphen
Encoding: 45 45 13
Width: 364
Flags: HW
Fore
59.5898 196.555 m 0
 36.9307 227.856 45.2061 265.773 67.0371 290.69 c 0
 108.719 338.264 162.355 319.678 198.643 325.86 c 0
 226.326 330.576 249.519 340.253 287.301 334.975 c 0
 311.745 331.559 346.018 330.7 370 298 c 0
 390.558 269.971 399.443 231.066 376.551 197.211 c 0
 340.664 144.14 282.824 151.865 239.788 150.233 c 0
 182.603 148.064 107.481 130.399 59.5898 196.555 c 0
EndSplineSet
EndChar
StartChar: period
Encoding: 46 46 14
Width: 277
VWidth: 1080
Flags: HW
Fore
105.385 13.8301 m 4
 153.599 1.02539 207.823 7.10059 243.198 53.416 c 4
 277.558 98.4004 267.205 149.988 245.796 191.592 c 4
 228.553 225.1 199.365 256.008 152.043 256.008 c 4
 105.325 256.008 75.8203 225.655 58.291 191.592 c 4
 34.999 146.329 39.4854 102.681 57.3369 59.584 c 4
 64.6855 41.8428 78.6631 20.9258 105.385 13.8301 c 4
EndSplineSet
EndChar
StartChar: slash
Encoding: 47 47 15
Width: 784
VWidth: 1080
Flags: HW
Fore
694.177 655.91 m 1
 682.699 663.581 670.818 678.874 669.609 685.781 c 0
 669.188 688.26 668.953 690.977 668.953 693.307 c 0
 668.953 718.037 688.641 735.137 706.203 743.36 c 1
 709.766 744.993 713.312 745.795 717.25 745.795 c 0
 786.828 745.81 800.828 750.545 821.141 750.545 c 0
 843.953 750.545 856.922 743.969 910.344 725.34 c 1
 916.203 723.173 920.25 720.025 923.422 714.86 c 0
 928.391 706.771 930.453 697.85 930.453 689.389 c 0
 930.453 667.865 917.641 648.241 899.656 635.535 c 0
 891.438 629.746 881.203 626.763 872.469 626.763 c 0
 855.928 626.763 846.981 630.87 844.14 632.402 c 1
 702.953 511.843 824.814 612.635 593.906 385.492 c 0
 475.938 269.443 454.016 254.853 344.328 133.045 c 1
 343.619 131.725 342.68 130.118 341.603 128.385 c 1
 353.702 127.04 369.249 120.331 372.938 102.496 c 0
 373.578 99.3789 373.906 96.2021 373.906 93.1445 c 0
 373.906 51.7598 325.594 37.124 314.625 25.2344 c 1
 309.203 19.7422 303.766 17.1738 295.828 17.1445 c 0
 228.875 16.9072 201.375 11.2363 157.766 11.2363 c 0
 136.219 11.2363 111.641 12.8252 78.2656 17.3818 c 1
 70.3125 18.748 65.1719 21.8203 60.6875 28.2178 c 0
 58.1094 31.8994 23.125 46.9355 23.125 83.3926 c 0
 23.125 87.3848 23.6562 91.5713 24.6406 95.6387 c 0
 33.25 131.278 66.875 144.104 89.4219 152.356 c 0
 96.8906 155.088 104.5 156.23 111.422 156.23 c 0
 138.281 156.23 154.828 146.211 156.891 146.211 c 0
 156.984 146.211 155.609 144.994 157.797 147.042 c 0
 340.359 319.452 387.141 364.28 529.359 485.153 c 0
 680.15 613.338 636.466 600.77 694.177 655.91 c 1
843.282 632.888 m 0
 843.27 632.92 843.245 632.819 843.223 632.854 c 0
 843.2 632.886 843.173 632.919 843.141 632.952 c 0
 843.104 632.99 843.149 632.965 843.282 632.888 c 0
EndSplineSet
EndChar
StartChar: zero
Encoding: 48 48 16
Width: 580
Flags: HW
Fore
311.938 147.908 m 4
 279.211 133.605 264.154 133.589 239.114 140.978 c 4
 195.976 153.707 180.821 165.802 173.936 199.943 c 4
 167.129 233.689 177.242 261.222 207.248 307.373 c 4
 236.172 351.858 259.347 377.185 304.438 397.139 c 4
 357.473 420.606 387.011 418.411 424.352 401.277 c 4
 445.641 391.509 449.691 381.562 453.636 353.518 c 4
 459.501 311.818 457.73 287.774 429.595 244.663 c 4
 397.94 196.16 366.161 171.604 311.938 147.908 c 4
132.913 36.4844 m 4
 203.412 -12.6094 271.421 -17.1924 365.438 16.4629 c 4
 453.968 48.1523 511.042 101.046 563.925 177.818 c 4
 620.654 260.178 646.883 331.818 628.334 413.534 c 4
 611.949 485.714 559.283 510.232 499.018 530.675 c 4
 434.006 552.729 376.645 559.292 293.811 530.625 c 4
 224.563 506.66 178.22 472.139 128.825 415.418 c 4
 63.1348 339.981 35.6328 271.34 38.3506 191.153 c 4
 41.042 111.732 85.7441 69.332 132.913 36.4844 c 4
EndSplineSet
EndChar
StartChar: one
Encoding: 49 49 17
Width: 580
Flags: HW
VStem: 372 0<96 318>
Fore
291.185 398.896 m 1
 282.156 394.16 268.035 400.631 261.188 424.219 c 0
 247.938 469.922 273.828 526.766 317.844 551.891 c 1
 321.844 554.141 325.828 555.219 330.406 555.188 c 0
 779.031 552.234 217.656 558.188 528.484 555.188 c 1
 536.562 554.812 542.219 552.391 547.438 546.203 c 0
 580.578 506.875 562.609 454.391 529.281 415.031 c 0
 499.5 379.859 500.375 406.812 499.406 405.25 c 1
 435.026 222.203 426.863 196.525 436.069 220.219 c 0
 450.923 258.444 460.403 286.474 402.534 128.192 c 1
 404.955 123.875 408.044 117.267 412 108 c 0
 419.078 91.375 432.516 3.34375 372.641 2.1875 c 0
 62.3594 -3.79688 440.078 4.17188 129.031 1.1875 c 0
 58.5156 0.515625 111.734 92.9062 138.281 116.781 c 0
 171.938 147.031 190.266 126.594 189.406 125.422 c 1
 340.342 512.175 158.146 56.9883 291.185 398.896 c 1
EndSplineSet
EndChar
StartChar: two
Encoding: 50 50 18
Width: 580
Flags: HW
Fore
361.458 144.719 m 5
 351.958 166 363.849 180.062 379.099 190.281 c 5
 380.817 191.422 382.614 192.328 384.552 193.031 c 4
 437.724 212.156 470.067 214.891 504.239 185.297 c 5
 514.396 173.734 517.036 166.719 509.271 153.453 c 4
 445.036 43.7656 467.474 81.6094 380.739 5.84375 c 5
 376.146 1.96875 371.458 -0.03125 365.442 -0.3125 c 4
 98.0205 -12.7812 265.786 -6.5 47.8174 -3.4375 c 4
 -9.58887 -2.625 32.458 67.9844 45.8018 81.5312 c 4
 178.489 216.203 240.974 216.156 343.38 331.938 c 4
 375.271 368 383.021 394.875 377.114 406.422 c 4
 374.13 412.266 359.442 415.156 320.036 403.188 c 4
 273.458 389.031 270.771 363.734 193.599 313.094 c 5
 168.364 306.297 163.536 303.875 155.442 328.719 c 4
 138.396 381.031 165.896 404.781 185.661 423.516 c 4
 253.974 488.312 278.974 503.906 340.552 522.438 c 4
 409.88 543.297 499.317 571.953 545.177 503.031 c 4
 585.802 441.969 542.927 372.078 503.489 311.109 c 4
 449.224 227.234 384.521 213.141 330.677 159.75 c 5
 321.716 146.409 l 5
 321.716 146.409 344.467 144.412 361.458 144.719 c 5
EndSplineSet
EndChar
StartChar: three
Encoding: 51 51 19
Width: 580
Flags: HW
Fore
449.759 236.866 m 5
 460.115 233.308 470.942 225.924 478.367 217.047 c 4
 509.805 179.453 500.586 137.359 492.695 97.1719 c 4
 477.898 21.9531 455.508 -31.6094 401.18 -102.234 c 4
 358.039 -158.344 319.836 -199.953 251.758 -229.891 c 4
 168.68 -266.406 53.1641 -316.156 -3.17969 -236.438 c 4
 -38.9141 -185.875 -5.07031 -114.969 48.3047 -75.8438 c 5
 52.1797 -73.0625 56.1484 -71.5156 60.8984 -71.0938 c 4
 132.789 -64.7188 98.4766 -73.6562 151.867 -71.0312 c 5
 159.352 -70.8906 164.898 -72.7656 170.336 -77.9062 c 4
 185.214 -91.9365 186.945 -110.659 183.252 -121.869 c 5
 189.964 -119.935 198.342 -116.667 207.742 -110.797 c 4
 260.664 -77.75 282.883 -44.4375 309.508 10.8438 c 4
 326.758 46.6562 329.352 61.5938 323.648 70.375 c 4
 317.445 79.9219 303.211 80.0312 262.992 77.0625 c 5
 236.508 75.1094 226.133 47.9844 151.352 41.1094 c 5
 143.477 40.6562 137.695 42.4062 131.93 47.7812 c 4
 90.1641 86.7188 138.242 140.719 162.086 171.359 c 5
 163.32 172.953 164.711 174.359 166.305 175.609 c 4
 281.742 266.938 287.586 258.047 387.18 337.547 c 4
 397.055 345.422 396.148 355.203 388.023 365.594 c 4
 385.305 369.062 379.617 372.797 354.633 365.906 c 4
 313.648 354.578 299.68 302.25 224.352 276.359 c 4
 155.852 252.812 197.086 352.797 205.383 366.766 c 4
 247.617 437.891 301.273 486.453 367.539 517.547 c 4
 440.086 551.594 422.961 543.031 464.32 548.766 c 4
 495.742 553.109 537.508 553.641 574.93 515.812 c 4
 628.164 462 576.32 396.734 546.695 344.641 c 4
 506.987 274.798 474.372 253.273 449.759 236.866 c 5
EndSplineSet
EndChar
StartChar: four
Encoding: 52 52 20
Width: 580
Flags: HW
VStem: 241.387 91.2<-185.805 -87.4491 -185.805 30.7945>
Fore
268.437 165.615 m 4
 267.926 164.215 272.957 178.035 298.198 247.38 c 5
 298.056 248.603 297.878 249.658 297.685 250.571 c 5
 194.873 146.616 l 5
 185.229 135.651 184.56 136.493 197.567 134.569 c 5
 203.843 135.339 220.993 136.691 258.773 139.035 c 5
 282.383 203.919 269.201 167.711 268.437 165.615 c 4
276.021 -195.706 m 4
 235.023 -228.941 180.665 -241.678 147.386 -200.798 c 5
 141.908 -193.228 140.335 -186.979 143.333 -178.131 c 4
 195.91 -22.7471 203.316 -16.5566 212.728 15.0752 c 5
 169.087 18.4443 166.683 -23.1182 29.8379 13.5166 c 5
 -20.1406 26.1631 16.6123 86.1318 25.9785 100.664 c 5
 26.8545 102.029 27.8486 103.262 28.9766 104.42 c 4
 304.136 385.159 205.068 302.821 459.342 516.378 c 5
 461.568 518.233 463.958 519.614 466.689 520.579 c 4
 486.877 527.733 522.502 530.643 536.084 499.011 c 5
 538.207 493.801 538.652 489.036 537.212 483.588 c 4
 488.747 299.585 476.843 303.014 405.103 137.907 c 5
 418.433 137.076 416.666 165.175 575.583 156.15 c 5
 587.681 154.265 593.559 150.628 597.092 138.901 c 4
 613.465 84.6777 553.095 35.2773 505.729 9.86523 c 5
 428.215 -31.7129 411.471 11.127 352.793 7.93555 c 5
 308.039 -115.03 328.672 -77.5059 282.969 -186.443 c 5
 281.38 -190.17 279.168 -193.153 276.021 -195.706 c 4
EndSplineSet
EndChar
StartChar: five
Encoding: 53 53 21
Width: 580
Flags: HW
Fore
360.534 366.375 m 5
 276.119 227.207 337.657 321.544 253.145 193.038 c 5
 264.885 194.752 277.389 196.505 280.587 196.747 c 4
 329.438 200.384 369.545 213.09 421.098 195.545 c 4
 446.852 186.772 483.664 174.244 488.83 130.232 c 4
 498.374 48.918 455.238 -17.5518 393.354 -87.748 c 4
 317.934 -173.293 245.778 -213.608 144.855 -248.402 c 4
 94.6836 -265.695 57.04 -266.407 14.6309 -254.518 c 4
 -25.8623 -243.147 -71.21 -228.57 -82.0312 -173.53 c 4
 -87.5088 -145.742 -77.3105 -117.896 -54.8672 -95.2295 c 4
 -27.6436 -67.7383 7.15039 -49.585 44.4521 -56.2646 c 4
 97.6816 -65.7939 81.3838 -119.617 86.252 -119.395 c 4
 131.185 -117.287 176.057 -121.488 223.394 -79.0645 c 4
 292.951 -16.6914 320.338 53.4307 298.34 97.9326 c 4
 295.089 104.523 278.746 105.369 237.51 96.626 c 4
 194.033 87.3936 161.763 28.5527 93.8525 22.1104 c 4
 82.4229 21.0273 46.7979 19.2461 43.6064 55.0488 c 5
 43.2051 60.2441 44.1406 64.668 46.7676 69.165 c 4
 235.996 392.121 198.011 342.543 378.229 531.444 c 5
 381.436 534.739 384.938 536.862 389.377 538.02 c 4
 454.896 555.298 459.335 476.403 461.131 474.444 c 4
 471.849 462.762 476.257 467.2 486.084 472.9 c 4
 504.282 483.454 492.511 532.053 547.774 564.101 c 4
 568.541 576.139 589.945 570.691 601.717 564.783 c 5
 640.771 545.145 669.122 516.481 662.531 460.966 c 5
 654.842 396.069 572.029 319.179 570.663 317.709 c 5
 566.626 313.227 558.105 310.406 552.094 310.881 c 4
 407.174 322.385 474.669 306.591 377.086 318.585 c 5
 369.248 319.861 364.187 322.89 359.853 329.555 c 4
 357.071 333.844 357.76 350.867 360.534 366.375 c 5
EndSplineSet
EndChar
StartChar: six
Encoding: 54 54 22
Width: 580
Flags: HW
Fore
422.864 368.091 m 4
 395.516 389.144 356.457 388.617 298.759 363.171 c 4
 255.168 343.959 232.831 319.302 210.23 278.016 c 4
 175.117 213.867 169.208 175.025 190.663 131.558 c 4
 196.912 118.936 204.307 114.279 235.646 111.387 c 4
 271.023 108.123 291.364 108.463 322.704 129.779 c 4
 386.544 173.199 407.952 217.765 427.273 283.678 c 4
 441.582 332.513 441.999 353.364 422.864 368.091 c 4
347.091 477.341 m 5
 365.368 489.45 381.64 497.749 454.962 489.412 c 4
 517.904 482.266 567.466 461.521 588.148 401.395 c 4
 617.523 316.007 602.379 232.986 525.206 140.483 c 4
 487.632 95.4541 454.405 71.833 404.89 42.0244 c 4
 368.554 20.1514 340.88 6.40039 299.935 -1.50488 c 4
 231.562 -14.7148 177.886 -20.918 120.45 8.24121 c 4
 59.8125 39.0391 12.0146 79.2578 21.6514 162.929 c 4
 33.6709 267.312 51.0107 345.413 121.564 453.864 c 4
 179.093 542.314 232.861 596.115 326.804 656.783 c 4
 429.393 723.052 510.851 767.571 622.705 767.958 c 4
 655.035 768.081 686.003 768.236 701.317 722.912 c 5
 704.194 708.712 702.926 701.442 690.629 693.785 c 4
 593.855 633.704 575.015 645.862 514.98 606.789 c 4
 439.988 557.972 400.785 538.413 347.091 477.341 c 5
EndSplineSet
EndChar
StartChar: seven
Encoding: 55 55 23
Width: 580
Flags: HW
HStem: 598 114<192.33 222.33>
Fore
430.522 737 m 5
 703.844 737 l 5
 735.391 720.906 744.859 723.781 723 695.938 c 4
 430.656 323.375 451.406 388.562 169.641 20.7969 c 5
 168.094 18.7812 166.328 17.0781 164.266 15.6094 c 4
 148.578 4.48438 123.797 -29.8281 86.0469 -33.75 c 4
 20.625 -40.5312 63.4844 -43 -3.85938 -43 c 5
 -33.6094 -29.4375 -42.0312 -31.1562 -24.3438 -3.67188 c 4
 153.234 272.266 143.75 206.484 241.922 337.031 c 5
 326.406 449.391 373.562 471.109 406.062 560.406 c 5
 406.062 560.406 405.031 573 374.344 573 c 5
 319.656 573 323.938 555.641 212.109 492.25 c 5
 208.188 490.078 204.266 489 199.781 489 c 4
 170.609 488.969 130.391 500.281 131.703 544.734 c 5
 131.859 548.938 132.875 552.672 134.953 556.328 c 4
 212.344 692.906 220.188 699.969 311.281 765.312 c 5
 312.438 766.141 313.641 766.859 314.906 767.469 c 4
 349.812 784.484 388.062 784.547 414.031 758.719 c 4
 422.736 750.062 427.984 742.657 430.522 737 c 5
EndSplineSet
EndChar
StartChar: eight
Encoding: 56 56 24
Width: 580
Flags: HW
Fore
274.59 146.914 m 4
 297.449 157.467 306.965 170.354 324.137 196.324 c 4
 344.934 227.783 352.512 243.868 349.715 263.32 c 4
 348.152 274.161 346.574 277.253 326.637 284.834 c 4
 298.496 295.537 283.746 298.872 249.355 285.016 c 4
 226.324 275.737 214.855 264.639 198.871 241.52 c 4
 178.137 211.5 173.84 196.005 176.246 169.868 c 4
 177.73 153.935 179.449 148.871 192.262 143.201 c 4
 218.199 131.708 237.434 129.738 274.59 146.914 c 4
408.793 488.49 m 4
 423.184 495.086 428.512 502.605 442.418 521.435 c 4
 459.621 544.707 465.793 555.229 467.918 573.998 c 4
 470.324 595.223 468.777 598.18 460.199 605.29 c 4
 439.715 622.24 424.355 628.198 385.621 617.828 c 4
 359.309 610.778 343.355 598.893 322.949 573.785 c 4
 303.402 549.755 299.527 536.976 299.918 513.521 c 4
 300.293 491.145 302.652 488.065 314.324 482.486 c 4
 341.605 469.448 365.762 468.796 408.793 488.49 c 4
447.13 387.077 m 4
 447.372 386.769 447.604 386.442 447.824 386.093 c 4
 455.855 373.419 518.043 368.855 528.012 307.302 c 4
 538.637 241.686 503.996 191.306 465.355 133.194 c 4
 440.105 95.2314 416.902 60.5127 367.527 37.21 c 4
 271.246 -8.21094 196.73 -2.70898 121.559 26.8408 c 4
 78.6211 43.7148 50.9648 72.1113 47.668 121.506 c 4
 43.3086 186.698 73.4961 236.667 117.434 294.628 c 4
 159.891 350.617 201.99 371.901 215.904 374.635 c 5
 203.48 381.253 168.459 406.299 166.652 471.723 c 4
 164.59 546.648 186.855 612.688 253.527 681.154 c 4
 293.887 722.591 336.418 735.72 383.918 746.347 c 4
 462.418 763.919 518.762 762.159 580.215 732.839 c 4
 620.309 713.706 647.777 686.855 653.621 638.189 c 4
 659.387 590.038 642.715 550.499 611.934 505.531 c 4
 590.59 474.33 566.855 459.896 539.887 441.052 c 4
 502.094 414.626 488.188 401.473 447.13 387.077 c 4
EndSplineSet
EndChar
StartChar: nine
Encoding: 57 57 25
Width: 580
Flags: HW
Fore
410.266 147.328 m 0
 460.797 212.438 469.766 257.578 463.047 321.375 c 0
 461.328 337.625 459.188 342.922 443.219 350.328 c 0
 413.062 364.312 392 366.953 349.016 349.781 c 0
 324.469 339.984 312.156 328.141 293.891 303.219 c 0
 245.016 236.562 225.125 192.703 228.969 133.625 c 0
 230.109 115.984 233.266 108.922 252.031 101.062 c 0
 280.734 89.0312 304.25 91.1406 350.141 107.547 c 0
 378.406 117.641 393.328 125.484 410.266 147.328 c 0
320.038 -6.43164 m 1
 304.158 -8.99512 288.728 -10.7207 288.516 -10.7656 c 0
 256.359 -17.125 226.656 -25.7812 188.219 -13.875 c 0
 143.328 0.015625 109.078 22.0781 94.4219 70.7969 c 0
 70.7812 149.484 81.7031 221.234 134.281 308.859 c 0
 180.266 385.531 235.156 439.328 320.531 473.234 c 0
 420.156 512.797 501.641 510.203 570.641 459.094 c 0
 622.469 420.688 619.219 364.734 614.438 309.828 c 0
 604.953 200.719 565.75 128.375 504.688 23.4219 c 0
 455.062 -61.875 416.672 -116.219 337.438 -186.688 c 0
 262.938 -252.938 207.156 -289.219 117.703 -323.359 c 1
 68.3281 -342.203 46.625 -343 -11.7656 -343 c 1
 -17.1094 -342.938 -21.5781 -341.594 -25.9844 -338.562 c 0
 -53.6562 -319.516 -49.9688 -285.734 -35.7031 -262.797 c 1
 -34.2344 -260.438 -32.4688 -258.422 -30.3125 -256.656 c 0
 76.6406 -169.062 106.516 -178.688 178.453 -129.906 c 1
 259.785 -63.8545 300.701 -26.707 320.038 -6.43164 c 1
EndSplineSet
EndChar
StartChar: less
Encoding: 60 60 28
Width: 413
VWidth: 1080
Flags: HW
Fore
352.248 455.375 m 0
 396.346 463.103 447.459 466.594 470.472 431.077 c 1
 494.523 400.627 459.313 369.021 443.977 357.369 c 1
 419.879 336.265 390.249 347.354 392.796 348.721 c 1
 392.579 348.605 l 0
 308.601 304.607 260.778 283.756 208.541 251.504 c 1
 211.987 239.801 260.418 216.463 331.492 139.456 c 1
 334.593 136.036 336.534 132.361 337.541 127.856 c 0
 338.835 122.062 353.469 84.4707 318.516 61.7812 c 1
 316.21 60.291 313.796 59.2246 311.139 58.54 c 0
 256.521 44.4668 237.91 46.8135 195.241 44.2959 c 0
 134.108 40.6895 135.37 118.007 99.3721 145.6 c 0
 85.3477 156.35 3.69434 248.654 75.0439 288.808 c 0
 96.457 300.858 155.306 347.067 211.48 380.913 c 0
 254.879 407.062 280.769 442.848 352.248 455.375 c 0
EndSplineSet
EndChar
StartChar: question
Encoding: 63 63 31
Width: 457
Flags: HW
Fore
246.224 203.067 m 4
 204.972 178.9 167.689 202.463 154.245 231.738 c 5
 152.362 235.941 151.674 235.109 152.203 239.67 c 4
 164.565 346.33 177.644 382.575 224.687 485.107 c 5
 228.236 492.161 232.677 496.29 240.363 498.546 c 4
 365.435 535.262 343.827 504.211 396.735 515.572 c 5
 404.477 520.941 411.98 532.358 410.83 543.06 c 4
 408.459 565.127 382.609 550.208 335.319 587.997 c 4
 334.937 588.304 269.762 597.136 270.002 651.584 c 5
 270.008 652.766 270.099 653.935 270.277 655.104 c 4
 277.524 702.566 299.17 734.643 341.215 753.205 c 5
 343.782 754.333 346.391 755.012 349.191 755.265 c 4
 417.149 761.402 446.678 747.314 488.829 714.847 c 5
 493.274 711.312 496.043 707.334 497.531 701.916 c 4
 512.042 649.073 527.184 613.875 511.987 548.059 c 4
 500.63 498.869 498.54 448.308 430.522 399.434 c 4
 368.927 355.172 336.091 374.195 307.947 347.242 c 5
 294.953 305.505 270.738 272.76 257.938 214.126 c 5
 256.1 206.852 252.788 206.913 246.224 203.067 c 4
134.244 3.68945 m 4
 107.472 1.87305 81.5088 9.22461 64.9482 31.2324 c 4
 45.1943 57.4844 29.9453 95.9609 57.4609 138.321 c 4
 81.2725 174.981 119.345 189.218 154.816 193.58 c 4
 190.572 197.978 228.076 188.735 243.27 152.014 c 4
 258.938 114.145 247.235 72.8076 214.787 38.0547 c 4
 190.166 11.6846 159.955 5.43555 134.244 3.68945 c 4
EndSplineSet
EndChar
StartChar: at
Encoding: 64 64 32
Width: 452
VWidth: 1000
Flags: HW
Fore
91 70 m 24
 47.9531 113.641 53.3125 161.719 55 223 c 24
 57.2812 305.906 76.7969 353.391 115 427 c 24
 165.25 523.828 188.797 602.891 289 646 c 24
 363.438 678.031 435.375 681.781 496 628 c 24
 534.453 593.891 525.547 550.344 523 499 c 24
 516.25 363 486.75 283.531 418 166 c 24
 379.125 99.5469 356.844 43.75 283 22 c 24
 208.953 0.203125 145.203 15.0469 91 70 c 24
251.078 312 m 0
 258.734 308.141 265.703 317.25 281.984 330.562 c 0
 302.469 347.344 309.766 359.906 322.172 384.922 c 0
 328.656 398 331.938 401.812 330.375 409.672 c 0
 329.547 413.812 328.844 413.875 328.094 414.047 c 0
 318.953 416.344 314.422 410.938 300.594 400.234 c 0
 285 388.156 280.641 377.812 268.359 358.344 c 0
 259.062 343.594 253.359 338.562 251.703 326.172 c 0
 250.125 314.344 250.156 312.469 251.078 312 c 0
394.381 308.326 m 1
 419.772 358.714 436.175 402.856 444.922 469.453 c 8
 449.297 502.781 460.266 531.297 436.672 555.25 c 24
 412.141 580.156 380.344 577.328 347.578 565.156 c 24
 278.438 539.453 255.656 490.5 218.875 426.547 c 24
 172.594 346.078 154.125 291.562 149.578 198.844 c 24
 147.641 159.516 137.594 123.094 169.375 99.8438 c 24
 197.594 79.2188 228.109 92.4062 258.469 109.75 c 24
 317.141 143.266 330.016 189.062 362.422 248.344 c 16
 366.03 254.948 l 1
 349.162 250.831 320.642 247.817 306.719 257.078 c 0
 295.938 264.25 294.125 274.875 293.484 283.328 c 1
 293.094 282.875 292.672 282.453 292.234 282.031 c 0
 284.953 275.281 279.953 265.562 265.25 259.438 c 0
 251.828 253.859 240.188 253.891 227.188 256.359 c 0
 216.031 258.469 201.031 260.141 191.547 274.953 c 0
 179.734 293.438 185.844 310.766 189.375 325.781 c 0
 197.125 358.688 209.891 376.891 229.156 402.25 c 0
 246.609 425.25 262.672 438.938 285.766 455.219 c 0
 298.562 464.266 311.703 470.094 330.359 469 c 0
 354.281 467.625 359.562 457.562 363.281 453.281 c 0
 364.938 451.391 369.031 469.922 385.344 468.141 c 0
 400.641 466.469 407.734 453.281 409.281 441.953 c 1
 409.406 441.031 409.406 440.125 409.281 439.188 c 0
 404.172 401.109 382.516 385.406 371.531 357.578 c 1
 371.375 357.219 l 0
 362.453 336.922 353.719 331.953 354.875 320.312 c 0
 355.125 317.703 360.344 319.469 361.016 312.438 c 0
 361.21 310.33 383.981 315.962 394.381 308.326 c 1
EndSplineSet
EndChar
StartChar: A
Encoding: 65 65 1
Width: 728
VWidth: 1080
Flags: HW
Fore
576.562 487.609 m 1
 500.062 460.609 534.859 386.969 534.859 386.969 c 1
 535.625 384.594 556.812 372.969 592.609 375.953 c 0
 624.016 378.578 641.453 388.094 650.922 410.938 c 0
 660.5 434.078 655.891 451.562 632.547 472.656 c 0
 626.422 478.156 579.859 485.406 576.562 487.609 c 1
328.391 138 m 1
 340.219 133.906 356.812 125.891 362.938 115.781 c 0
 385.156 79.1094 355.938 48.6094 353.656 36.2656 c 1
 351.703 28.1406 348.047 23.2344 339.75 19.6094 c 0
 284.703 -4.45312 230.875 9.03125 174.188 6.60938 c 1
 172.938 6.54688 171.703 6.57812 170.469 6.70312 c 0
 141.828 9.32812 78.0938 -23.2969 35.3125 26.0781 c 0
 5 61.0469 18.625 106.094 50.0156 132.344 c 0
 89.5938 165.422 144.141 142.938 147.984 143.156 c 1
 273.906 256.812 284.734 293.016 441.75 464.094 c 1
 441.812 464.172 l 0
 503.922 531.297 534.797 575.234 605.062 640.516 c 1
 605.359 640.781 l 0
 654.188 684.672 614.969 648.594 728.641 739.312 c 0
 791.672 789.609 895.281 705.359 868.156 645.172 c 0
 819.938 538.172 793.906 487.438 754.641 384.594 c 0
 721.938 298.953 697.438 255.156 683.734 170.297 c 0
 679.531 144.172 671.578 131.859 680.625 132.516 c 0
 685.672 132.891 704 142.594 723.094 110.109 c 0
 744.203 74.1562 721.141 41.6406 719.922 27.4062 c 1
 713.219 8.9375 710.219 3.8125 689 7.23438 c 0
 631.844 16.4844 508.875 -14.5312 418.516 7.34375 c 1
 405.266 12.1562 400.531 16.7969 400 29.6875 c 0
 399.5 42.0625 367.938 87.2344 410.25 121.703 c 0
 444.531 149.609 487.375 129.875 491.844 124.344 c 1
 541.297 188.109 522.016 225.703 541.297 244.062 c 1
 541.297 244.062 512.995 252.822 481.219 261.344 c 1
 445.141 266.328 410.719 261.078 405.734 261.078 c 1
 349.109 137.188 338.859 179.672 328.391 138 c 1
EndSplineSet
KernsSLIF: 87 -238 0 0 86 -238 0 0
EndChar
StartChar: B
Encoding: 66 66 2
Width: 623
VWidth: 1080
Flags: HW
Fore
338.547 340.591 m 0
 306.141 314.234 316.047 282.577 302.453 224 c 0
 292.828 182.592 275.859 136.732 280.828 123.655 c 1
 290.875 119.115 342.828 110.499 379.625 128.423 c 1
 411.828 149.725 425.875 147.65 439.219 166.043 c 0
 466.484 203.649 477.109 227.485 465.891 265.12 c 0
 452.812 309.035 428.406 332.684 380.312 347 c 0
 361.531 352.604 351.641 351.249 338.547 340.591 c 0
364.46 435.72 m 1
 404.46 440.104 427.547 439.943 459.219 449.521 c 1
 489.766 461.431 502.703 468.158 519.328 490.669 c 0
 540.406 519.23 546.109 535.764 543.078 569.856 c 0
 539.703 607.881 533.766 627.007 507.031 645.457 c 0
 479.844 664.194 459.094 668.775 439.312 657.31 c 0
 422.219 647.387 426.828 631.499 409 586 c 0
 392.391 543.655 385.531 522.44 378.531 489.819 c 0
 372.991 464.054 368.885 440.139 364.46 435.72 c 1
264.721 637.471 m 1
 246.249 628.195 200.646 619.845 165.875 653.566 c 0
 143.922 674.854 147.781 704.883 164.375 724.27 c 0
 199.641 765.52 249.938 752.428 281.75 755.077 c 0
 327.438 758.864 354.391 752.773 394.188 749.547 c 0
 475.031 742.979 553.609 777.373 638.859 719.314 c 0
 690.469 684.172 701.984 636.57 704.969 585.887 c 0
 708.547 525.078 691.891 479.752 651.719 432.208 c 0
 603.156 374.711 548.594 380.631 535 376.828 c 0
 525.422 374.136 568.859 384.707 593.172 357.918 c 0
 633.375 313.614 645.484 270.982 646.984 216.511 c 0
 648.484 162.716 646.609 111.413 597.562 66.7773 c 0
 556.453 29.374 511.312 41.6729 478.688 33.3203 c 1
 476.344 32.7305 474 32.4551 471.562 32.4844 c 0
 363.984 34.1992 285.812 -7.46875 38.6562 4.86035 c 1
 24.6562 7.10742 18.625 10.7646 15.4531 23.542 c 0
 8.1875 52.6914 17.4531 87.6914 26.2344 112.464 c 1
 30.0938 121.38 34.9219 125.888 45.0938 127.904 c 0
 79.5469 134.731 86.8906 128.566 93.9219 134.012 c 0
 118.328 152.907 111.484 176.471 128.266 223.165 c 0
 150.031 283.686 157.25 320.097 175.562 381.338 c 1
 208.656 559.238 249.61 616.218 264.721 637.471 c 1
EndSplineSet
EndChar
StartChar: C
Encoding: 67 67 3
Width: 671
VWidth: 1080
Flags: HW
Fore
681.25 270.781 m 0
 690.156 238.984 685.438 192.828 679.859 146.812 c 0
 675.516 111.031 686.719 72.0312 650.844 30.2031 c 0
 641.906 19.7969 616.141 -9.51562 580.25 5.75 c 0
 552.141 17.7031 548.219 38.2812 566.406 41.375 c 0
 573.875 42.6562 555.375 42.4219 524.156 41.125 c 0
 447.891 37.9844 401.828 0.25 306.031 3.59375 c 0
 251.938 5.48438 212.344 13.0625 164.125 38.9375 c 0
 121.406 61.8594 109.531 89.1719 84.8594 112.406 c 1
 82.5938 114.562 80.9062 116.906 79.7031 119.672 c 0
 44.375 200.688 59.8906 268.5 72.1719 360.922 c 1
 72.4062 362.594 72.8281 364.219 73.4531 365.797 c 0
 73.4531 365.797 88.369 462.759 114 519 c 24
 128.939 551.782 147 576 165.891 595.422 c 0
 239.238 670.832 294.984 702.844 401.391 728.938 c 1
 470.141 751.359 502.359 752.141 601.203 751.422 c 1
 605.828 751.344 609.844 750.375 613.812 748.266 c 0
 646.938 730.625 655.656 718.109 679.656 712.203 c 0
 699.422 707.312 710.375 713 745 713 c 1
 756.75 712.141 763.109 709.172 767.922 699.562 c 0
 798.844 637.922 759.766 557.203 763.938 504.609 c 1
 762.062 488.812 758.844 484.281 741.484 480.812 c 0
 733.609 479.234 703.531 461.672 667.781 477.719 c 0
 629 495.109 628.516 530.141 621.984 539.188 c 0
 590.234 583.203 586.359 608.656 551.984 631.703 c 0
 537.609 641.344 531.969 643.141 512.75 643.312 c 0
 466.656 643.719 443.734 636.906 405.125 613.266 c 0
 349.297 579.094 329.781 549.203 297.359 491.266 c 0
 275.703 452.562 273.375 429.219 265.75 381.906 c 0
 260.406 348.859 259.656 332.516 262.906 299.484 c 0
 267.406 253.531 263.375 231.984 284.219 202.141 c 0
 310.281 164.797 331.844 148.906 378.094 136.688 c 0
 396.719 131.766 405.719 135.281 434.5 142.203 c 0
 477.266 152.469 497 157.594 526.688 180.438 c 0
 550.562 198.828 539.109 254.391 601.672 278.906 c 0
 604.781 280.125 667.984 318.203 681.25 270.781 c 0
EndSplineSet
EndChar
StartChar: D
Encoding: 68 68 4
Width: 797
VWidth: 1080
Flags: HW
Fore
316.531 147.911 m 24
 349.083 112.953 392.879 129.652 438.891 142.482 c 24
 474.91 152.526 491.547 169.258 518.656 195.685 c 0
 569.938 245.66 597.594 271.142 628.469 329.112 c 0
 652.25 373.787 663.312 396.279 662.016 441.488 c 0
 660.219 503.183 655.422 537.943 614.516 578.513 c 0
 582.688 610.072 555.859 621.156 507.734 619.887 c 0
 489.516 619.394 479.641 615.756 466.359 601.09 c 0
 434.344 565.723 430.031 535.356 409 473 c 0
 385.547 403.466 380.891 367.701 354 300 c 0
 335.391 253.154 326.266 225.241 317.531 185.037 c 0
 313.797 167.834 306.66 158.512 316.531 147.911 c 24
265.618 600.266 m 1
 252.684 599.121 201.503 606.77 182.812 639.263 c 0
 159.891 679.1 195.297 712.055 198.641 725.127 c 1
 203.297 736.973 208.219 741.895 222.141 742.6 c 0
 282.906 745.659 323.516 745.941 384.062 748.014 c 1
 386.156 748.084 388.188 747.915 390.234 747.52 c 0
 474.109 731.303 l 0
 556.328 716.2 620.219 730.543 708.438 689.577 c 0
 768.516 661.67 805.578 631.323 838.828 577.625 c 0
 862.797 538.916 863.844 507.258 864.984 468.859 c 0
 867.016 401.426 862.078 355.765 834.297 291.307 c 0
 820.344 258.9 802.344 242.727 782.516 220.39 c 0
 736.984 169.131 709.891 131.973 645.266 91.4307 c 0
 569.297 43.7812 512.547 39.2686 436.906 9.8252 c 1
 433.031 8.34473 429.25 7.75195 425.062 8.04883 c 0
 292.469 17.3555 183.891 -5.3623 65.4375 10.0078 c 1
 54.4375 12.209 48.9219 15.9873 45.1562 25.5762 c 0
 41.0156 36.125 8.15625 61.8604 23.2969 102.685 c 0
 44.6719 160.317 111.125 155.17 124.844 172.05 c 0
 144.484 196.191 139.078 217.626 155.391 259.959 c 0
 171.219 301.094 181.859 324.812 197.031 361.998 c 1
 199.271 370.377 257.982 573.707 265.618 600.266 c 1
EndSplineSet
EndChar
StartChar: E
Encoding: 69 69 5
Width: 639
VWidth: 1080
Flags: HW
HStem: 623.407 95.9028<74 102 235.88 269.978>
Fore
455 636 m 1
 439.875 619.062 436.531 579 431.938 557.875 c 1
 416.687 495.934 391.999 464.614 398 440 c 1
 397.547 440.5 439 425.562 470.297 442.734 c 0
 485.469 451.078 463.812 495.156 510.703 525.594 c 0
 545.203 547.984 579.484 534.078 594.922 535.266 c 1
 612.047 533.938 618.703 531.203 621.734 515.469 c 0
 634.703 448.141 595.828 402.844 591.938 353.938 c 1
 591.719 351.391 591.109 348.984 590.047 346.641 c 0
 577.031 317.75 583.609 286.312 558.984 244.016 c 1
 557.156 240.922 554.859 238.438 551.828 236.359 c 0
 523.484 216.891 481.219 213.719 453.062 240.75 c 1
 450.703 243.016 448.969 245.516 447.719 248.453 c 0
 420.656 312.781 430.594 343.297 439.328 352.031 c 1
 422.891 352.75 387.984 354.094 369.203 350.844 c 1
 337.57 291.578 343.344 240.844 323.859 158.406 c 1
 329.375 154.125 347.953 130.203 365.516 124.281 c 0
 393.344 114.891 408.109 117.453 443.344 125.078 c 1
 446.906 125.812 450.328 125.891 453.922 125.219 c 0
 498.016 117 488.078 118.953 541.219 169.031 c 1
 545.094 172.594 549.25 174.688 554.609 175.594 c 0
 568.797 178 610.203 193.234 636.766 161.344 c 0
 678.688 110.984 628.297 60.25 623.719 31.9062 c 1
 619.859 18.9531 615.359 13.5469 601 12.1562 c 0
 541.797 6.40625 436.406 21.2344 331.453 12.1875 c 1
 30.6719 2.875 l 0
 9.96875 9.6875 7.76562 12.0312 8.96875 32.4375 c 0
 9.07812 34.5469 6.67188 60.5469 26.5156 80.8281 c 0
 70.3594 125.594 117.609 116.422 134.922 122.688 c 1
 147.109 145.484 133.828 208.766 189.812 325.281 c 1
 255.5 493.938 l 0
 255.625 494.25 l 0
 284.062 564.109 296.844 609.109 301.516 627.406 c 1
 284.516 618.672 238.156 609.391 183.188 636.812 c 0
 131.328 662.688 188.594 723.938 188.875 724.906 c 1
 193.297 735.828 198.281 740.734 210.75 741.969 c 0
 273.641 748.156 335.031 744.781 410.047 753.062 c 1
 411.969 753.281 413.844 753.281 415.766 753.078 c 0
 452.547 749.281 470.844 745 503.891 743.906 c 0
 540.188 742.719 561.219 746.875 602.5 747.641 c 0
 621.5 748 654.438 767.016 694.141 744.172 c 0
 742.797 716.156 739.469 667.547 751.359 645.391 c 1
 752.641 643 753.438 640.547 753.797 637.906 c 0
 757.375 611.594 765.375 581.109 745.703 541.422 c 1
 740.094 532.109 731.594 534.984 723 527.906 c 0
 720.703 526 668.328 495.578 641.297 539.625 c 0
 613.125 585.531 613.359 608.719 583.5 626.578 c 0
 559.781 640.75 542.984 637.281 501.875 635.922 c 0
 476.75 635.094 469.054 643.62 455 636 c 1
EndSplineSet
EndChar
StartChar: F
Encoding: 70 70 6
Width: 600
VWidth: 1080
Flags: HW
HStem: 626.104 96.9725<94 122 255.88 289.978>
Fore
423.231 336.48 m 1
 409.217 336.857 373.954 338.294 363.703 336.499 c 1
 292.947 181.367 320.651 193.944 298 127 c 1
 313.233 128.562 369.262 126.852 383.219 93.9961 c 0
 397.109 61.2783 379.812 13.5723 334.594 9.12891 c 0
 33.6719 -0.31543 l 0
 12.9688 6.58496 10.7656 8.95215 11.9688 29.5908 c 0
 12.0781 31.71 9.67188 58.0117 29.5156 78.5195 c 0
 73.3594 123.784 120.609 114.502 137.922 120.843 c 1
 150.203 144.069 137.297 208.854 192.438 324.907 c 1
 261.938 556.747 l 0
 262.141 557.409 262.359 558.057 262.625 558.688 c 0
 277.928 596.686 288.269 620.388 294.996 634.239 c 1
 273.736 627.081 232.67 623.342 185.188 647.292 c 0
 134.703 672.756 193.047 733.26 192.203 730.789 c 1
 196.781 741.129 201.922 745.867 213.75 747.029 c 0
 276.656 753.164 338.031 749.868 413.047 758.253 c 1
 414.969 758.46 416.844 758.474 418.766 758.269 c 0
 455.547 754.429 473.844 750.09 506.891 748.986 c 0
 543.188 747.779 564.219 751.986 605.5 752.766 c 0
 636.688 753.355 654.297 752.766 683.734 752.766 c 1
 750.281 754.061 749.672 707.928 756.844 641.51 c 1
 760.328 615.487 768.406 584.462 748.703 544.242 c 1
 743.094 534.829 734.594 537.741 726 530.577 c 0
 723.703 528.648 671.328 497.891 644.297 542.434 c 0
 614.359 591.744 624.25 622.916 596.453 639.773 c 0
 573.094 653.955 554.344 643.923 506.219 639.877 c 0
 482.579 637.898 480.032 656.187 466.096 648.343 c 1
 454 618 443.146 583.291 433.766 556.231 c 1
 433.406 555.275 l 0
 409.469 495.086 400.488 470.149 397.201 464.773 c 1
 408 460.508 438.951 439.109 453.359 445.491 c 0
 466.094 451.125 444.984 497.243 491.594 528.165 c 0
 523.203 549.126 555.688 536.947 567.672 538.006 c 1
 584.984 536.771 591.656 534.078 594.734 518 c 0
 607.766 449.934 568.828 404.124 564.938 354.667 c 1
 564.719 352.093 564.109 349.665 563.047 347.298 c 0
 550 318.008 556.656 286.38 531.984 243.514 c 1
 525.906 234.613 520.078 231.525 508.859 231.215 c 0
 464.859 233.099 l 0
 453.297 234.482 447.078 237.837 442.719 248.015 c 0
 419.463 302.51 419.893 328.107 423.231 336.48 c 1
EndSplineSet
EndChar
StartChar: G
Encoding: 71 71 7
Width: 763
VWidth: 1080
Flags: HW
Fore
162.339 117.113 m 0
 124.847 150.889 111.695 182.32 96.3193 223.318 c 0
 77.2012 274.297 67.0986 311.78 73.1152 368.093 c 0
 82.0996 452.185 100.981 508.699 155.499 579.195 c 0
 205.858 644.312 255.102 674.837 330.533 709.974 c 0
 389.671 737.521 432.711 743.546 495.049 750.234 c 0
 554.939 756.661 594.63 756.507 654.591 746.398 c 0
 689.625 740.492 714.539 733.496 746.589 716.639 c 0
 780.581 698.759 793.838 680.318 816.341 662.778 c 1
 821.907 658.16 824.647 653.435 824.979 646.617 c 0
 827.701 590.731 810.332 525.318 758.871 482.847 c 1
 751.621 477.45 745.404 476.002 736.166 477.558 c 0
 686.166 488.388 l 0
 677.303 490.729 672.129 494.374 668.714 502.117 c 0
 645.523 554.709 661.074 582.803 640.29 604.426 c 1
 607.697 629.866 601.776 649.582 576.583 656.646 c 0
 543.689 665.867 524.901 660.269 485.034 646.324 c 0
 429.377 626.858 404.686 607.619 362.537 565.583 c 0
 324.116 527.265 308.18 504.858 291.908 456.804 c 0
 267.937 386.007 267.97 344.966 278.793 269.551 c 0
 285.586 222.219 288.05 198.942 315.74 166.781 c 0
 336.565 142.596 351.921 135.161 387.045 125.85 c 0
 427.424 115.147 447.104 111.238 476.997 124.462 c 0
 505.3 136.982 515.667 151.439 526.042 182.848 c 0
 536.602 214.815 537.842 231.872 521.275 254.034 c 0
 518.375 257.914 458.464 248.854 424.733 298.11 c 0
 411.58 317.317 421 332.522 421 333.438 c 1
 421.97 344.037 425.28 349.786 436.037 354.131 c 0
 506.536 382.605 560.124 358.077 618.438 361.371 c 1
 618.959 361.399 619.479 361.415 620 361.415 c 0
 680.229 361.415 701.315 360.908 775.812 361.414 c 1
 793.962 358.441 798.299 355.32 801 338.853 c 0
 801.736 334.363 824.782 298.932 794.81 268.034 c 0
 755.942 227.97 694.96 250.384 705.953 251.706 c 1
 704.704 247.384 723.148 226.931 704.617 138.165 c 1
 701.751 122.645 714.461 94.002 687.665 63.1953 c 0
 658.338 29.4795 620.046 28.6855 589.366 22.6006 c 0
 506.817 6.22754 448.089 -1.5918 362.088 17.2998 c 0
 277.639 35.8516 223.774 61.7676 162.339 117.113 c 0
EndSplineSet
EndChar
StartChar: H
Encoding: 72 72 8
Width: 798
VWidth: 1080
Flags: HW
VStem: 606 105<131.448 369.898>
Fore
266.69 627.511 m 1
 254.326 616.671 204.2 607.873 171.047 636.953 c 0
 145.984 658.922 152.875 689.922 151.75 694.234 c 1
 150.062 708.562 152.031 715.25 165.625 721.609 c 0
 212.266 743.438 271.047 724.906 324.984 739.891 c 1
 328.062 740.734 331.109 741.031 334.312 740.75 c 0
 385.391 736.25 435.062 753.344 495.969 733.906 c 1
 509.344 727.719 512.906 722.594 512.812 708.453 c 0
 512.797 707.078 527.078 674.406 499.453 648.797 c 0
 468.703 620.281 438.297 642.391 437.25 641.281 c 0
 420.344 623.359 424.391 606.141 409.875 561.844 c 0
 390.156 501.688 382.109 456.219 380.219 449.016 c 1
 454.594 430.141 513.859 438.156 621.578 438.672 c 1
 632.281 462.062 654.172 493.75 674.188 553.312 c 0
 692.062 606.578 712.641 622.156 700.312 642.578 c 0
 695.078 651.25 683.828 641.453 642.094 654.672 c 1
 629.969 659.906 625.156 665 625 677.656 c 0
 624.641 707.234 642.406 730.016 655.047 743.984 c 1
 657.516 746.688 660.312 748.688 663.75 750.156 c 0
 711.531 770.594 757.141 744.562 804.922 746.531 c 1
 805.891 746.562 806.859 746.547 807.828 746.484 c 0
 837.906 744.391 873.062 763.844 921.578 744.734 c 1
 926.344 742.797 929.922 740.078 932.797 735.969 c 0
 970.5 682.359 931.109 644.031 931.094 642.766 c 1
 926.969 638.781 919.219 636.172 913.359 636.359 c 0
 883.531 637.281 864.188 642.906 852.969 636.406 c 1
 810.359 583.875 844.812 509.031 790.031 387.062 c 1
 736.066 126.526 709.55 174.999 697.956 122.185 c 1
 712.514 124.841 749.36 123.575 767.812 100.781 c 0
 794.266 68.1094 767 33.625 766.844 32.375 c 1
 760.234 14.0625 756.75 9.09375 736.578 11.8125 c 0
 699.562 16.8125 651.156 10.4844 588.797 3.79688 c 1
 585.938 3.5 583.188 3.64062 580.375 4.25 c 0
 539.156 13.2812 500.594 -4 432.969 3.82812 c 1
 414.656 9.64062 410.531 13.2031 411.375 31.5312 c 0
 411.844 41.4844 396.562 80.3906 431.406 109.766 c 0
 479.703 150.484 534.484 120.344 538.703 120.578 c 1
 568.031 190.234 611.062 288.453 587.875 340.781 c 1
 528.766 337.078 422.281 349.609 334.141 332.328 c 1
 299.384 247.663 296.973 186.992 287.304 124.163 c 1
 300.798 128.562 340.018 131.306 359.922 106.344 c 0
 386.969 72.4219 353.078 33.0312 352.516 30.3438 c 1
 347.312 16.3125 342.531 11.3438 326.891 11.2656 c 0
 297.688 11.1406 238.453 9.25 178.391 3.75 c 1
 175.328 3.48438 172.406 3.71875 169.438 4.48438 c 0
 139.078 12.3125 109.047 -3.71875 35.3438 3.78125 c 1
 15.8281 10.1406 11.4688 13.25 13.6406 32.7344 c 0
 15.4688 49.1406 3.84375 87.125 38.7656 118.703 c 0
 71.9531 148.719 105.094 123.031 111.641 125.422 c 0
 132.828 133.141 130.438 174.656 139.75 209.875 c 0
 149.625 247.25 150.578 269.781 159.5 311.438 c 0
 169.344 357.328 173.141 385.766 188.047 433.188 c 0
 223.456 545.847 247.589 571.321 266.69 627.511 c 1
EndSplineSet
EndChar
StartChar: I
Encoding: 73 73 9
Width: 467
VWidth: 1080
Flags: HW
Fore
184.808 143.771 m 1
 196.675 166.958 178.405 171.35 221.01 259.617 c 1
 252.829 331.109 l 0
 290.188 417.201 318.49 460.975 343.896 546.11 c 0
 351.331 571.026 353.939 582.478 355.021 607.291 c 0
 355.091 608.924 359.432 632.325 357.978 633.72 c 0
 353.749 637.774 312.791 606.555 277.258 643.658 c 0
 253.084 668.899 251.646 707.352 277.857 732.836 c 0
 331.966 785.443 399.928 745.167 444.669 747.366 c 1
 446.979 747.478 449.22 747.308 451.477 746.841 c 0
 482.775 740.365 524.861 768.569 631.831 744.921 c 1
 646.004 739.864 650.694 735.258 650.963 721.25 c 0
 651.19 709.355 672.28 673.706 640.938 640.178 c 0
 610.834 607.973 571.089 622.032 568.558 621.552 c 1
 533.383 576.746 526.759 561.508 496.27 447.82 c 1
 496.053 447.012 495.79 446.22 495.48 445.438 c 0
 427.974 275.231 l 1
 398.183 160.812 387.749 164.828 379.452 133.625 c 1
 361.956 140.076 421.71 137.595 445.702 104.931 c 0
 470.072 71.75 450 37.8438 450 25.6426 c 1
 446.399 8.64355 443.119 3.41895 424.351 2.60645 c 0
 393.549 1.27148 284.552 18.752 191.737 12.793 c 1
 191.281 12.7646 190.825 12.7471 190.368 12.7412 c 0
 151.428 12.2119 97.6455 -23.8154 39.2959 15.3018 c 0
 18.6289 29.1562 7.19727 55.0273 19.2451 79.4326 c 0
 45.8691 133.363 107.61 126.023 142.514 136.122 c 0
 162.105 141.788 192.334 145.105 184.808 143.771 c 1
EndSplineSet
EndChar
StartChar: J
Encoding: 74 74 2
Width: 583
VWidth: 1000
Flags: HW
VStem: 193 99<-41.6859 513.539>
Fore
258.863 653.328 m 1
 271.467 650.008 290.646 640.406 313.891 617.536 c 0
 326.891 604.732 358.703 578.212 343.297 540.179 c 0
 319 480.156 249.062 452.959 187.469 474.438 c 0
 139.453 491.188 141.984 546.572 137.391 555.922 c 0
 127.266 576.516 122.297 588.539 113.156 608.29 c 1
 110.797 613.664 110.297 618.557 111.828 624.186 c 0
 123.359 666.405 135.125 700.462 171.719 738.166 c 1
 175.984 742.398 180.516 744.77 186.594 745.58 c 0
 222.047 750.354 247.609 761.491 293.297 759.224 c 0
 368.062 755.502 414.062 741.498 481.406 715.216 c 0
 537.359 693.394 544.328 659.397 574.047 659.353 c 0
 622.719 659.263 634.469 716.147 710.547 738.946 c 0
 733.797 745.91 769.953 765.993 809.359 742.099 c 0
 851.047 716.793 842.234 673.236 849.328 655.479 c 1
 852.797 642.978 851.797 635.998 841.297 627.878 c 0
 794.594 591.721 745.625 598.233 723.688 588.059 c 1
 694.999 541.39 673.763 512.078 670.602 499.267 c 1
 683.277 498.57 715.947 492.572 720.344 491.653 c 1
 734.141 486.954 738.281 482.167 740 468.192 c 0
 740.109 467.263 762.672 432.636 732.578 404.059 c 0
 692.75 366.206 640.484 397.875 636.797 397.92 c 1
 571.719 282.559 592.688 253.199 495.328 10.0205 c 1
 494.344 7.55859 493.016 5.35156 491.266 3.3252 c 0
 435.672 -61.2002 412.609 -108.81 345.984 -165.289 c 1
 299.844 -218.558 257 -236.313 203.344 -252.149 c 1
 203.172 -252.208 l 0
 120.078 -276.088 72.1562 -234.827 23.0156 -191.105 c 1
 19.3906 -187.817 17.0781 -184.202 15.8125 -179.577 c 0
 5.875 -143.315 8.60938 -101.2 31.0625 -68.1484 c 1
 35.75 -61.7705 40.8438 -58.4824 48.9062 -57.4326 c 0
 68.0312 -54.9414 92.0156 -39.8574 130.266 -49.373 c 0
 176.375 -60.8408 193.469 -89.748 217.781 -108.749 c 0
 245.031 -130.062 228.906 -130.513 235.781 -141.198 c 0
 244.875 -155.338 245.016 -139.924 253.5 -99.5635 c 1
 254.219 -96.2012 255.531 -93.2451 257.609 -90.4375 c 0
 278.297 -62.3711 302.016 4.75098 311.203 73.5684 c 1
 311.547 76.0752 312.25 78.416 313.359 80.6982 c 0
 348.109 151.917 365.422 194.349 403.766 265.929 c 0
 428.266 311.632 453.641 320.037 455.031 348.285 c 0
 455.703 361.942 455.281 395.924 437.375 383.001 c 0
 421.344 371.443 361.453 379.895 359.016 438.415 c 0
 357.203 482.047 407.203 491.008 426.156 493.845 c 0
 480.406 501.964 493.125 467.157 498.484 469.274 c 0
 517.906 476.944 521.406 494.055 528.375 531.923 c 0
 531.031 546.361 530.922 547.998 526.234 554.722 c 0
 518.297 566.1 512.094 568.17 489.797 573.648 c 0
 480.344 575.976 460.188 557.664 420.781 572.674 c 0
 355.703 597.453 355.125 651.322 323.484 665.431 c 0
 304.578 673.851 282.875 667.202 269.219 668.298 c 1
 267.556 667.131 263.356 659.866 258.863 653.328 c 1
EndSplineSet
EndChar
StartChar: K
Encoding: 75 75 3
Width: 778
VWidth: 1080
Flags: HW
VStem: 111 114<399.388 639.858> 111 122<640.156 648.621>
Fore
432 415 m 0
 432.703 443.138 l 1
 468.281 556.188 456.766 586.329 482.906 618.894 c 1
 558.875 639.306 l 0
 565.172 641.143 569.484 644.169 573.141 649.357 c 1
 591.688 676.97 588.984 708.271 584.766 727.197 c 0
 581.359 742.438 575.469 745.656 559.031 747.478 c 1
 491.062 745.009 370.438 761.968 277 751.078 c 0
 268.75 750.122 263.625 746.787 258.906 740.35 c 1
 242.359 715.868 230.172 680.864 229.188 651.576 c 0
 228.531 632.178 233.875 629.548 254 625.228 c 0
 326.938 625.228 l 1
 315.781 620.113 285.812 584.845 224.578 386.34 c 1
 150.922 243.37 205.75 200.769 151.828 130.598 c 1
 140.469 128.908 75.2812 153.787 33 107.232 c 0
 1.125 72.1699 25.5469 33.0801 27 24.2471 c 0
 30.1562 5.05566 34.5 2.89551 55.0312 0.912109 c 1
 153.141 12.1973 273.969 -19.5879 360.266 9.58203 c 0
 370.875 13.168 374.766 18.752 376.844 29.1709 c 1
 377.5 34.7109 398.734 63.6465 379.578 94.4326 c 0
 353.672 136.064 314.172 131.273 310.859 127.835 c 1
 296.344 164.118 341.359 184.75 367.125 283.091 c 1
 390.719 291.424 l 1
 445.688 256.654 383.203 277.316 501 134.698 c 1
 501 116.108 511.906 100.679 508.328 97.2988 c 0
 502.484 91.8174 465.547 133.86 420.156 98.8564 c 0
 386.359 72.8154 399.391 33.3154 399.484 28.8623 c 0
 399.906 7.43652 402.484 5.7168 424.656 0.75 c 1
 504.203 2.7041 653.859 13.2256 734.75 1.26465 c 0
 757 -2.02734 759.297 3.7627 765 24.2471 c 1
 765 36.1357 794.094 83.749 757.672 117.989 c 0
 732.906 141.296 693.844 131.318 687.156 126.719 c 1
 619.812 233.215 539.281 250.262 537.172 365.326 c 1
 562.188 391.72 624.109 437.406 685.203 499.01 c 1
 749.141 549.091 780.328 599.261 827 639.967 c 0
 829.812 642.406 891.094 628.182 912.484 669.489 c 0
 924.938 693.546 915.203 718.513 915 719.277 c 0
 909.875 739.278 907.328 741.085 885.5 742.407 c 1
 823.781 731.783 730.719 775.986 653.469 748.903 c 0
 643.219 745.303 639.312 739.807 637.188 729.711 c 1
 636.203 722.29 623.125 701.922 632.125 674.678 c 0
 635.438 664.654 656.562 642.759 666.781 633.163 c 1
 499.713 508.909 444.959 443.544 432 415 c 0
EndSplineSet
EndChar
StartChar: L
Encoding: 76 76 4
Width: 622
VWidth: 1080
Flags: HW
VStem: 200 129<70.8096 217.923 237.476 563.158>
Fore
20.0967 33.1328 m 0
 19.9404 41.9023 -0.418945 79.9658 33.4707 110.998 c 0
 66.2939 141.054 128.134 122.868 114.093 121.935 c 1
 133.474 215.306 97.4717 214.842 183.878 410.515 c 1
 184.054 410.902 l 0
 222.219 493.078 249.855 534.831 279.321 615.833 c 0
 284.726 630.688 287.724 647.445 288.918 651.894 c 1
 286.103 659.284 257.5 636.179 195.841 664.817 c 1
 182.762 673.301 180.448 678.535 183.328 693.132 c 0
 201.328 742.48 l 0
 206.444 753.134 211.751 757.793 224.273 758.263 c 0
 315.885 761.696 332.955 752.474 362.186 760.185 c 1
 366.678 761.329 370.866 761.398 375.371 760.298 c 0
 420.273 749.315 483.461 780.693 544.098 727.769 c 1
 550.492 721.616 552.641 716.017 551.749 707.494 c 0
 551.671 706.753 564.639 678 538.15 654.744 c 0
 505.811 626.351 455.483 643.238 463.751 643.881 c 1
 427.197 587.916 451.187 568.478 382.372 408.288 c 1
 378.38 397.982 281.086 166.396 270.906 140.902 c 1
 272.407 133.915 267.922 140.356 268.678 131.345 c 0
 271.277 100.345 317.812 115.817 371 115.817 c 0
 401.352 115.817 420.13 125.427 453.152 131.576 c 1
 497.083 150.658 478.398 183.729 572.044 264.206 c 1
 578.613 269.394 584.562 271.047 593.11 270.062 c 0
 629.11 264.476 l 0
 643.354 260.46 649.148 256.169 649.984 242.333 c 0
 654.27 171.454 631.362 90.0107 591.991 33.3408 c 1
 588.689 28.7627 584.784 25.8037 579.19 23.9922 c 0
 491.521 -4.40527 421.448 9.71582 330.836 6.89062 c 0
 221.881 3.49707 151.73 -8.77051 40.9609 8.11621 c 1
 24.8701 13.1631 20.3789 17.3252 20.0967 33.1328 c 0
EndSplineSet
EndChar
StartChar: M
Encoding: 77 77 5
Width: 954
VWidth: 1080
Flags: HW
VStem: 153 86<166.885 446.393>
Fore
324.149 622.817 m 0
 313.243 638.145 245.708 589.969 199.344 636.906 c 0
 168.375 668.234 191.344 705.953 191.016 717.188 c 1
 192.953 731.609 196.344 737.562 212.203 740.094 c 0
 299.859 754.125 335.062 731.281 369.25 737.25 c 1
 373.031 737.875 376.578 737.797 380.297 736.922 c 0
 418.516 727.969 478.016 767.625 547.188 728.844 c 1
 553.016 725.391 556.469 721.375 558.219 715.281 c 0
 592.016 597.016 557.703 534.5 566.906 437.234 c 1
 567.141 434.859 566.922 432.312 566.297 430 c 0
 553.197 381.919 551.935 297.547 545.242 277.72 c 1
 563.455 291.717 629.99 347.752 668.125 458.266 c 1
 669.219 461.359 670.844 464.031 673.219 466.469 c 0
 761.625 557.203 776.844 635.188 834.438 723.797 c 1
 837.859 728.828 841.984 731.969 848.188 733.812 c 0
 897.25 748.5 932.688 735.781 972.984 740.203 c 1
 976.125 740.531 979.141 740.359 982.203 739.656 c 0
 1004.06 734.609 1038.03 749.906 1097.14 734 c 1
 1110.56 728.672 1115.17 723.906 1114.92 710.672 c 0
 1114.66 695.891 1134.98 660.641 1103.11 626.547 c 0
 1084.7 606.842 1049.04 603.918 1038.49 605.203 c 1
 1044.57 515.424 1007.94 565.525 922.062 304.672 c 1
 904.5 244.906 885.016 216.719 879.906 162.656 c 0
 876.531 126.938 881.344 120.969 879.688 110.125 c 0
 879 105.609 918.719 134.688 947.359 103.031 c 0
 970.703 77.2344 961.719 43.5625 939.5 23.9062 c 0
 889.453 -20.3594 831.062 9.90625 792.266 6.71875 c 1
 790.484 6.57812 788.734 6.59375 786.953 6.79688 c 0
 735.391 12.5 687.375 -0.6875 625.766 18.7188 c 1
 614.547 23.3125 610.297 28.1562 609.016 39.2188 c 0
 608.625 42.625 584.922 74.5938 612.734 104.953 c 0
 652.812 148.656 712.109 124.516 715.891 125.031 c 1
 735.562 194.188 735.484 227.281 805.672 422.703 c 1
 810.468 447.529 814.702 468.449 818.44 485.992 c 1
 803.691 457.297 816.16 445.47 669.062 288.953 c 1
 668.547 288.422 l 1
 610.641 194.312 587.891 123.328 513.406 40.25 c 1
 507.891 34.5781 502.359 32.2031 494 31.9062 c 0
 446 31.9062 l 0
 432.141 33.3281 425.594 36.5312 421.844 48.6562 c 0
 387.125 161.094 411.797 202.734 403.188 279.156 c 1
 371.5 479.125 400.656 445.312 392.25 459.688 c 1
 364.922 382.609 409.453 470.375 316.078 221.578 c 1
 300.688 161.359 276.812 147.391 282.938 122.75 c 0
 283.719 119.578 324.375 143.766 354.75 112.719 c 0
 376.906 90.0469 386.562 60.7969 358.219 33.5781 c 0
 305.125 -17.4375 239.688 9 198 9 c 0
 164.031 9 95.6875 -16.5 43.75 33.6094 c 0
 8.76562 67.3594 17.7969 107.703 50.2812 137.156 c 0
 78.8193 163.046 124.297 154.366 132.609 149.914 c 1
 145.493 198.542 130.644 207.606 188.625 345.844 c 1
 188.781 346.219 188.953 346.609 189.141 347 c 0
 291.109 554.5 l 0
 304.688 582.594 314.766 592.266 319.516 613.141 c 0
 321.521 621.95 323.131 623.379 324.149 622.817 c 0
EndSplineSet
EndChar
StartChar: N
Encoding: 78 78 6
Width: 763
VWidth: 1080
Flags: HW
VStem: 134 65<126.974 642.824>
Fore
414.521 496.177 m 1
 414.527 473.059 410.886 437.92 374.047 314.973 c 1
 373.859 314.394 l 0
 355.297 257.957 337.891 232.025 329.719 181.097 c 0
 328.229 171.854 327.348 167.345 326.834 165.155 c 1
 335.477 170.783 402.801 166.772 424.234 115.547 c 0
 443.547 69.3828 399.812 37.7061 394.328 24.1533 c 1
 389.031 13.8223 383.609 9.33984 371.531 8.92383 c 0
 312.641 6.93457 261.891 11.6553 194.047 8.93848 c 1
 192.5 8.87891 190.969 8.95312 189.422 9.16113 c 0
 147.078 14.9805 92.9531 -17.1719 31.9531 11.373 c 1
 19.25 19.5078 15.5469 25.1631 19 39.3389 c 0
 23.8281 59.0664 13.8438 96.5166 50.1094 128.09 c 0
 98.3125 170.038 161.891 152.819 165.984 153.605 c 1
 184.422 235.781 191.141 293.879 241.047 447.987 c 1
 270.188 543.239 266.078 556.035 310.094 615.469 c 1
 311.601 625.475 l 1
 303.021 620.698 280.689 621.387 227.75 641.416 c 1
 214.828 648.215 211.703 653.514 212.375 667.541 c 0
 224.375 733.091 l 0
 226.938 743.036 231.078 748.395 241.312 751.631 c 0
 314.344 774.684 401.828 764.842 474.047 756.396 c 1
 479.922 755.609 484.484 753.59 488.688 749.612 c 0
 571.172 671.326 555.375 607.424 596 516.996 c 1
 596.094 516.773 l 0
 623.134 454.812 639.484 405.615 649.379 370.53 c 1
 653.759 403.103 665.63 444.629 688.078 486.848 c 1
 707.844 536.693 722.422 564.184 739.125 615.395 c 0
 747.188 640.169 758.969 642.723 753.906 642.173 c 0
 744.734 641.193 704.562 615.796 666.406 656.156 c 0
 638 686.185 655.109 722.062 654.109 732.571 c 1
 654.641 746.584 657.641 752.981 671.641 757.42 c 0
 732.859 776.836 779.453 762.749 835.453 766.029 c 1
 837.219 766.133 838.953 766.059 840.703 765.807 c 0
 879.281 760.329 913.922 770.602 954.062 765.896 c 1
 968.484 762.363 973.641 758.133 975.922 744.149 c 0
 977.469 734.635 1012.95 690.668 975.344 652.089 c 0
 944.422 620.353 906.938 644.474 904.594 644.474 c 1
 835.438 600.462 877.406 588.661 806.578 414.247 c 1
 767.359 298.703 788.094 168.999 696.188 29.5713 c 1
 690.516 21.9414 684.828 18.7207 675 18.4238 c 0
 667.625 18.2012 639.453 2.62988 607.469 22.209 c 0
 547.344 58.9766 555.078 116.927 537.734 158.891 c 0
 501.438 246.691 489.016 297.649 459.625 381.368 c 1
 436.132 432.702 422.189 469.668 414.521 496.177 c 1
EndSplineSet
EndChar
StartChar: O
Encoding: 79 79 7
Width: 754
VWidth: 1080
Flags: HW
HStem: 721.327 0<392.127 431>
Fore
418 636.068 m 9
 432.047 636.068 440.438 632.674 454 636.068 c 17
 471.266 644.357 488.406 675.834 538 681.213 c 9
 566.672 684.931 586.672 680.405 610 664.283 c 24
 649.781 636.804 663.641 607.663 676 562.71 c 24
 698.859 479.534 687.594 426.102 666 342.632 c 24
 648.922 276.621 634.797 236.385 588 184.629 c 24
 536.703 127.891 495.688 99.2783 420 77.4121 c 24
 393.906 69.873 375.422 68.0654 350 77.4121 c 24
 298.594 96.3096 286.562 132.489 246 167.7 c 17
 204 254.917 216.812 319.399 234 414.11 c 9
 252.719 455.919 256.202 482.988 282 521.328 c 24
 313.902 568.74 344.22 586.73 384 628.545 c 17
 381.189 628.749 374.009 736.561 371.295 735.841 c 1
 367.234 734.777 360.544 734.39 349.959 730.02 c 0
 279.253 700.826 225.604 683.14 169.3 623.459 c 0
 121.865 573.18 108.154 528.946 91.7822 468.854 c 0
 72.9629 399.779 74.8857 353.751 79.042 286.715 c 0
 79.0693 286.285 79.1084 285.857 79.1602 285.429 c 1
 90.8643 188.549 98.9258 134.193 169.04 73.3047 c 0
 170.541 72.001 172.164 70.9033 173.953 69.9766 c 1
 216.143 48.1562 241.069 19.9121 299.781 5.73242 c 0
 364.903 -9.99707 410.041 -4.92188 472.317 5.34668 c 0
 512.384 11.9531 539.014 21.4062 574.227 39.9736 c 0
 626.695 67.6416 662.207 89.4092 701.596 136.17 c 0
 757.254 202.246 787.259 253.744 803.599 338.435 c 0
 823.344 440.775 830.778 520.169 777.256 618.562 c 0
 744.166 679.395 692.253 694.316 648.889 724.554 c 0
 648.035 725.149 647.148 725.688 646.221 726.178 c 1
 600.333 750.36 564.93 772.712 500.787 763.149 c 1
 464.559 765.221 433.155 755.889 402.396 749.624 c 0
 384.424 745.964 413.679 640.117 418 636.068 c 9
EndSplineSet
EndChar
StartChar: P
Encoding: 80 80 8
Width: 613
VWidth: 1080
Flags: HWO
VStem: 118 118<110.599 335.378>
Fore
362.219 439.906 m 1
 369.5 433.797 418.031 450.266 469.656 441.141 c 1
 490.656 460.906 501.375 462.062 509.797 477.344 c 0
 534.656 522.453 544.953 548.469 531.984 590.75 c 0
 524.953 613.656 516.016 624.172 493.75 631.5 c 0
 474.344 637.875 463.047 636.172 444.891 623.516 c 0
 413.359 601.531 420.391 571.25 393.828 520.875 c 1
 384.359 478 359.953 447.859 362.219 439.906 c 1
260.097 119 m 0
 265.831 117.812 329.516 150.531 364.656 113.516 c 0
 396.469 80 365.594 37.5469 364.906 30.0156 c 1
 360.594 14.2812 356.578 8.67188 339.312 8.51562 c 0
 279.609 7.96875 264.172 -0.984375 205.781 4.04688 c 0
 145.5 9.25 98.0469 -8.10938 38.0625 19.3438 c 1
 28.375 24.6406 24.4062 29.9531 24 40.4844 c 0
 23.5625 51.9688 1.03125 85.4688 29.0312 120.453 c 0
 51.7188 148.828 97.8438 144.031 91.1562 142.219 c 1
 142.656 229.391 120.859 250.594 197.234 438.172 c 1
 267.846 676.727 251.679 607.614 269.288 644.688 c 1
 265.736 643.25 261.711 641.864 257.25 640.594 c 0
 243.516 636.688 207.281 619.234 178.328 646.469 c 0
 154.312 669.047 164.891 698.125 174.078 713.906 c 0
 191.188 743.281 221.938 746.062 229.547 750.625 c 1
 232.078 752.141 234.719 753.172 237.656 753.781 c 0
 293.094 765.203 335.844 752.891 397.594 756.172 c 1
 398.547 756.219 399.516 756.219 400.469 756.172 c 0
 460.156 752.859 507.25 770.5 577.875 745.266 c 0
 638.969 723.438 695.25 700.625 724.125 634.391 c 0
 748.672 578.094 725.125 534.156 707.375 490.172 c 0
 687.297 440.406 664.359 409.219 622.766 373.844 c 0
 595.75 350.875 572.828 347.484 551.969 336.797 c 1
 551.141 336.391 l 0
 453.766 290.766 378.453 328.625 341.641 319.625 c 1
 335.188 287.375 337.828 270.109 315.828 205.484 c 1
 302.527 165.649 251.507 147.389 260.097 119 c 0
EndSplineSet
EndChar
StartChar: Q
Encoding: 81 81 9
Width: 771
VWidth: 1080
Flags: HW
Fore
450.04 413.654 m 1
 442.631 415.626 432.862 421.01 424.938 429.883 c 0
 401.031 456.646 400.312 497.689 428.828 523.31 c 0
 462.812 553.813 510.656 546.837 541.859 522.508 c 0
 578.625 493.845 571.281 453.589 568.922 426.217 c 0
 565.797 390.058 554.891 361.275 528.891 332.79 c 0
 494.578 295.191 459.094 270.892 403.219 263.989 c 0
 332.797 255.291 281.562 273.994 226 309.664 c 0
 187.672 334.274 154.5 361.706 145.359 412.769 c 0
 133.75 477.517 167.062 518.411 194.328 563.477 c 0
 225.016 614.213 253.078 644.939 303.422 679.243 c 0
 338.859 703.395 367.891 713.666 408.688 722.098 c 0
 528.109 746.812 616.547 771.305 740.484 728.836 c 0
 792.828 710.905 836.016 685.27 857.453 630.185 c 0
 894.719 534.383 860.422 461.219 820.75 378.405 c 0
 794.109 322.756 757.844 301.084 719.625 264.999 c 0
 662.375 210.953 625.047 182.586 560.891 137.372 c 0
 522.257 110.143 497.574 96.8906 458.452 74.2939 c 1
 491.406 57.8838 l 0
 564.703 22.1699 602.219 -3.49512 671.891 -39.2539 c 0
 754.062 -81.4541 787.891 -119.054 867.406 -135.768 c 0
 918.625 -146.529 949.031 -131.879 1009.14 -129.593 c 1
 1049.53 -122.274 1073.19 -92.6016 1121.31 -70.9746 c 1
 1130.64 -67.4121 1140.5 -80.7715 1145.88 -72.6963 c 0
 1151.2 -64.666 1189.89 -73.7061 1192.94 -113.531 c 0
 1199.05 -193.703 1110.88 -219.694 1057.22 -239.926 c 0
 954.75 -278.564 879.812 -262.727 779.906 -246.977 c 0
 703.531 -234.953 658.312 -215.508 592.172 -181.783 c 0
 502 -135.782 460.625 -93.626 384.578 -37.0566 c 0
 358.328 -17.5225 352.625 -5.30566 334.812 3.15527 c 0
 312.672 13.6797 305.328 15.7275 284.109 12.373 c 0
 253.094 7.45996 240.703 -29.2783 183.5 -41.5244 c 0
 150.031 -48.6797 112.891 -56.2051 74.4375 -32.6035 c 0
 35.9688 -8.9873 8.35938 26.46 15.2188 75.9492 c 0
 22.2188 126.507 60.8125 154.027 103.688 168.396 c 0
 160.469 187.426 198.734 160.514 236.984 153.121 c 0
 280.844 144.646 295.047 130.024 321.234 130.781 c 0
 329.797 131.034 331.641 132.771 347.188 139.852 c 0
 439.062 181.755 487.781 206.648 561.062 270.803 c 0
 624.359 326.244 661.297 354.344 686.328 424.376 c 0
 707.344 483.188 711.438 519.035 687.047 572.621 c 0
 671.797 606.152 654.672 619.913 616.328 635.202 c 0
 567.641 654.603 537.422 652.852 482.047 639.744 c 0
 451.5 632.53 439.562 620.121 406.859 597.157 c 0
 371.516 572.309 353.797 563.967 335.297 535.393 c 0
 316.453 506.328 312.625 490.119 310.984 453.737 c 0
 309.547 421.883 308.797 409.369 322.594 390.31 c 0
 331.078 378.583 336.656 376.06 356.141 371.369 c 0
 393.141 362.463 410.328 359.539 431.812 373.61 c 0
 443.717 381.398 445.67 390.052 450.04 413.654 c 1
195.775 63.6016 m 1
 169.561 91.4775 174.017 88.1924 164.134 91.2725 c 0
 144 97.5469 112.648 94.3223 112.085 73.8887 c 24
 111.479 51.9229 142.935 50.3926 166.929 52.4463 c 0
 175.059 53.126 186.427 59.4219 195.775 63.6016 c 1
EndSplineSet
EndChar
StartChar: R
Encoding: 82 82 10
Width: 667
VWidth: 1080
Flags: HW
Fore
379.953 405.673 m 1
 370.375 399.453 405.422 416.984 447.406 424.45 c 0
 490.719 432.14 513 439.22 535.953 468.492 c 0
 573.234 516.007 579.938 554.081 567.453 615.074 c 0
 562.578 638.913 556.094 649.823 535 662.01 c 0
 521.5 669.817 516.125 670.768 503.172 665.914 c 0
 473.547 654.811 467.047 635.573 443.75 596.504 c 0
 420.906 558.178 420.578 531.578 403.828 481.332 c 1
 381.453 452.238 394.874 428.28 379.953 405.673 c 1
293.796 143.299 m 1
 303.153 145.876 340.389 144.078 360.578 116.294 c 0
 388.141 78.3389 360.125 41.7344 358.922 26.875 c 1
 357.094 15.9355 353.312 10.1914 342.391 6.33203 c 0
 290.5 -12.0156 237.797 19.3789 177.875 5.61914 c 1
 174.578 4.87695 171.406 4.74316 168.062 5.24805 c 0
 127.391 11.3936 89.7812 0.0976562 48.7812 5.14453 c 1
 33.3438 9.31543 28.5469 13.5312 27 28.7012 c 0
 26.1875 36.6279 1.14062 74.9248 33.375 109.14 c 0
 71 149.069 123.547 124.755 127.109 125.126 c 1
 178.719 204.674 151.531 243.282 226.203 406.771 c 1
 241.109 465.404 245.078 506.062 268.281 572.027 c 0
 281.562 609.774 297.609 618.221 299.078 636.598 c 0
 300.297 652.005 299.219 651.634 297.609 652.97 c 0
 285.016 663.36 240.641 625.034 195.078 664.815 c 0
 168.625 687.912 178.703 718.505 177.5 724.102 c 1
 176.109 732.711 177.562 738.767 183.812 745.135 c 0
 224.172 786.355 331.281 750.449 422.469 762.813 c 1
 424.594 763.096 426.688 763.125 428.828 762.902 c 0
 492.688 756 538.656 766.242 610.172 742.745 c 0
 647.75 730.395 690.375 721.607 717.609 677.136 c 0
 754.891 616.262 750.578 558.029 725.266 496.902 c 0
 702.391 441.684 660.344 422.714 620.75 395.223 c 0
 592.641 375.719 574.344 374.887 558.062 364.363 c 0
 528.719 345.393 522.047 346.031 520.422 338.995 c 0
 515.359 317.189 536.562 310.984 558.391 269.155 c 0
 588.547 211.398 585.922 178.994 622.781 153.3 c 0
 624.203 152.32 663.828 172.686 689 135.636 c 0
 715.172 97.1455 694.766 55.4648 666.906 31.165 c 0
 634.656 3.00684 592.922 0.275391 556.062 15.4609 c 0
 491.469 42.0605 480.203 97.0117 459.188 141.528 c 0
 431.641 199.895 380.094 235.044 385.656 321.628 c 0
 386.219 330.415 387.625 319.98 368.031 315.349 c 0
 351.859 311.534 340.109 287.725 326.141 275.79 c 1
 317.686 172.741 290.712 171.972 293.796 143.299 c 1
EndSplineSet
EndChar
StartChar: S
Encoding: 83 83 11
Width: 449
VWidth: 1080
Flags: HW
Fore
95.6094 352.609 m 0
 134.625 371 172.172 350 191.812 323.25 c 0
 234.453 265.141 181.062 216.781 192.891 186.047 c 0
 206.828 149.766 219.656 132.25 253.359 118.484 c 0
 266.984 112.938 273.859 115.281 299.312 122.203 c 0
 322.375 128.484 326.312 129.141 330.016 135.391 c 0
 357.062 181.062 346.484 218.219 322.719 277.781 c 0
 298.766 337.812 232.016 335.578 186.438 433.625 c 1
 186.203 434.141 185.984 434.641 185.781 435.156 c 0
 173.203 468.25 152.641 491.047 147.391 538.203 c 0
 143.609 572.203 143.25 602.562 162.453 637.438 c 0
 192.688 692.359 228.859 729.484 293.203 750.844 c 0
 353.016 770.688 404.281 765.703 459.734 739.812 c 0
 514.547 714.203 525.422 672.391 552.859 643.141 c 1
 557.406 638.047 559.453 633.031 559.188 626.359 c 0
 556.938 570.688 543.859 515.938 521.547 479.922 c 1
 514.562 470.578 508.5 467.812 496.469 468.453 c 0
 456.562 473.875 l 0
 443.312 477.109 437.406 481.312 435.328 494.156 c 0
 422.625 573.234 444.016 575.344 433.516 597.359 c 1
 417.406 612.656 411.438 627.125 398.359 632.844 c 0
 374.25 643.375 363.594 645.484 344.266 637.891 c 0
 312.922 625.562 298.719 610.094 290.594 578.406 c 0
 283.844 552.078 293.234 537.781 311.531 502.453 c 0
 346.531 434.891 427.094 420.062 462.75 324.844 c 0
 486.719 260.859 483.922 210 463.031 147.266 c 0
 445.344 94.1094 424.875 47.2656 365.219 17.8281 c 0
 305.891 -11.4375 250.984 -5.65625 193.953 17 c 0
 142.906 37.2812 142.078 76.0312 123.688 84.1719 c 0
 120.094 85.7656 77.6094 59.2969 44.2188 95.4375 c 1
 40.9688 99.0156 39.0625 102.797 38.2969 107.469 c 0
 31.4375 149.156 48.3281 182.219 43.8906 216.516 c 1
 43.5 219.531 43.7031 222.406 44.5 225.344 c 0
 55.8906 267.312 61.375 306.469 85.375 343.719 c 1
 88 347.688 91.2031 350.516 95.6094 352.609 c 0
EndSplineSet
EndChar
StartChar: T
Encoding: 84 84 12
Width: 660
VWidth: 1080
Flags: HW
VStem: 333.418 140.6<129.721 590.725> 333.418 156.75<122.565 129.721>
Fore
275.497 129.727 m 1
 294.354 202.673 289.132 209.091 378.953 443.281 c 1
 379.25 444.017 l 0
 402.766 499.343 422.594 524.13 435.125 574.779 c 0
 439.031 590.608 439.625 633.373 438.609 620.957 c 1
 431.203 622.617 412.312 646.464 330.375 618.014 c 0
 296.734 606.334 285.625 589.74 256.5 556.303 c 0
 234.156 530.648 223.859 523.116 222.188 503.196 c 0
 220.984 488.87 222.688 485.661 229.391 480.926 c 0
 231.297 479.572 279.438 511.538 309.219 469.878 c 0
 337.016 430.969 307.406 391.545 281.562 371.493 c 0
 245.875 343.822 198.734 335.557 156.297 358.533 c 0
 108.609 384.365 107.719 430.277 103.109 464.523 c 0
 98.1562 501.462 105.578 528.676 118.938 560.26 c 0
 138.891 607.393 160.891 636.122 198.953 670.502 c 0
 229.922 698.468 256.312 716.869 300.062 729.651 c 0
 372.109 750.718 418.391 736.567 481.719 737.861 c 0
 552.344 739.316 588.516 728.977 649.547 737.611 c 0
 659.875 739.068 687.172 774.814 736 757.882 c 0
 771.906 745.452 799.969 712.765 791.828 672.385 c 0
 782.797 627.62 736.609 618.896 712.297 611.453 c 0
 639.203 589.078 596.391 610.306 577.391 610.306 c 1
 561.891 581.619 573.672 531.089 530.609 420.463 c 1
 508.828 356.886 497.625 319.389 473.594 254.059 c 0
 450.391 190.964 422.391 166.735 417.891 114.954 c 0
 417.74 113.225 417.635 111.749 417.561 110.499 c 1
 427.376 117.505 461.04 129.361 484.781 101.053 c 0
 512.547 67.9541 478.844 29.1328 478.312 26.5449 c 1
 473.984 13.8037 469.234 8.61133 455.078 7.50977 c 0
 413.75 4.28809 376.141 11.0693 330.406 7.55078 c 1
 328.266 7.39062 326.172 7.47852 324.062 7.83105 c 0
 294.609 12.6709 259.953 -1.62793 196.969 15.5547 c 1
 185.484 19.7773 180.797 24.5859 179.016 36.0605 c 0
 177.875 43.417 141.078 87.1816 179.328 124.311 c 0
 212.462 156.496 265.967 137.165 275.497 129.727 c 1
EndSplineSet
EndChar
StartChar: U
Encoding: 85 85 13
Width: 756
VWidth: 1080
Flags: HW
Fore
695.729 610.845 m 0
 695.271 611.09 690.967 619.156 678.672 627.156 c 0
 670.75 632.312 630.031 612.188 598.953 650.234 c 0
 579.438 674.125 571.781 713.812 601.766 740.031 c 1
 605.328 743.094 609.125 744.969 613.828 745.859 c 0
 685.375 759.422 700.75 737.094 732.406 737.281 c 1
 760.797 737.75 785.688 755.781 833.906 747.766 c 0
 849.516 745.172 881.719 742.891 897.484 713.484 c 0
 915.094 680.625 905.078 646.312 882.562 622.031 c 0
 858.912 596.536 826.553 602.262 826.782 606.466 c 1
 787.063 532.657 798.994 484.59 744.406 363.328 c 1
 711.062 283.75 698.922 226.531 638.5 152.109 c 0
 595.812 99.5469 558.297 73.9375 500.297 41.4688 c 0
 460.047 18.9375 428.297 0.65625 375.547 -3.26562 c 0
 315.578 -7.70312 271.969 1.75 219.359 28.3281 c 0
 167.203 54.6875 123.844 80.75 99.5156 139.938 c 0
 68.0938 216.391 97.2188 271.141 109.594 336.859 c 0
 127.219 430.531 154.172 479.828 182.562 565.438 c 0
 199.219 615.703 211.562 619.188 212.672 630.484 c 0
 212.906 632.969 169.125 614.484 142.531 648.953 c 0
 123.516 673.609 116.328 712.531 145.156 739.484 c 1
 146.578 740.812 148.125 741.938 149.812 742.922 c 0
 208.625 776.5 251.141 743.391 281.453 744.484 c 1
 282.906 744.5 l 0
 329.281 743.625 296.5 760.141 454.203 755.328 c 1
 461.828 754.859 467.281 752.594 472.312 747.125 c 0
 506.344 710.047 483.609 661.562 452.016 637.312 c 0
 426.424 617.647 397.229 628.163 403.735 635.215 c 1
 344.572 588.422 348.488 536.268 307.688 438 c 1
 282.969 373.125 270.688 338.234 263.578 270.75 c 0
 258.125 219.062 247.359 196.094 265.953 166.016 c 0
 289.641 127.703 317.984 113.094 367.25 107.156 c 0
 405.891 102.5 426.094 113.719 466.688 137.984 c 0
 512.391 165.328 530.516 186.656 559.156 232.828 c 0
 598.438 296.141 595.062 342.953 623.297 420.922 c 1
 656.574 536.072 675.415 550.545 695.729 610.845 c 0
EndSplineSet
EndChar
StartChar: V
Encoding: 86 86 14
Width: 603
VWidth: 1080
Flags: HW
Fore
584.333 645.571 m 1
 574.162 643.465 555.08 644.296 543.469 660.001 c 0
 520.766 690.714 544.641 722.441 545.156 726.806 c 1
 547.031 736.651 550.781 742.147 560.594 745.997 c 0
 618.219 768.599 652.328 752.875 693.5 755.197 c 1
 695.234 755.3 696.953 755.227 698.688 754.991 c 0
 729.969 750.611 762.859 765.866 815.5 752.552 c 1
 827.656 748.201 832.344 743.411 833.953 731.272 c 0
 834.891 724.233 862.766 688.083 832.406 652.947 c 0
 797.719 612.814 747.547 635.004 742.375 634.284 c 1
 715.203 610.375 664.438 553.93 563.547 448.873 c 1
 563.109 448.417 l 0
 471.031 357.38 414.906 311.575 330.016 217.994 c 0
 285.516 168.942 265.766 136.48 220.547 83.165 c 0
 203.391 62.959 196.203 19.9014 144.484 2.35645 c 0
 124.469 -4.43359 -4.15625 -25.1973 14.7188 47.0146 c 0
 45.5469 164.887 71 180.434 99.3594 257.849 c 0
 128.984 338.702 136.766 388.887 170.625 472.958 c 0
 193.906 530.77 220.828 552.27 231.562 599.338 c 0
 239.359 633.563 241.219 638.957 237.656 646.158 c 0
 237.25 646.951 196.578 618.707 161.516 650.963 c 0
 132.109 678.031 148.781 715.622 148.125 721.868 c 1
 148.969 737.165 151.891 743.441 167.703 747.188 c 0
 224.266 760.59 270.156 745.101 316.766 756.388 c 1
 319.594 757.049 322.359 757.27 325.266 757.019 c 0
 385.703 751.86 428.812 767.525 496.797 746.541 c 1
 508.766 741.53 512.859 737.416 514 725.146 c 0
 514.188 723.029 536.922 688.26 507.297 658.34 c 0
 478.029 628.777 438.062 639.048 431.973 643.669 c 1
 412.385 595.202 413.157 586.137 360.062 466.831 c 1
 359.75 466.17 l 0
 336.692 418.552 317.84 385.774 299.901 349.461 c 1
 322.58 378.765 348.08 408.717 389.688 443.979 c 1
 460.578 512.092 506.344 561.277 575.859 622.821 c 0
 585.06 630.962 584.151 640.175 584.333 645.571 c 1
EndSplineSet
EndChar
StartChar: W
Encoding: 87 87 15
Width: 940
VWidth: 1080
Flags: HW
Fore
579.696 642.796 m 1
 566.118 641.219 547.396 645.711 536.219 661.255 c 0
 510 697.742 549.391 731.597 551.047 736.761 c 1
 553.625 743.817 557.484 748.24 564.781 751.31 c 0
 617.109 773.394 652.781 755.078 715.844 760.504 c 0
 773.891 765.509 750.641 759.456 835.422 764.477 c 1
 853.672 762.381 860.344 759.559 862.953 742.609 c 0
 866.125 722.067 905.875 676.923 867.609 631.838 c 0
 829.906 587.407 792.125 619.429 782.938 612.955 c 1
 724.203 539.441 719.016 466.686 647.219 348.771 c 1
 628.203 311.222 548.25 223.74 584 254 c 0
 627.594 290.895 613.328 284.408 650.281 315.354 c 0
 739.953 390.437 783.297 438.214 861.859 525.3 c 0
 883.156 548.912 892.75 564.509 915.203 591.598 c 0
 916.708 593.396 l 1
 912.766 597.868 l 0
 878.703 634.747 895.359 682.918 901.234 722.125 c 1
 903.531 732.105 907.562 737.387 917.859 740.907 c 0
 945.234 750.232 966.25 752.399 1018.52 753.347 c 1
 1019.89 753.361 1021.25 753.288 1022.61 753.099 c 0
 1054.3 748.808 1084.66 757.318 1118.3 753.143 c 1
 1123.36 752.459 1127.5 750.785 1131.38 747.658 c 0
 1197.53 694.368 1158.64 641.192 1126.47 611.922 c 1
 1121.95 607.964 1117.25 605.972 1111.08 605.39 c 0
 1048.73 600.544 l 1
 1003.56 555.257 1017.72 537.914 918.344 424.83 c 1
 917.938 424.35 917.5 423.898 917.047 423.447 c 0
 774.875 285.485 l 0
 704.547 219.785 661.25 191.823 600.141 128.494 c 1
 560.953 82.041 530.906 56.7412 519.859 33.5078 c 1
 517.375 28.5039 514.016 25.0117 508.812 22.4072 c 0
 478.609 7.24805 408.734 -29.9385 368.703 21.8828 c 1
 365.312 26.4365 363.766 30.9326 364.016 36.4766 c 0
 367.516 114.077 431.266 163.847 448.781 227.466 c 1
 449.047 228.441 449.391 229.401 449.781 230.332 c 0
 497.625 341.686 l 1
 515.245 387.37 525.876 412.171 532.682 426.538 c 1
 513.088 404.443 491.04 379.18 457.109 336.361 c 1
 456.438 335.531 l 1
 299.438 154.9 l 0
 298.547 153.881 297.578 152.936 296.516 152.077 c 0
 249.344 113.438 242.125 103.994 191.797 33.7256 c 1
 189.375 30.3945 186.469 27.9209 182.656 26.0439 c 0
 137.234 3.75684 71.5312 -19.957 28.5469 36.9844 c 1
 25.5 41.1309 24.0156 45.292 24 50.3105 c 0
 23.7031 144.729 72.6406 197.541 94.7812 277.76 c 1
 95 278.531 95.25 279.288 95.5469 280.029 c 0
 133.578 375.933 162 425.703 190.953 520.428 c 0
 204.688 565.323 219.781 580.978 212.656 609.303 c 0
 209.859 620.433 208.203 629.292 199.156 626.731 c 0
 196.562 626.004 169.25 596.72 133.062 624.622 c 0
 101.375 649.035 99.1562 691.53 123.328 720.219 c 1
 124.766 721.923 126.391 723.391 128.266 724.671 c 0
 187.766 765.057 247.156 746.305 296.266 751.338 c 1
 298.203 751.542 300.109 751.527 302.031 751.31 c 0
 350.906 745.751 413.328 768.563 475.219 728.73 c 1
 477.266 727.406 479.031 725.879 480.594 724.046 c 0
 504.172 696.375 493.438 662.551 473.641 641.935 c 0
 448.109 615.341 415.875 625.51 406.422 623.545 c 1
 403.516 622.949 400.688 622.833 397.734 623.196 c 0
 367.938 626.833 344.594 455.147 315.641 416.101 c 1
 294.047 354.415 286.094 348.188 266 276 c 0
 257.734 246.307 340.875 390.451 388.641 438.606 c 0
 462.094 512.658 519.547 540.635 566.266 625.771 c 0
 567.156 627.389 573.298 635.277 579.696 642.796 c 1
EndSplineSet
EndChar
StartChar: X
Encoding: 88 88 16
Width: 759
VWidth: 1080
Flags: HW
VStem: 506 280<49.3639 56.7381>
Fore
533.84 661.143 m 1
 532.971 656.262 545.11 522.953 564.719 510.177 c 1
 620.5 553.183 521.703 482.623 684.125 618.975 c 1
 725.137 662.046 l 1
 708.178 664.229 691.642 669.438 683.656 679.74 c 0
 659 711.57 692.578 733.463 692.344 732.872 c 1
 694.391 738.059 697.453 741.788 702.484 744.784 c 0
 745.375 770.306 793.375 749.249 847.484 750.286 c 1
 849.328 750.314 851.141 750.17 852.969 749.825 c 0
 902.953 740.491 949.328 752.706 996.703 744.337 c 1
 1011 739.96 1015.17 735.495 1017 721.711 c 0
 1017.14 720.616 1037.39 691.32 1009.67 665.784 c 0
 973.625 632.557 929.375 659.029 914 659.029 c 1
 907.672 659.144 902.703 660.744 897.844 664.488 c 0
 887.922 672.136 746.109 510.622 738.703 504.529 c 1
 683.531 458.527 643.203 451.656 618.312 406.216 c 0
 611.141 393.123 612.547 386.671 614.891 363.438 c 0
 623.062 282.755 649.281 241.807 680.609 158.688 c 0
 694.016 123.127 709.594 112.986 699.984 103.856 c 0
 687.969 92.4199 720.688 124.639 741.953 98.6416 c 0
 764.984 70.4854 742.547 41.5205 726.359 28.6162 c 0
 674.422 -12.7783 620.531 11.707 579.328 6.60742 c 1
 577.547 6.39062 575.797 6.34961 574.016 6.47754 c 0
 544.141 8.68164 522.078 -3.86328 446.281 6.66504 c 1
 432.812 10.0215 428.266 14.3711 425.156 26.9014 c 0
 419.156 76.6777 l 0
 419.047 88.8047 421.766 95.1426 433.703 100.227 c 0
 495.44 126.488 534.379 129.416 556.332 123.669 c 1
 514.367 206.368 547.23 178.149 492.797 251.472 c 1
 488.031 253.833 469 256.095 467.297 255.476 c 1
 316.887 85.2451 355.983 159.78 313.641 115.221 c 1
 330.298 110.47 353.158 101.425 359.812 90.4912 c 0
 379.609 57.9395 351.359 28.4287 350.406 24.4531 c 1
 347.453 15.1494 343.109 10.1934 333.062 7.3418 c 0
 288.656 -5.24512 252.203 7.94727 213.047 6.4209 c 1
 212.125 6.39062 211.188 6.40527 210.25 6.46289 c 0
 154.391 10.0781 108.531 2.08496 61.7344 -0.911133 c 1
 43.6719 0.976562 38.5 3.85742 35.0781 20.3047 c 0
 32.9688 30.4443 1.01562 70.2969 34.5781 108.48 c 0
 70.6406 149.528 128.188 126.339 130.5 126.627 c 1
 170.812 174.761 200.922 195.676 302.562 272.83 c 1
 363.531 336.65 406.859 357.809 448.031 387.722 c 1
 450.156 390.286 447.641 399.879 447.109 425.56 c 1
 390.794 526.331 400.572 512.087 361.248 654.702 c 1
 351.193 648.611 299.57 635.484 271.281 664.964 c 0
 244.156 693.207 271 726.781 271.188 728.192 c 1
 272.312 734.975 275.078 739.728 281.031 743.849 c 0
 338.859 783.96 399.641 752.85 451.422 753.973 c 1
 452.234 753.986 453.031 753.959 453.844 753.915 c 0
 499.5 750.805 570.891 782.577 619.953 735.896 c 1
 627.281 727.745 628.766 721.652 625.312 711.542 c 0
 624.578 709.381 627.328 689.06 605.469 673.188 c 0
 577.311 652.757 487.702 655.438 533.84 661.143 c 1
533.84 661.143 m 2
 533.984 661.16 l 1
 533.919 661.327 533.871 661.319 533.84 661.143 c 2
EndSplineSet
EndChar
StartChar: Y
Encoding: 89 89 17
Width: 595
VWidth: 1080
Flags: HW
Fore
482.757 583.164 m 5
 501.257 600.44 526.584 621.03 560.891 645.688 c 5
 680.109 747.43 l 4
 682.953 749.845 686.047 751.503 689.734 752.551 c 4
 750.812 769.832 814.453 786.518 887.641 761.438 c 5
 897.922 757.061 902 752.114 903.891 741.742 c 4
 913.891 641.194 l 4
 914.344 635.594 913.203 630.968 909.906 626.284 c 4
 878.781 581.916 832.812 562.189 766.734 589.887 c 5
 765.844 590.266 764.984 590.688 764.141 591.153 c 4
 729.391 610.558 728.906 622.385 719.594 621.483 c 4
 662.641 615.956 649.781 570.308 598.484 510.883 c 4
 538.75 441.669 523.5 391.497 473.172 311.678 c 5
 379.388 123.54 390.113 180.197 373.622 117.727 c 5
 389.395 114.381 416.257 106.068 423.984 94.959 c 4
 443.344 67.1455 421.688 35.7236 421.797 36.4658 c 5
 418.484 23.9707 414.125 18.4277 400.469 16.4209 c 4
 325.297 5.39355 309.578 6.12109 253.516 5.03027 c 4
 195.734 3.9248 167.703 7.82324 107.734 10.6445 c 5
 97.1094 11.8242 91.2031 15.082 86.3906 23.9707 c 4
 79.3438 36.9316 70.9062 58.6064 79.0938 83.5244 c 5
 81.4688 90.042 85.0625 94.3047 91.6406 97.4463 c 4
 142.375 121.769 171.922 100.051 178.516 107.033 c 5
 227.438 187.492 237.797 255.775 272.625 376.179 c 5
 307.219 541.417 299.094 527.481 301.016 564.838 c 5
 310.312 562.859 264.234 575.791 264.188 575.776 c 4
 257.172 573.827 259.719 558.423 227.844 536.515 c 4
 219.016 530.463 198.078 502.519 159.766 510.142 c 4
 121.562 517.749 112.25 556.183 109.656 559.135 c 5
 102.297 569.608 100.844 576.389 108.25 586.847 c 4
 187.75 699.221 190.562 675.495 204.781 693.693 c 5
 205.219 694.261 205.688 694.8 206.188 695.338 c 4
 248.188 740.025 l 4
 250.391 742.338 252.859 744.143 255.844 745.524 c 4
 271.641 752.87 391.281 784.597 463.797 723.312 c 5
 468.641 719.021 471.219 714.539 471.875 708.357 c 4
 477.493 655.4 480.949 614.552 482.757 583.164 c 5
EndSplineSet
EndChar
StartChar: Z
Encoding: 90 90 18
Width: 667
VWidth: 1080
Flags: HWO
HStem: 59.3154 53.2921<265 572> 659.981 30.7107<105 532>
Fore
649.906 270.265 m 4
 679.906 264.845 l 4
 696.125 259.214 701.688 255.021 699.734 239.412 c 4
 691.766 175.831 675 141.438 650.359 82.9229 c 5
 650.156 82.4287 l 5
 628.156 33.6533 l 4
 624.906 27.1045 620.641 23.1807 613.141 20.8252 c 4
 521.516 -7.9248 443.656 14.6006 345.109 7.03516 c 5
 343.453 6.90918 341.797 6.92188 340.125 7.10547 c 4
 249.375 16.5615 235.297 4.55078 53.1875 3.33789 c 5
 35.0312 6.31543 31.4219 9.54688 28 25.9189 c 4
 28 114.438 l 4
 28.1406 120.311 29.9062 124.881 34.1875 129.313 c 4
 122.234 220.374 176.328 263.066 239.625 357.372 c 5
 240.234 358.303 240.922 359.164 241.672 359.996 c 4
 370.828 502.091 377.016 512.011 481.938 609.549 c 5
 486 627.938 498.438 644.424 493.516 645.045 c 4
 490.922 645.384 478.328 651.805 479.672 650.831 c 5
 435 645.638 430.328 657.677 340.359 646.652 c 5
 339.641 646.568 338.906 646.512 338.172 646.484 c 4
 324.031 645.877 303.031 656.675 269.828 589.396 c 5
 269.094 587.886 268.188 586.488 267.109 585.161 c 4
 255.797 571.33 274.781 586.911 239.969 513.791 c 5
 238.016 509.811 235.344 506.762 231.406 504.249 c 4
 200.141 484.293 139.469 467.583 106.578 509.697 c 5
 102.859 514.68 101.391 519.437 102.172 525.406 c 4
 110.688 590.481 131.906 604.694 145.625 637.311 c 5
 145.891 637.903 l 4
 163.188 675.826 176.141 696.037 194.375 731.038 c 5
 197.516 736.683 201.531 740.24 208.047 742.513 c 4
 288.359 770.498 353.609 750.557 432.906 756.568 c 5
 434.438 756.695 435.953 756.682 437.469 756.541 c 4
 525.906 748.595 603.75 776.935 705.031 754.183 c 5
 716.516 750.613 721.875 746.252 723.75 735.412 c 4
 732.312 686.129 727.672 661.74 709.641 626.951 c 5
 708.344 624.468 706.672 622.322 704.5 620.389 c 4
 575.812 506.452 548.438 460.78 457.484 348.974 c 5
 394.062 263.037 340.766 229.66 304.797 143.624 c 4
 304.219 142.27 304.266 107.691 304.766 119.956 c 5
 341.359 112.983 304.547 110.798 485.625 115.213 c 5
 542.297 136.808 528.156 216.068 632.984 267.921 c 5
 638.562 270.561 643.719 271.266 649.906 270.265 c 4
EndSplineSet
EndChar
StartChar: bracketright
Encoding: 93 93 21
Width: 332
Flags: HW
Fore
319.221 301.261 m 2
 212.371 27.5918 l 0
 209.207 20.3477 204.955 16.0508 197.173 13.4297 c 0
 143.959 -4.49805 158.812 3.44629 110.755 8.44238 c 0
 103.664 9.18066 58.3828 -25.2344 20.1045 6.57617 c 0
 -1.37695 24.4287 5.02539 51.8701 19.2588 68.1348 c 0
 50.7178 104.082 83.9336 87.208 94.6484 96.3086 c 0
 150.259 143.534 135.202 175.726 177.244 259.793 c 0
 199.384 304.065 208.152 329.207 228.52 375.595 c 0
 254.464 434.683 266.113 469.4 295.879 530.348 c 0
 350.103 641.374 359.754 671.197 302.396 672.615 c 0
 282.401 673.108 261.137 652.856 244.132 682.977 c 0
 233.04 702.622 244.891 720.71 257.242 729.957 c 0
 301.139 762.818 347.225 729.465 368.337 743.497 c 0
 374.439 747.553 530.917 751.602 461.679 683.916 c 1
 412.334 564.887 386.561 477.023 319.221 301.261 c 2
EndSplineSet
EndChar
StartChar: asciicircum
Encoding: 94 94 22
Width: 346
VWidth: 1080
Flags: HW
Fore
255.903 543.596 m 1
 252.113 527.95 246.307 503.521 243.271 483.432 c 0
 236.05 435.812 77.5771 446.373 96.5576 497.267 c 0
 121.081 563.035 138.396 598.402 193.182 704.644 c 1
 195.564 709.1 198.625 712.202 203.151 714.472 c 0
 238.604 732.269 276.592 752.998 320.575 727.545 c 1
 323.593 725.768 325.99 723.567 327.95 720.663 c 0
 369.508 659.265 370.509 628.594 388.841 576.629 c 0
 399.459 546.551 408.202 517.84 415.817 490.229 c 0
 429.946 438.97 251.873 443.454 281.923 466.58 c 0
 299.422 480.05 270.062 520.792 255.903 543.596 c 1
EndSplineSet
EndChar
StartChar: grave
Encoding: 96 96 24
Width: 330
VWidth: 1080
Flags: HW
Fore
367.894 463.553 m 0
 302.744 505.011 287.692 528.672 242.122 565.9 c 0
 211.9 590.585 170.546 598.809 142.328 649.723 c 0
 136.331 660.544 113.754 694.061 140.071 722.131 c 0
 178.368 762.995 229.223 735.089 258.421 721.804 c 0
 308.251 699.152 320.111 661.612 346.236 635.19 c 1
 348.047 633.35 349.487 631.331 350.63 629.016 c 0
 370.788 588.284 417.709 553.98 417.694 480.741 c 1
 412.276 460.049 410.332 458.476 388.972 457.525 c 0
 367.894 463.553 l 0
EndSplineSet
EndChar
StartChar: a
Encoding: 97 97 3
Width: 505
VWidth: 1000
Flags: HW
Fore
195.25 150.328 m 4
 213.797 140.984 230.719 163.062 270.172 195.344 c 4
 319.828 236 337.531 266.453 367.609 327.109 c 4
 383.328 358.812 391.281 368.062 387.484 387.125 c 4
 385.484 397.141 383.781 397.281 381.953 397.734 c 4
 359.812 403.266 348.812 390.172 315.297 364.234 c 4
 277.484 334.953 266.906 309.891 237.156 262.672 c 4
 214.609 226.906 200.797 214.719 196.781 184.688 c 4
 192.938 156 193 151.453 195.25 150.328 c 4
298.062 80.8096 m 5
 297.11 79.7324 296.096 78.6904 295.016 77.6875 c 4
 277.391 61.3125 265.266 37.75 229.594 22.9219 c 4
 197.078 9.39062 168.859 9.45312 137.328 15.4375 c 4
 110.281 20.5781 73.9062 24.625 50.9375 60.5312 c 4
 22.2812 105.344 37.0938 147.328 45.6719 183.734 c 4
 64.4531 263.5 95.4062 307.641 142.094 369.125 c 4
 184.422 424.875 216.547 460.656 279.328 497.547 c 4
 312.078 516.797 342.234 533.578 387.453 530.953 c 4
 445.422 527.594 458.25 503.219 467.266 492.844 c 4
 471.266 488.25 481.203 533.188 520.734 528.844 c 4
 557.844 524.781 575.031 492.828 578.766 465.375 c 5
 579.078 463.125 579.078 460.922 578.781 458.672 c 4
 566.391 366.344 513.875 328.297 487.25 260.828 c 5
 486.891 259.938 l 4
 465.234 210.734 444.078 198.688 446.875 170.469 c 4
 447.5 164.172 460.141 168.438 461.75 151.406 c 4
 462.297 145.641 479.234 163.719 497.531 132.703 c 4
 514.609 103.766 500.812 76.25 491.938 60.0156 c 4
 480.422 38.9375 462.734 26.3125 443.031 18.6875 c 4
 412.047 6.6875 371.312 -10.2188 330.141 17.1875 c 4
 304.015 34.5879 299.6 60.3145 298.062 80.8096 c 5
EndSplineSet
EndChar
StartChar: b
Encoding: 98 98 4
Width: 448
VWidth: 1000
Flags: HW
Fore
195.344 104.161 m 0
 246.062 106.509 261.781 142.699 309.531 193.062 c 1
 325.922 216.752 334.125 234.812 358.094 268.021 c 1
 370.656 305.291 377.266 316.452 367.438 327.282 c 0
 364.328 330.695 358.922 331.675 334.969 325.914 c 0
 295.188 316.323 280.531 297.716 243.766 263.656 c 0
 213.5 235.604 198.812 223.995 188.109 193.19 c 0
 175.266 156.266 170.812 137.602 186.266 111.42 c 0
 190.719 103.858 192.938 104.046 195.344 104.161 c 0
232.4 653.02 m 1
230.876 650.396 m 1
 212.558 653.661 193.02 658.72 187.125 665.054 c 0
 168.953 684.582 169.484 712.635 187.031 731.731 c 0
 225.297 773.365 277.25 751.115 304.594 755.32 c 1
 307.141 755.71 309.641 755.739 312.219 755.407 c 0
 328.781 753.246 351.938 761.701 411.656 747.947 c 1
 415.812 746.953 419.266 745.283 422.438 742.619 c 0
 453.344 716.725 457.797 678.417 413.484 646.202 c 1
 411.828 645.006 410.078 644.027 408.156 643.234 c 0
 384.781 633.658 390.609 644.762 385.953 639.605 c 0
 322.094 569.067 332.562 522.119 298.391 447.088 c 1
 287.628 404.946 l 1
 298.567 412.537 316.308 419.762 350.672 424.406 c 1
 350.703 424.42 l 0
 362.5 426.004 424.875 442.233 468.766 402.242 c 1
 469.141 401.91 469.484 401.564 469.828 401.22 c 0
 514.656 355.006 484.891 304.039 477.719 266.292 c 1
 477.484 264.997 477.109 263.743 476.641 262.504 c 0
 440.562 169.674 402.328 145.651 358.703 94.8574 c 1
 357.109 93.0137 355.312 91.4736 353.219 90.1494 c 0
 316.688 67.1064 295.859 34.1562 237.719 18.7178 c 0
 183.375 4.30176 129.922 -5.89355 73.2188 26.5371 c 0
 37.7031 46.8574 36.625 82.1123 30.25 92.8701 c 1
 27.1094 98.502 26.2812 103.57 28 109.691 c 0
 60.6875 226.458 76.7188 233.903 90.5781 287.837 c 1
 90.75 288.557 90.9844 289.276 91.2344 289.982 c 0
 193.797 566.562 l 1
 208.202 606.819 221.4 633.869 230.876 650.396 c 1
EndSplineSet
EndChar
StartChar: c
Encoding: 99 99 5
Width: 362
VWidth: 1000
Flags: HW
Fore
369.406 348.828 m 4
 330.188 338.453 310.719 380.797 310.609 380.828 c 4
 287.297 387.359 277.016 386 266.234 379.078 c 5
 225.141 341.922 224.625 324.109 202.484 264.438 c 5
 190.719 231.594 184.109 219.672 189.375 196.547 c 5
 189.844 194.484 190.047 192.422 189.984 190.297 c 4
 189.344 167.328 194.312 156.172 212.297 153.781 c 5
 213.672 153.594 217.188 151.828 216.328 152.906 c 4
 212.609 157.516 220.25 169.484 255.25 171.938 c 4
 266.594 172.734 314.875 186.641 333.734 145.406 c 4
 357.531 93.375 310.422 56.5469 283.875 36.9062 c 4
 240.406 4.73438 194.594 -4.04688 142.984 8.73438 c 4
 94.625 20.7031 80.0781 56.8281 58.2188 74.6094 c 5
 54.0625 78.0938 51.4062 82.0156 49.9375 87.2344 c 4
 24.6562 176.984 41.6406 239.969 67.6094 308.828 c 5
 68.6562 311.562 70.0781 313.984 71.9688 316.219 c 4
 129.109 383.25 144.125 463.156 241.75 512.328 c 4
 282.891 533.047 320.75 532.766 361.859 521.047 c 4
 382.5 515.156 419.234 506.172 429.219 467.203 c 4
 440.984 421.266 423.406 363.125 369.406 348.828 c 4
EndSplineSet
EndChar
StartChar: d
Encoding: 100 100 6
Width: 489
VWidth: 1000
Flags: HW
Fore
170.703 121.328 m 0
 187.719 110.729 212.281 144.083 252.188 187.397 c 0
 282.656 220.484 293.547 240.39 300.266 283.54 c 0
 303.031 301.309 301.906 300.715 301.297 301.309 c 0
 288.672 313.332 269.719 316.835 258.75 311.446 c 1
 234.5 273.312 224.422 237.599 197.953 194.314 c 1
 180.188 142.421 162.594 126.39 170.703 121.328 c 0
450.844 611.145 m 1
 451.166 612.812 450.951 613.025 450.031 611.32 c 1
 450.844 611.145 l 1
449.386 605.495 m 1
 427.729 608.29 393.219 617.316 384.484 634.551 c 0
 361.688 679.497 411.844 708.784 416.5 717.928 c 1
 417.109 719.13 417.828 720.258 418.625 721.342 c 0
 442.828 753.627 479.078 763.32 597.062 754.043 c 1
 602.594 753.523 607.062 751.816 611.297 748.387 c 0
 671.188 699.596 621.438 635.322 609.016 594.562 c 1
 608.562 593.092 607.969 591.682 607.234 590.301 c 0
 550.344 485.192 513.656 426.604 483.156 317.666 c 1
 483.062 317.31 482.953 316.938 482.828 316.582 c 0
 459.906 247.9 435.422 230.504 427.156 208.401 c 1
 428.984 206.16 499.562 185.72 503.953 120.066 c 1
 504.203 112.941 502.391 107.612 497.281 102.372 c 0
 461.703 65.8271 424.219 26.0605 374.875 0.766602 c 1
 368.891 -2.12793 363.484 -2.78125 356.938 -1.37109 c 0
 296.938 15.7295 l 0
 285 21.667 282.469 21.8301 278.984 29.4893 c 0
 257.938 75.8164 267 53.9668 272.688 130.16 c 1
 272.562 130.635 272.453 131.109 272.375 131.6 c 0
 269.922 144.93 266.484 48.9941 220.797 23.1211 c 0
 185.25 2.97852 158.797 -9.08984 113.844 3.66113 c 0
 73.5156 15.1055 43.5938 39.6426 31.0469 79.4531 c 0
 15.4375 128.973 42.5312 162.489 55.7969 193.914 c 0
 82.5 257.148 112.891 285.678 145.516 337.809 c 1
 146.172 338.848 146.891 339.828 147.703 340.763 c 0
 196.141 396.62 230.891 437.841 295.609 476.82 c 1
 297.75 478.098 299.969 479.047 302.406 479.671 c 0
 353.564 492.967 388.078 489.043 409.313 481.219 c 1
 428.156 539.922 l 0
 434.87 560.123 445.401 591.594 449.386 605.495 c 1
EndSplineSet
EndChar
StartChar: e
Encoding: 101 101 7
Width: 336
VWidth: 1000
Flags: HW
Fore
291.688 189.734 m 0
 319.125 185.641 326.766 163.547 326.812 163.5 c 1
 331.391 159.172 333.922 154.562 334.781 148.328 c 0
 341.797 96.9531 264.766 52.7188 211.609 24.8594 c 1
 209.328 23.6719 207 22.8594 204.469 22.4062 c 0
 181.594 18.2344 151.531 -8.92188 103.922 7.34375 c 0
 65.625 20.4219 44.5938 49.1406 34.0781 83.7344 c 0
 15.8906 143.625 39.8594 184.75 52.9844 229.969 c 0
 71.8281 294.859 86.6406 337.969 127.641 395.5 c 0
 158.469 438.797 182.984 476.734 240.578 500.156 c 0
 277.969 515.375 335.344 541.219 380.516 496.828 c 0
 425.844 452.312 400.953 395.141 386.422 356.25 c 0
 368.531 308.391 337.656 287.641 305.812 261.641 c 0
 242.625 210.031 194.609 226.422 173.594 190.406 c 0
 163 172.234 163.25 159.297 174.531 135.828 c 0
 179.562 125.359 181.219 126.047 183 125.984 c 0
 197.406 125.406 198.109 146.172 237.609 168.719 c 0
 241.75 171.078 258.625 194.641 291.688 189.734 c 0
221.716 316.391 m 1
 250.755 318.854 267.239 327.419 283.4 353.017 c 0
 300.397 379.939 301.398 394.271 292.759 404.934 c 0
 291.605 406.352 288.259 409.604 267.973 402.646 c 0
 249.142 396.18 242.127 387.653 228.912 362.924 c 1
 226.138 348.595 225.699 333.841 221.716 316.391 c 1
EndSplineSet
EndChar
StartChar: f
Encoding: 102 102 8
Width: 358
VWidth: 1000
Flags: HW
VStem: 70 93<100.789 276.679>
Fore
345.115 504.499 m 1
 367.726 506.855 404.016 497.972 421.297 470.973 c 1
 425.766 463.124 426.438 456.897 422.844 448.644 c 0
 418.125 437.824 421.219 409.057 390.984 387.313 c 0
 350.906 358.501 312.75 362.207 290.109 371.332 c 0
 285.172 373.312 258.875 365.313 275.891 368.585 c 1
 238.294 286.896 298.853 399.878 189.047 132.178 c 1
 168.531 84.0068 158.625 54.3398 134.688 4.62402 c 0
 103.703 -59.7832 90.6562 -105.237 41.9219 -166.928 c 0
 10.5 -206.694 -17.5 -220.575 -48.9531 -248.741 c 1
 -52.4375 -251.787 -56.1719 -253.709 -60.7812 -254.654 c 0
 -118.938 -266.6 -202.766 -267.439 -252.156 -222.706 c 1
 -258.078 -216.898 -260.484 -211.361 -259.906 -203.243 c 0
 -259.062 -191.059 -281.062 -152.582 -246.797 -119.223 c 0
 -218.781 -91.9707 -182.766 -100.045 -159.156 -107.533 c 0
 -124.328 -118.577 -127.594 -139.616 -123.469 -141.972 c 0
 -97.9375 -156.589 -79.5469 -111.765 -42.4219 -90.7861 c 1
 2.875 -14.4189 14.2031 59.3213 54.6875 159.743 c 1
 54.9219 160.283 l 0
 152.232 385.154 118.785 296.655 146.801 366.052 c 1
 145.707 367.977 145.156 370.703 146.828 373.538 c 0
 151.312 381.16 137.938 371.002 104 371.002 c 1
 86.2969 374.093 80.1406 377.35 79 394.592 c 0
 75.6875 445.058 114.781 474.994 129.094 487.615 c 1
 133.375 491.261 137.828 493.182 143.516 493.812 c 0
 189.484 498.225 l 1
 198.703 516.816 173.25 529.737 232.812 620.976 c 1
 233.391 621.846 234.016 622.687 234.703 623.481 c 0
 262.609 656.03 272.578 695.631 324.875 726.62 c 0
 367.078 751.619 403.938 754.951 448.438 754.201 c 0
 483.953 753.601 534.797 762.604 569.812 718.906 c 0
 590.766 692.765 585.297 661.703 571.547 639.268 c 0
 555.625 613.277 529.109 595.525 493.656 598.722 c 0
 459.719 601.783 448.594 629.379 444.188 632.846 c 0
 427.703 645.767 426.625 649.997 421 652.084 c 0
 418.766 652.908 386.891 653.014 393.719 652.609 c 1
 384.141 640.634 390.219 643.711 357.375 570.825 c 1
 349.104 547.005 355.018 523.914 345.115 504.499 c 1
EndSplineSet
KernsSLIF: 102 -75 0 0
EndChar
StartChar: g
Encoding: 103 103 9
Width: 402
VWidth: 1000
Flags: HW
HStem: 452 20G<-49 -14>
Fore
187.562 186.797 m 0
 210.297 192.328 206.812 211.188 240.516 244.891 c 1
 250.547 293.172 261.5 309.125 247.562 334.453 c 0
 246.578 336.25 247.516 337.234 232.953 339.906 c 0
 218.328 342.594 217.422 342.25 212.531 338.547 c 0
 184.766 317.578 183.062 293.812 172.938 245.375 c 0
 165.812 211.297 161.672 202.016 169.547 191.391 c 0
 173.234 186.422 176.359 184.062 187.562 186.797 c 0
54.4062 -103.438 m 0
 53 -106.688 51.8594 -106.891 57.5781 -114.641 c 0
 69.6875 -131.047 81.875 -132.484 114.469 -140.969 c 1
 155.5 -147.094 170.141 -160.875 229.828 -148.391 c 1
 235.203 -143.609 237.859 -122.047 225.531 -99.4844 c 0
 218.031 -85.7656 206.891 -85.1094 174.359 -75.4688 c 0
 144.859 -66.7188 133.547 -63.4844 109.797 -69.6875 c 0
 76.9844 -78.2656 62.9844 -83.6406 54.4062 -103.438 c 0
337.316 428.335 m 1
 343.519 433.77 354.728 440.104 370.938 443.094 c 0
 389.312 446.469 424.703 458.703 453.172 430.156 c 0
 478.641 404.594 482.094 366.047 462.203 336.531 c 0
 443.688 309.062 408.156 296.703 376.562 312 c 0
 375.045 312.736 373.562 313.54 372.122 314.398 c 1
 375.711 296.061 372.26 256.937 338 185.672 c 1
 337.234 184.062 336.312 182.578 335.219 181.188 c 0
 316.125 156.547 301.281 129.375 259.516 115.5 c 1
 236.359 102.766 220.531 107.281 215.703 103.938 c 0
 200.781 93.625 197.312 87.3594 188.453 66.6719 c 0
 181.266 49.875 181.234 52.6719 181.828 51.6875 c 0
 203.797 15.625 283.922 50.6406 341.688 -28.7969 c 0
 370.719 -68.7188 378.25 -112.406 363.281 -159.125 c 0
 352.109 -193.969 325.734 -208.656 303.922 -221.172 c 0
 259.766 -246.531 224.828 -249.828 179.984 -254.375 c 0
 125.031 -259.938 83.4688 -265.047 25.375 -245.156 c 0
 -11.5938 -232.5 -49.5625 -219.156 -72.6719 -175.109 c 0
 -88.9844 -144.031 -89 -110.406 -72.5781 -79.7031 c 0
 -46.2188 -30.4531 -0.5 -27.2188 26.0938 -10.375 c 0
 47.0781 2.90625 54.6875 3.01562 61.7188 10.0938 c 0
 74.7969 23.2969 74.5312 23.5156 74.4688 25.9531 c 0
 74.2188 38 32.4531 45.25 26.625 97.7344 c 1
 26.6719 111.656 29.5 118.453 42.3594 123.781 c 0
 71.4697 135.846 85.5098 138.179 92.041 137.361 c 1
 89.2344 143.062 l 0
 89.2188 143.109 62.5312 147.734 51.5781 183.109 c 0
 36.9375 230.484 58.2031 264.047 70.0938 295.375 c 0
 88.2188 343.094 98.4531 390.547 151.25 427.062 c 0
 197.797 459.266 248.406 474.891 306 454 c 0
 323.945 447.489 334.117 436.345 337.316 428.335 c 1
EndSplineSet
EndChar
StartChar: h
Encoding: 104 104 10
Width: 459
VWidth: 1000
Flags: HW
VStem: 112.377 80.066<179.01 328.881 434.389 608.745>
Fore
373.406 621.797 m 1
 350.812 587.594 373.547 592.234 308 466.422 c 1
 307.828 466.094 l 1
 276.234 406.547 l 1
 277.219 407.031 278.25 407.484 279.312 407.938 c 0
 336.547 432.094 406.75 464.188 472.219 415.719 c 0
 519.406 380.766 506.125 328.516 502.312 292.344 c 0
 494.906 222.109 468.297 180.797 431.375 126.125 c 0
 397.344 75.7188 368.828 53.1875 328.078 20.8125 c 0
 326.375 19.4531 321 -8.25 287.719 -13.2812 c 0
 251.281 -18.8125 227.062 3.28125 212.734 23.9531 c 0
 197.391 46.0938 196.922 71.0156 204.141 92.8125 c 0
 210.094 110.781 226.25 163.484 275.703 157.656 c 0
 297.703 155.047 308.234 147.672 305.938 136.453 c 1
 339.219 184.547 l 0
 354.781 207.344 361.094 216.719 367.625 240.172 c 0
 376.312 271.297 381.281 281.766 373.938 300.672 c 0
 367.938 316.125 364.875 317.047 361.531 317.344 c 0
 328.391 320.312 317 293.281 275.125 254.281 c 0
 245.141 226.359 236.812 203.344 207.312 164.562 c 1
 173.656 118.25 172.453 43.0938 116.844 8.20312 c 1
 109.266 3.90625 103.031 3.20312 94.625 5.75 c 0
 33.1875 27.2031 l 0
 19.0156 34.5938 14.1719 39.9219 17.3594 55.1094 c 0
 32.7031 128.266 63.4062 151.734 78.2812 199.688 c 1
 78.4844 200.328 78.7031 200.938 78.9531 201.578 c 0
 128.156 322.469 153.266 392.391 205.781 513.234 c 0
 221.672 549.812 235.656 562.344 241.641 589.438 c 0
 247.812 617.359 250.516 637.297 245.391 630.016 c 0
 236.984 618.078 214.297 621.25 201.281 650 c 0
 184.516 686.984 210.734 716.312 229.797 732.828 c 0
 255.844 755.375 284.594 754.5 307.297 755.094 c 0
 333.141 755.781 373.891 764.625 404.922 730.906 c 0
 428.078 705.734 432.406 669.906 412.688 641.031 c 0
 401.094 624.047 378.047 620.844 373.406 621.797 c 1
EndSplineSet
EndChar
StartChar: k
Encoding: 107 107 13
Width: 438
VWidth: 1000
Flags: HW
VStem: -31.9192 135<256.117 782.989> -31.9192 156<-50.241 147.409>
Fore
244.955 295.521 m 1
 254.488 294.224 257.306 291.23 263.979 292.448 c 0
 302.487 299.441 318.05 305 342.636 329.86 c 0
 358.424 345.797 365.292 355.826 368.722 361.566 c 1
 361.644 359.327 347.837 358.211 323.347 362.046 c 1
 249.826 342.35 252.101 300.885 244.955 295.521 c 1
267.129 652.864 m 1
 242.627 654.049 208.156 661.295 198.297 681.466 c 0
 183.266 712.188 219.031 739.629 233.062 746.806 c 0
 275.812 768.659 309.844 750.761 336.141 749.629 c 0
 363.25 748.482 378.641 746.025 403.266 743.907 c 1
 413.234 742.497 419.062 739.188 423.531 730.673 c 0
 442.859 693.878 442.562 648.642 421.422 630.01 c 1
 367.906 527.61 359.484 531.816 329.469 479.272 c 1
 328.647 470.245 327.056 462.953 324.939 457.082 c 1
 335.115 460.488 345.021 462.811 355.406 464.227 c 0
 382.547 467.947 435.016 491.89 473.688 450.933 c 0
 513.734 408.506 491.047 357.727 471.047 322.549 c 0
 446.5 279.386 406.547 275.283 384.609 258.797 c 0
 373.656 250.576 350.188 231.238 354 234.297 c 1
 353.969 152.957 353.562 233.724 365.109 128.354 c 1
 369.375 123.34 377.906 109.78 377.406 111.25 c 0
 375.781 116.016 404.453 127.604 427 99.2939 c 0
 446.141 75.2793 437.5 45.2783 417.922 28.3379 c 0
 376.531 -7.5166 328.266 9.38086 293.297 17.0869 c 0
 267.266 22.8379 255.062 36.5293 244.594 42.1611 c 1
 236.797 46.8525 232.922 51.8672 232.094 60.5283 c 0
 216.578 222.267 239.344 157.34 231.062 187.825 c 1
 214.344 189.575 l 1
 208.047 171.751 245.578 181.119 174.031 68.3525 c 1
 146.516 14.7051 l 0
 143.062 8.46875 138.766 4.71973 131.656 2.54297 c 0
 79.8438 -13.3398 37.2812 13.8076 19.7344 55.8672 c 1
 17.8594 60.5146 17.4531 64.8525 18.625 69.7061 c 0
 44.4531 176.398 103.75 208.459 100.203 234.664 c 1
 99.6875 238.738 100.172 242.429 101.734 246.238 c 0
 202.922 489.022 l 1
 232.743 628.666 254.899 642.448 267.129 652.864 c 1
EndSplineSet
EndChar
StartChar: l
Encoding: 108 108 14
Width: 302
VWidth: 1000
Flags: HW
VStem: 105.217 109.25<115 675.621>
Fore
270.795 628.295 m 1
 263.23 624.677 239.504 623.593 223.266 654.735 c 0
 208.859 682.382 218.391 712.397 240.469 730.943 c 0
 282.688 766.384 338.797 768.236 375.234 746.148 c 1
 452.234 729.75 432.234 665.309 424.219 623.381 c 1
 423.922 621.793 423.453 620.264 422.812 618.764 c 0
 378.125 514.32 341.125 456.334 303.609 351.773 c 1
 303.375 351.127 303.109 350.494 302.828 349.877 c 0
 272.138 283.869 252.441 247.784 225.405 183.815 c 1
 233.606 185.43 242.003 186.746 250.141 187.728 c 0
 262.016 189.154 297.188 196.536 315.625 167.521 c 0
 335.766 135.813 306.078 106.828 305.953 106.373 c 1
 303.859 99.873 300.484 95.5049 294.234 92.1074 c 0
 253.703 70.1074 227.562 62.2393 193.656 39.666 c 1
 191.891 38.4893 190.016 37.5625 188 36.8574 c 0
 159.375 26.7539 136.688 4.98828 89.0156 3.17969 c 0
 64.4375 2.25391 47.9688 12.9893 41.25 14.7979 c 1
 29.125 19.3418 23.9688 24.166 23.1406 36.4307 c 0
 20.1406 80.5488 35.6094 114.813 46.6875 155.874 c 1
 47.0312 157.124 47.4688 158.345 48.0156 159.521 c 0
 182.969 449.349 l 0
 218.922 524.276 253.594 554.881 269.75 623.69 c 0
 270.795 628.295 l 1
EndSplineSet
EndChar
StartChar: m
Encoding: 109 109 15
Width: 741
VWidth: 1000
Flags: HW
VStem: 49 106<119 331> 556 98<137 174.092 137 348> 557 97<123 137>
Fore
693.984 233.578 m 0
 679.927 234.584 668.743 226.482 659.044 222.686 c 1
 664.045 229.816 670.338 239.264 679.312 254.188 c 1
 706.953 297.719 750.234 321.203 766.375 389.578 c 0
 774.953 425.906 790.578 479.219 746.109 516.484 c 0
 700.766 554.484 651 525.531 620 515 c 0
 589.009 504.464 568.594 494.458 554.931 485.578 c 1
 550.555 497.904 543.82 509.377 536.266 515.172 c 0
 535.891 515.453 535.531 515.719 535.141 515.969 c 1
 489.234 547.328 443.484 550.031 396.281 515.5 c 0
 395.688 515.047 l 1
 379.761 502.643 366.258 494.118 355.503 487.537 c 1
 352.066 497.229 346.41 507.721 337.688 518.797 c 0
 337.125 519.5 l 1
 291.188 573.672 242.297 556.094 205.453 529.625 c 0
 204.672 529.062 203.906 528.453 203.188 527.797 c 1
 191.266 516.906 54.2188 452.328 75.5469 364.328 c 0
 80.1562 345.344 87.125 344.016 106.625 345.203 c 1
 141.094 354.609 146.609 363.406 164.625 362.375 c 0
 179.609 361.516 172.734 360.812 174.516 362.625 c 0
 175.781 363.922 174.734 360.453 166.328 335.234 c 0
 150.281 287.078 126.5 266.516 96.3438 213.734 c 0
 96.1562 213.406 95.9688 213.078 95.7969 212.734 c 1
 71.5 165.328 57.5938 148.641 36.1562 78.6719 c 0
 34.6719 73.8594 34.6719 69.3906 35.9844 64.5312 c 1
 47.7969 22.75 84.1094 3.39062 132.453 4.32812 c 0
 139.359 4.46875 144.453 6.73438 149.5 11.4375 c 1
 198.188 58.9062 194.062 111.156 216.016 140.281 c 0
 216.844 141.391 217.578 142.547 218.219 143.766 c 1
 248.391 201.594 253.359 234.844 287.594 277.734 c 0
 331.188 332.359 343.922 372.094 387.031 370.344 c 0
 392.562 370.125 397.688 366.266 399.344 355.516 c 0
 403.703 327.266 377.234 319.391 349.25 269.578 c 0
 304.672 190.234 271.953 181.609 219.031 54.1094 c 0
 214.094 42.2031 216.625 35.2812 225.312 25.75 c 1
 254.609 -0.640625 293.078 -15.5625 331.438 4.07812 c 0
 333.531 5.14062 335.406 6.46875 337.125 8.0625 c 1
 393.234 60.5469 417.812 130.891 459.906 173.828 c 0
 460.562 174.516 461.188 175.219 461.781 175.969 c 1
 547.641 286.312 542.781 336.797 599.734 365.219 c 1
 606.934 366.335 611.805 363.155 613.645 362.844 c 1
 610.347 351.869 601.135 336.705 583.359 305.781 c 0
 582.844 304.875 582.391 303.938 581.984 302.984 c 1
 551.953 231.25 516.906 205.938 482.453 134.188 c 1
 455.688 108.312 459.703 65.2969 473.5 36.5312 c 0
 475.156 33.0781 477.375 30.2969 480.344 27.875 c 1
 524.266 -7.59375 573.984 8.85938 600.031 17.6406 c 0
 602.578 18.5 604.891 19.7188 607.047 21.3281 c 1
 632.891 40.7031 653.453 50.4375 681.375 77.3125 c 0
 715.641 110.281 743.453 136.031 764.625 180.609 c 0
 791.641 237.484 730 231 693.984 233.578 c 0
EndSplineSet
EndChar
StartChar: n
Encoding: 110 110 16
Width: 527
VWidth: 1000
Flags: HW
VStem: 50 106<119 331>
Fore
167.086 328.464 m 0
 158.519 312.677 134.787 286.346 96.875 303.141 c 0
 61.4219 318.859 71.0781 360.734 70.9688 361.125 c 1
 69.1719 368.141 69.6719 373.875 73.1719 380.188 c 0
 105.109 437.734 151.875 460.25 185.328 493.688 c 1
 186.922 495.266 188.656 496.594 190.609 497.703 c 0
 223.781 516.656 266.062 554.031 318.312 521.156 c 1
 323.672 517.641 326.969 513.469 328.891 507.359 c 0
 333.359 493.141 344.75 477.766 345.984 449.062 c 0
 365 466 l 1
 384.203 487.516 l 0
 387.203 490.203 390.453 492.016 394.344 493.094 c 0
 405.266 496.141 441.859 538.812 489.375 511.719 c 0
 554.719 474.469 545.234 401.297 539.875 347.516 c 0
 533.266 281.234 490.203 260.016 478.922 222.75 c 0
 478.701 221.972 l 2
 487.544 221.956 496.66 220.432 504.781 216.547 c 0
 537.938 200.703 548.562 165.578 542.516 135.141 c 0
 532.844 86.3594 489.281 75.1719 470.469 60.3594 c 0
 445.672 40.8438 428.859 33.3906 406.547 19 c 1
 402.391 16.3594 398.203 15.0625 393.281 15 c 0
 372.844 14.7344 364.375 4.125 322.484 13.625 c 1
 315.75 15.3125 318.094 18.4062 314.188 24.1406 c 0
 306.484 35.5156 292.188 56.5625 292 97.8906 c 1
 292 101.562 292.703 104.922 294.203 108.266 c 0
 350.297 232.781 343.094 214.422 352 238 c 1
 358.547 273.109 376.453 285.625 385 328 c 0
 391.594 360.797 399.719 379.484 388.438 381.328 c 0
 381.266 382.484 341.594 316.562 342.781 292.703 c 1
 318.428 226.297 286.641 177.232 245.406 94.9062 c 1
 244.422 92.9219 243.219 91.125 241.75 89.4688 c 0
 237.266 84.375 238.094 14.6094 184.203 0.78125 c 1
 183.391 0.578125 182.562 0.40625 181.734 0.28125 c 0
 126.75 -8.03125 69.25 7.40625 51.5781 87.625 c 1
 50.75 91.5469 50.7812 95.2344 51.7656 99.125 c 0
 74.4844 189.172 111.297 204.359 125.906 239.578 c 1
 126.188 240.219 l 0
 146.5 285.578 165.562 297.703 167.031 327.234 c 0
 167.052 327.656 167.07 328.066 167.086 328.464 c 0
EndSplineSet
EndChar
StartChar: o
Encoding: 111 111 17
Width: 354
VWidth: 1000
Flags: HW
Fore
166.756 124.181 m 4
 170.016 121.798 174.909 121.031 193.6 131.708 c 4
 220.842 147.269 225.327 166.233 247.064 205.993 c 4
 274.018 255.292 287.442 279.727 294.213 331.257 c 4
 297.766 358.298 298.318 360.296 296.191 362.454 c 4
 291.599 367.116 286.054 369.014 268.711 362.566 c 4
 236.446 350.573 227.211 330.469 203.672 289.537 c 4
 176.632 242.518 167.593 216.245 164.97 162.775 c 4
 163.438 131.562 162.747 127.111 166.756 124.181 c 4
74.2002 52.4453 m 4
 36.7256 90.4443 41.9639 134.646 43.0098 172.688 c 4
 44.6367 231.873 60.127 270.029 85.8105 319.517 c 4
 117.283 380.158 136.618 443.617 214.119 476.964 c 4
 268.205 500.237 329.088 504.612 378.59 460.702 c 4
 415.66 427.819 406.452 384.667 404.97 354.762 c 4
 400.312 260.865 378.214 201.098 331.579 121.377 c 4
 307.647 80.4668 288.224 32.0264 227.062 14.0176 c 4
 170.17 -2.73242 116.154 9.9043 74.2002 52.4453 c 4
EndSplineSet
EndChar
StartChar: p
Encoding: 112 112 18
Width: 413
VWidth: 1000
Flags: HW
VStem: 50.1781 106.7<109.487 345.987> 50.1781 141.9<-222.713 -31.3125>
Fore
313.442 395.521 m 1
 280.15 367.162 279.635 311.836 255.898 242.828 c 1
 246.377 199.67 234.826 181.469 231.424 146.097 c 1
 261.484 137.435 253.698 131.831 257.635 133.224 c 0
 286.338 143.347 277.984 171.122 314.869 223.646 c 1
 335.562 278.458 344.396 300.768 351.014 371.94 c 1
 339.378 402.981 346.597 403.943 344.844 405.026 c 0
 341.114 407.295 348.935 399.63 313.442 395.521 c 1
348.894 494.563 m 1
 362.775 491.125 387.34 478.444 406 449.578 c 0
 459.172 367.297 456.266 290.219 433.188 201.703 c 0
 419.266 148.234 390.812 118.516 353.062 86.8438 c 0
 311.047 51.5938 276.766 58.1719 250.047 38.0312 c 0
 213.516 10.5 203.375 -16.1094 171.766 -52.2344 c 1
 139.078 -114.532 127.567 -142.739 123.689 -153.91 c 1
 139.644 -156.443 164.351 -164.362 172.922 -179.969 c 0
 192.484 -215.609 169.312 -248.062 149.125 -265.109 c 0
 106.172 -301.344 62.8438 -282.094 32.7969 -286.703 c 1
 31.5312 -286.906 30.2812 -287 29 -287 c 0
 -1.75 -287 27.7031 -283.562 -52.7344 -290.891 c 1
 -67.125 -290.453 -72.5469 -286.922 -78.7188 -273.906 c 0
 -102.719 -201.906 l 0
 -105.516 -190.484 -104.312 -183.469 -95.7344 -175.422 c 0
 -68.0938 -149.547 -12.25 -169.797 -10.4062 -167.984 c 1
 32.0156 -56.8594 42.7188 -9.28125 91.125 129.453 c 1
 149.258 343.688 l 1
 139.32 328.879 125.331 314.245 105.859 302.562 c 0
 38.2344 261.984 72.1875 387.641 72.0625 385.656 c 1
 72.5312 391.406 74.3281 396.016 78.1094 400.375 c 0
 141.156 473.25 179.719 467.656 199.516 506.938 c 1
 203.922 523.469 186.281 574.547 232.234 608.172 c 0
 273.703 638.531 315.688 609.828 334.156 608.969 c 1
 349.094 606.25 355.406 602.375 357.766 587.375 c 1
 367.207 536.495 349.125 506.828 348.894 494.563 c 1
EndSplineSet
EndChar
StartChar: q
Encoding: 113 113 19
Width: 442
VWidth: 1000
Flags: HW
VStem: 299 94<131 458>
Fore
252 138 m 17
 297.443 160.182 286.635 175.006 319.656 249.547 c 1
 340.719 296.938 360.406 311.062 364.141 346.609 c 0
 368.422 387.469 368.922 397.844 361.406 401.359 c 0
 355.016 404.344 343.656 403.328 312 378 c 0
 280.719 352.969 254.312 329.031 234 294 c 0
 197.547 231.094 186.672 199.703 196.578 146.578 c 0
 198.203 137.875 232.175 128.763 252 138 c 17
501.611 428.104 m 1
 509.038 432.844 537.773 436.952 556.453 410.375 c 0
 575.109 383.828 567.812 351.031 547.484 331.141 c 0
 518.46 302.727 478.862 314.728 476.409 317.658 c 1
 456.38 292.33 477.625 264.621 426.844 151.859 c 1
 410.156 113.703 399.422 93.9531 385.359 57.0781 c 0
 358.188 -14.0781 344.531 -53.2812 325.172 -126.406 c 0
 319.787 -146.713 315.741 -155.304 313.446 -158.768 c 1
 321.406 -154.357 349.938 -148.866 374.281 -174.938 c 0
 400.531 -203.062 390.312 -236.109 392.516 -247.094 c 1
 393.75 -260.344 391.5 -267.266 380 -273.938 c 0
 343.609 -295.031 283.094 -271.641 232.578 -276.859 c 1
 229.953 -277.141 227.422 -277 224.844 -276.469 c 0
 187.203 -268.531 151.828 -290.891 101.859 -278.234 c 1
 91.1406 -274.641 86.3594 -269.844 83.4844 -258.906 c 0
 82.6875 -255.828 48.0938 -219.609 75.3906 -179.844 c 0
 103.938 -138.297 146.016 -165.922 150.531 -162.359 c 0
 177.812 -140.859 169.344 -110.906 191.938 -58.3594 c 1
 205.951 -23.915 219.592 3.5918 230.954 24.1113 c 1
 222.809 23.0527 214.51 22.0264 206.812 21.1562 c 0
 187.984 19.0312 161.469 1.42188 122.781 16.7656 c 0
 85.75 31.4375 67.25 59.3281 54.7656 90.7812 c 0
 33.7969 143.609 36.1406 187.328 50.9688 238.906 c 0
 75.4219 323.922 118.172 365.359 172.547 424.859 c 0
 195.969 450.516 215.188 468.641 248.875 485.391 c 0
 287.828 504.75 318.234 511.766 360.703 513.969 c 0
 396.859 515.844 446.328 532.109 488.484 490.875 c 0
 514.626 465.288 505.613 437.057 501.611 428.104 c 1
EndSplineSet
KernsSLIF: 117 27 0 0
EndChar
StartChar: r
Encoding: 114 114 20
Width: 401
VWidth: 1000
Flags: HW
Fore
301.013 421.156 m 5
 311.203 430.693 326.831 440.939 344.719 445.672 c 5
 353.031 449.328 366.656 467.219 401.766 468.969 c 4
 417.297 469.734 453.844 473.672 471.156 440.594 c 4
 495.172 394.703 460.484 358 446.031 335.5 c 4
 441.672 328.688 426.797 291.266 389.422 295.141 c 4
 358.781 298.312 373.219 307.719 363.844 331.031 c 4
 347.453 371.797 319.375 279.5 271 215 c 4
 231.453 162.266 222.422 119.031 174.625 58.5 c 4
 162.719 43.4375 150.844 2.76562 105 -4.67188 c 4
 72.4844 -9.95312 42.5625 1.90625 29.7031 34.9219 c 4
 7.89062 90.9219 55.1719 126.484 67.5 151.906 c 4
 100.531 220.031 139.375 240.406 154.906 296.656 c 4
 166.75 339.562 173.781 354.734 168.078 357.516 c 4
 163.332 359.82 110.46 300.373 107.816 293.448 c 5
 84.0957 285.348 79.2861 282.856 70.75 307.938 c 4
 43.5469 387.781 131.766 423.047 141.281 441 c 5
 186.969 470.266 l 4
 213.969 476.984 250.531 484.406 281.641 456.656 c 4
 291.548 447.818 297.643 433.881 301.013 421.156 c 5
EndSplineSet
EndChar
StartChar: s
Encoding: 115 115 21
Width: 324
VWidth: 1080
Flags: HW
Fore
259.755 357.365 m 1
 256.478 353.308 253.615 347.778 255.781 340.312 c 0
 256.016 339.5 279.922 341.812 295.156 304.422 c 0
 321.25 240.344 316.906 187.078 295.656 124.922 c 0
 281.469 83.4062 261.781 49.2188 218.5 26.7969 c 0
 171.359 2.39062 106.297 -23.25 53.2812 24.4062 c 0
 13.8906 59.8281 17.4219 114.422 43.2344 152.922 c 0
 62.4062 181.531 95.1094 187.766 122.672 181.344 c 0
 150.031 174.969 149.891 166.891 150.562 156.094 c 0
 151.797 136.5 169.328 148.75 170.562 149.891 c 0
 215.703 191.578 131.562 250.594 145.219 352.328 c 0
 148.141 374 145.141 396.75 160.875 426.641 c 0
 173.453 450.547 189.422 471 217.703 483.781 c 0
 255.438 500.844 311.172 527.453 358.516 485.766 c 0
 396.328 452.469 400.453 395.406 368.141 356.922 c 0
 341.438 325.109 303.094 336.375 281.5 343.156 c 0
 271.66 346.245 264.113 352.064 259.755 357.365 c 1
EndSplineSet
EndChar
StartChar: t
Encoding: 116 116 22
Width: 338
VWidth: 1080
Flags: HW
VStem: 64 88<157 355>
Fore
359.141 499.917 m 1
 371.803 498.293 385.369 493.721 393.453 483.719 c 0
 421.609 448.844 405.266 404.969 378.594 381.297 c 0
 348.17 354.305 307.538 366.885 303.488 370.762 c 1
 262.561 307.469 238.39 305.822 208.761 195.487 c 1
 223.237 209.153 248.567 224.09 273.844 215.734 c 0
 304.984 205.453 319.141 175.859 314.719 146.312 c 0
 304.25 76.1406 242.016 57.1406 200.812 32.5312 c 0
 179.484 19.7969 152.031 -4.1875 110.25 5.67188 c 0
 74.2812 14.1562 50.5625 39.7812 41.7969 73.75 c 0
 20.5469 156 71.4844 204.781 92.5 262.547 c 0
 110.125 310.953 129.078 330.141 139.938 368.766 c 0
 142.459 377.709 l 1
 129.102 372.465 105.761 373.089 90.4062 392.484 c 0
 60.9688 429.641 84.7344 472.531 109.297 494.594 c 0
 151.344 532.391 189.719 509.156 192.812 509.547 c 1
 199.531 517.953 191.891 492.078 211.453 592.766 c 1
 213.156 600.25 216.422 605.188 222.891 609.297 c 0
 231.547 614.781 249.453 646.266 288.812 644.984 c 0
 326.766 643.766 341.703 612.594 350.453 606.406 c 1
 353.828 603.969 356.344 601.109 358.25 597.406 c 0
 383.493 548.183 372.096 514.799 359.141 499.917 c 1
EndSplineSet
EndChar
StartChar: u
Encoding: 117 117 23
Width: 510
VWidth: 1080
Flags: HW
VStem: 47 93<142 375> 291 86<127 394>
Fore
251 77 m 0
 234.981 60.0195 206.254 35.4951 170.546 22.5059 c 1
 169.523 22.1338 168.485 21.8311 167.423 21.5957 c 0
 160.977 20.1631 135.17 -5.67578 97.7236 11.21 c 0
 54.4287 30.7334 43.5947 71.6221 41.0596 108.275 c 0
 35.5352 188.16 80.2178 229.242 106.394 284.675 c 0
 115.474 303.904 130.681 322.397 139 332 c 0
 131.522 333.394 113.051 336.707 101.093 342.505 c 0
 63.1729 360.891 76.415 404.377 82.4385 421.357 c 0
 98.5508 466.782 130.538 491.055 170.672 507.194 c 0
 224.086 528.675 261.893 509 300 509 c 1
 313.631 507.484 320.066 503.93 324.055 490.809 c 0
 342.976 428.563 287.983 388.592 275.82 350.411 c 1
 275.766 350.242 l 0
 250.848 273.904 228.208 264.003 204.69 179.474 c 1
 204.955 182.365 191.901 172.582 221.416 187.646 c 1
 288.578 231.777 332.736 290.994 366.899 373.559 c 1
 367.356 374.662 367.886 375.722 368.495 376.749 c 0
 387.081 408.102 387.394 475.732 447.997 516.71 c 1
 449.291 517.584 450.643 518.326 452.076 518.946 c 0
 468.297 525.962 510.224 543.632 537.607 496.574 c 1
 539.244 493.74 540.273 490.819 540.742 487.581 c 0
 554.643 391.615 480.2 338.221 452.368 265.116 c 1
 433.068 214.276 411.648 199.62 412.979 167.02 c 0
 413.78 147.392 417.365 144.859 412.733 148.548 c 0
 411.894 149.216 430.126 226.198 488.27 220.896 c 0
 521.527 217.864 526.308 183.923 524 187 c 1
 529.418 178.872 530.777 172.279 527.371 163.124 c 0
 502.885 97.3027 464.647 67.041 424.109 32.8818 c 1
 421.779 30.9297 419.271 29.4795 416.408 28.4561 c 0
 394.453 20.6074 369.6 -9.60352 320.546 -2.75977 c 0
 294.562 0.864258 269.556 14.6074 258.655 43.0547 c 0
 255.484 51.331 251.504 69.9658 251 77 c 0
EndSplineSet
EndChar
StartChar: v
Encoding: 118 118 24
Width: 692
VWidth: 1080
Flags: HW
Fore
618.905 354.471 m 24
 617.221 369.996 594.749 374.415 591 383.188 c 0
 574.953 420.828 563.359 473.438 603.953 511.281 c 0
 642.141 546.891 699.922 546.375 737.922 511.391 c 0
 775.656 476.672 756.797 431.219 752.703 405.125 c 0
 735.188 293.781 701.984 227.969 640.812 136.141 c 0
 612.5 93.6562 590.562 53.6875 533.625 29.9219 c 0
 472.109 4.26562 419.359 6.92188 359.188 29.6094 c 0
 323.625 43.0156 316.031 63.5312 299.219 100.688 c 0
 274.641 155.016 283.844 200.344 297.953 249.859 c 0
 315.953 312.938 338.875 326.953 349.953 365.859 c 0
 356.766 389.719 358.125 395.141 352.734 403.859 c 0
 342.516 420.406 330.203 424.344 298.938 428.188 c 0
 284.062 430.016 278.859 427.266 258.078 418.125 c 0
 227.125 404.5 217.297 402.906 210.719 388.578 c 0
 204.484 374.984 197.688 351.422 214.578 353.188 c 0
 223.328 354.109 242.484 365.625 260.562 327.781 c 0
 279.125 288.891 271.172 242.25 235.047 215.031 c 0
 195.062 184.891 143.719 190.984 108.406 222.297 c 0
 58.875 266.234 65.1562 325.625 76.6094 376.484 c 0
 87.9375 426.797 117.453 452.547 149.812 480.047 c 0
 187.172 511.812 218.656 515.281 250.812 531.359 c 1
 253.656 532.766 256.531 533.594 259.688 533.891 c 0
 320.844 539.594 360.672 538.594 421.078 535.969 c 1
 424.219 535.828 427.141 535.156 430.016 533.906 c 0
 526.016 491.906 l 0
 540.016 482.953 544.594 477.109 539.75 461.219 c 0
 508.516 358.641 475.656 345 455.641 286.859 c 1
 455.578 286.688 l 1
 442.874 231.375 441.892 252.047 442 232 c 1
 445.516 222.266 432.844 193.016 465.172 180.25 c 0
 479.875 174.453 490.9 165.521 505.734 171.906 c 24
 582.679 205.029 627.941 271.188 618.905 354.471 c 24
EndSplineSet
EndChar
StartChar: w
Encoding: 119 119 25
Width: 941
VWidth: 1080
Flags: HW
Fore
884.447 330.074 m 1
 872.407 330.239 857.59 332.789 847.984 340.812 c 0
 815.438 367.969 823.422 406.328 827.328 430.078 c 0
 831.5 455.281 839.547 484.031 869.328 501.547 c 0
 899.578 519.344 943.031 529.078 976.781 498.531 c 0
 1025.11 454.781 1002.45 396.844 996.75 356.5 c 0
 988.844 300.578 966.375 271.844 946.672 229.453 c 0
 915.516 162.469 906.344 96.1875 844.609 41.3125 c 0
 796.672 -1.29688 740 2.8125 688.031 20.3125 c 0
 646.141 34.4062 624.891 63.4219 607.781 96.5312 c 0
 603.55 104.724 600.452 112.871 598.356 120.445 c 1
 587.779 107.808 572.396 91.5127 551 71.6719 c 0
 528.609 50.9062 511.297 24.125 468.891 11.9688 c 0
 430.359 0.921875 393.328 0.5 355.5 22.3594 c 0
 307.656 49.9844 300.438 88.7656 289.531 140.875 c 0
 279.859 187.047 297.234 218.297 309.641 250.891 c 0
 329.547 303.219 342.547 316.281 351.875 350.562 c 0
 358.203 373.781 358.094 374.547 357.953 374.688 c 0
 330.938 402.859 291.719 398.125 242.516 375.312 c 0
 220.297 365.016 214.062 356.438 214.922 346.031 c 0
 214.969 345.359 248.828 346.984 267.047 303.703 c 0
 278.922 275.469 288.266 237.266 261.391 204.219 c 0
 234.531 171.219 195.219 171.031 164.016 178.719 c 0
 118.703 189.891 87.9844 217.406 70.8438 259.594 c 0
 51.9375 306.109 61.125 347.047 80.5156 386.938 c 0
 109.453 446.422 147.719 481.703 208.672 506.203 c 0
 266.469 529.422 309.188 524.391 356 522 c 0
 397.312 519.891 448.141 546.672 495.984 483.016 c 0
 528.25 440.094 494.531 397.703 485.172 374.609 c 0
 462.609 318.984 449.188 306.688 435.297 270.953 c 0
 423.609 240.828 421.438 226.656 424.859 194.656 c 0
 428.688 158.828 427.922 151.672 434.328 148.766 c 0
 457.391 138.312 476.406 156.375 516.641 187.719 c 0
 538.438 204.703 542.141 225.438 564.438 256.828 c 1
 595.406 320.016 577.781 384.938 613.922 471.625 c 1
 615.531 475.422 617.766 478.484 620.922 481.141 c 0
 681.859 532.344 712.5 517.469 749.062 479.297 c 0
 800.469 425.594 759.438 361.844 749.359 318.344 c 0
 738.609 272.047 716.375 261.906 714.938 242.172 c 0
 712.328 206.562 713.328 190.297 730.766 174.547 c 0
 744.422 162.203 756.531 159.797 777.359 167.453 c 0
 820.641 183.406 821.219 224.641 860.812 271.656 c 1
 873.903 299.091 880.626 318.487 884.447 330.074 c 1
EndSplineSet
EndChar
StartChar: x
Encoding: 120 120 26
Width: 578
VWidth: 1080
Flags: HW
HStem: 471 20G<117.5 159.5>
Fore
521.844 339.766 m 5
 514.312 341.391 506.25 334.828 482.656 317.75 c 4
 451.828 295.422 440.844 280.094 424.875 243.906 c 4
 415.859 223.484 413.781 216.625 416.703 197.844 c 4
 422.938 157.766 431.828 131.422 433.938 140.922 c 4
 435.688 148.875 427.281 188.781 471.156 205.375 c 4
 494.484 214.203 537.938 218.109 556.375 181.156 c 4
 579.359 135.078 533.188 103.594 525.234 90.7969 c 4
 510.688 67.3906 500.75 34.3906 460.703 15.4062 c 4
 430.625 1.15625 397.406 -1.34375 365.875 16.1406 c 4
 334.188 33.7031 331.828 64.7031 326.797 72.75 c 5
 326.078 73.9219 325.453 75.125 324.922 76.3906 c 4
 301.828 131.875 317.867 133.659 316.156 170.469 c 28
 316.155 170.48 316.164 170.51 316.156 170.5 c 20
 296 146 292.656 137.219 262.141 100.906 c 5
 261.047 99.625 259.859 98.4688 258.547 97.4219 c 4
 207.297 56.7344 180.359 31.5156 130.172 9.15625 c 5
 126.891 7.71875 123.078 8.85938 120 7 c 4
 119.359 6.60938 85.6406 -15.2656 56.9375 14.7031 c 4
 8.42188 65.3906 20.8594 138.672 62.0938 186.359 c 4
 85.3281 213.234 124.266 222.969 156.844 203.438 c 4
 173.672 193.359 177.406 171.812 176.641 156.5 c 5
 183.672 165.297 196.25 178.578 214.391 201.516 c 4
 238.172 231.562 249.438 244.266 259.125 275.422 c 4
 274.109 323.562 284.984 342.531 270.594 360.234 c 4
 269.547 361.531 267.156 363.812 259.609 359.859 c 4
 258.719 359.391 265.797 325.188 232.438 301.594 c 4
 215.984 289.953 188.922 277.203 158.031 294.047 c 4
 107.859 321.422 146.281 380.688 158.656 401 c 4
 187.297 448.031 225.094 470.828 275.609 484.172 c 4
 308.656 492.906 329.562 480.438 345.453 478.875 c 5
 348.844 478.531 351.922 477.609 354.922 475.984 c 4
 400.891 451.062 397.125 377.25 388.75 367.75 c 5
 415.75 376.406 362.656 345.828 475.859 465.203 c 5
 478.922 468.391 482.312 470.531 486.531 471.859 c 4
 505.328 477.781 534.219 512.656 584.062 497.984 c 4
 614.047 489.156 633.344 464.922 636.828 434.875 c 4
 643.922 373.766 557.938 222.844 530.219 308.281 c 4
 525.984 321.312 523.312 331.672 521.844 339.766 c 5
EndSplineSet
EndChar
StartChar: y
Encoding: 121 121 27
Width: 397
VWidth: 1080
Flags: HW
Fore
337.179 343.828 m 1
 330.604 343.6 296.747 350.133 289.469 387.188 c 0
 282.922 420.562 305.188 443.859 325.453 455.625 c 0
 355.141 472.844 393.047 477.781 424.922 454.062 c 0
 456.766 430.359 452.328 395.031 452.984 374.812 c 0
 454.172 337.938 443 315.078 433.641 287.875 c 0
 396.641 180.234 359.906 125.375 312.516 27.1406 c 0
 302.062 5.48438 296.906 -11.0781 280.969 -35.6094 c 0
 229.25 -115.266 185.031 -147.844 131.844 -217.219 c 0
 120.188 -232.406 114.516 -241.484 102.344 -258.531 c 1
 98.9531 -263.125 95.0469 -266.078 89.6094 -267.812 c 0
 9.21875 -293.594 -6.42188 -235.719 -2.9375 -188.172 c 1
 -2.64062 -184.391 -1.64062 -181.016 0.21875 -177.719 c 0
 46.8213 -95.0098 101.669 -70.3057 146.642 -13.3486 c 1
 150.419 6.89258 162.523 84.3535 151.125 195.453 c 1
 151.094 195.766 151.078 196.078 151.047 196.375 c 0
 149.129 225.991 147.907 252.196 147.252 274.117 c 1
 141.92 267.949 136.438 265.355 128 265 c 0
 127.359 264.969 107.094 250.422 84.0781 271.609 c 0
 50.9688 302.062 61.2656 343.516 71.625 370.859 c 0
 87.7031 413.281 118.031 424.547 153.641 440.75 c 0
 185.797 455.375 195.953 456.359 214 458 c 1
 222.281 458.438 236.891 459.188 241 452 c 0
 265 410 253.645 410.905 259 384 c 24
 274.365 306.807 253.313 112.4 286 184 c 17
 332.32 278.65 305.78 256.133 336.719 324.5 c 1
 336.276 332.371 336.268 341.39 337.179 343.828 c 1
EndSplineSet
EndChar
StartChar: z
Encoding: 122 122 28
Width: 589
VWidth: 1080
Flags: HW
HStem: 470 21G<102.5 175.5>
Fore
362.859 318.146 m 0
 384.478 355.996 302.069 357.28 262.551 371.471 c 0
 224.976 384.964 221.23 390.946 216.354 387.865 c 0
 199.98 377.52 237.896 332.059 194.861 282.591 c 1
 191.813 279.149 188.38 276.843 184.04 275.328 c 0
 183.892 275.276 152.374 236.134 110.88 259.135 c 0
 58.2607 288.301 65.8613 348.423 74.5752 388.333 c 0
 83.8994 431.035 109.512 456.236 141.838 476.255 c 0
 182.45 501.404 221.161 509.539 268.138 501.655 c 0
 324.88 492.132 343.657 454.837 376.471 439.701 c 0
 401.929 427.959 406.833 422.332 419.77 422.97 c 0
 436.638 423.801 441.572 426.068 452.694 438.026 c 0
 456.968 442.621 442.047 481.864 481.935 506.314 c 0
 513.766 525.825 558.075 525.477 585.186 493.029 c 0
 618.854 452.731 599.836 406.09 581.666 374.527 c 0
 551.971 322.942 504.775 320.559 476.4 300.564 c 0
 429.74 267.684 403.354 254.198 364.989 218.66 c 0
 334.124 190.067 322.034 188.684 322.829 181.917 c 0
 324.457 168.061 338.995 166.258 379.25 150.226 c 0
 398.351 142.619 405.844 141.87 427.694 143.894 c 0
 454.443 146.371 461.873 170.622 482.428 161.313 c 0
 492.709 156.657 483.688 210.559 531.229 213.938 c 0
 570.744 216.745 585.957 179.072 592.423 161.738 c 0
 605.074 127.825 609.327 88.7227 582.922 53.8955 c 0
 554.557 16.4844 514.807 22.1035 490.509 16.6143 c 0
 446.315 6.63184 412.74 -3.7998 361.123 4.30273 c 0
 322.077 10.4307 301.771 27.2666 275.55 40.7764 c 0
 225.031 66.8037 222.271 95.4219 200.609 92.2617 c 0
 186.079 90.1426 194.176 55.2188 146.079 25.6943 c 0
 137.395 20.3623 115.814 2.48535 87.6699 13.8057 c 0
 55.6279 26.6953 33.4434 57.9736 40.4199 95.5625 c 0
 55.0811 174.559 135.398 182.001 174.666 209.482 c 0
 233.289 250.51 314.734 279.458 362.859 318.146 c 0
EndSplineSet
EndChar
StartChar: bar
Encoding: 124 124 30
Width: 318
VWidth: 1080
Flags: HW
VStem: 71 112<402 534.248>
Fore
184.464 55.8008 m 4
 197.406 158.972 249.956 269.581 302.156 413 c 4
 343.506 526.606 421.989 709.492 360.033 747.36 c 4
 332.476 764.205 237.004 745.771 244.869 700.697 c 5
 75.7041 235.919 140.462 388.376 21.5576 65.1172 c 5
 -27.7969 2.41016 173.199 -34.0068 184.464 55.8008 c 4
EndSplineSet
EndChar
StartChar: braceright
Encoding: 125 125 31
Width: 310
Flags: HW
Fore
186.14 371.185 m 1
 157.897 349.842 109.148 308.292 106.094 256.661 c 0
 100.781 167.079 145.453 151.092 100.312 99.5098 c 0
 93.2969 91.4941 59.625 110.584 27.4844 73.8604 c 0
 14.2969 58.7939 2.89062 26.2266 32 9.76465 c 0
 79.9375 -17.3398 133.016 19.5322 166.812 46.0723 c 0
 233.953 98.7832 242.672 165.609 234.625 221.496 c 0
 228.156 266.384 208.625 272.885 222.734 293.8 c 0
 255.656 342.518 248.078 319.762 322.328 346.421 c 0
 348.891 355.951 344.672 359.914 334.438 385.074 c 1
 292.344 430.199 278.25 425.375 287.641 470.129 c 0
 292.75 494.487 314.875 510.549 348.812 543.725 c 0
 402.016 595.736 445.141 684.755 393.016 741.235 c 0
 360.016 776.979 302.375 763.322 265.469 735.684 c 0
 253.109 726.436 241.266 708.342 252.359 688.703 c 0
 266.125 664.3 322.406 707.732 305.984 685.438 c 0
 270.266 636.928 244.891 609.349 181.266 479.064 c 0
 157.496 430.393 173.006 388.478 186.14 371.185 c 1
EndSplineSet
EndChar
StartChar: asciitilde
Encoding: 126 126 32
Width: 376
VWidth: 1000
Flags: HW
Fore
201.203 429.359 m 0
 238.594 427.094 254.922 407.188 271.547 400.469 c 0
 299.562 389.156 301.094 383.734 306.062 384.391 c 0
 307.75 384.609 321.281 425.188 365.625 424.688 c 0
 393.391 424.391 429.969 408.359 432.719 369.641 c 0
 435.203 334.594 398.109 322.906 397.188 322.188 c 0
 373.078 303.453 350.828 271 301.703 268.625 c 0
 232.578 265.266 217.391 320.281 193.641 319.312 c 0
 191.281 319.203 168.766 275.984 124.969 283.062 c 0
 94.3594 288 68.5 312.953 69.1875 347.141 c 0
 69.9531 385.406 105.484 398.062 117.188 405.156 c 0
 142.328 420.406 167.438 431.406 201.203 429.359 c 0
EndSplineSet
EndChar
StartChar: uni007F
Encoding: 127 127 33
Width: 1597
VWidth: 1000
Flags: W
Fore
1371.96 532 m 8
 1380.35 515.228 1391.96 514 1405.96 498 c 8
 1418.83 483.29 1444.23 503.312 1449.96 522 c 24
 1460.47 556.264 1401.42 568.394 1407.82 603.657 c 24
 1410.29 617.322 1429.95 614.338 1434.21 627.557 c 24
 1437.59 638.057 1437.72 649.521 1428.27 655.21 c 24
 1411.89 665.073 1398.66 649.408 1381.08 641.886 c 24
 1369.86 637.083 1365.86 629.344 1354.13 625.967 c 24
 1328 618.448 1311.56 622.073 1284.45 624.086 c 24
 1249.17 626.704 1221.04 615.811 1195.13 639.894 c 24
 1182.27 651.839 1188.83 666.617 1184.07 683.507 c 24
 1180.37 696.618 1187.21 715.041 1173.72 716.866 c 24
 1158.17 718.969 1158.39 697.328 1152.02 682.991 c 24
 1145.3 667.889 1150.17 655.754 1140.84 642.112 c 24
 1114.65 603.82 1078.42 603.741 1045.27 571.282 c 24
 1010.99 537.713 980.257 520.862 969.962 474 c 16
 954.754 404.771 959.342 390.006 955.726 336.035 c 24
 953.036 295.893 954.748 287.21 952.529 232.924 c 8
 951.358 204.268 984.951 201.705 1008.03 184.678 c 24
 1035.9 164.114 1055.17 157.783 1083.48 137.826 c 16
 1095.68 129.227 1107.54 121.431 1117.96 113.729 c 0
 1128.87 105.673 1138.2 97.7197 1144.73 89.0605 c 8
 1155.14 75.249 1166.52 105.118 1179.96 116 c 24
 1188.9 123.231 1192.16 129.855 1202.35 135.168 c 24
 1221.35 145.067 1236.17 139.729 1255.52 148.91 c 24
 1271.36 156.424 1307.94 168.776 1291.76 175.503 c 16
 1266.98 185.8 1258.71 174.989 1237.61 175.727 c 24
 1220.3 176.331 1194.51 161.366 1193.3 178.643 c 16
 1189.95 226.525 1189.98 304.464 1195.91 384.559 c 24
 1200.2 442.432 1207.2 485.275 1215.96 532 c 0
 1224.11 575.479 1291.96 574 1339.96 566 c 0
 1357.75 563.036 1365.96 544 1371.96 532 c 8
771.962 516 m 0
 763.962 538 755.45 587.645 735.962 630 c 24
 710.042 686.333 702.837 729.547 651.962 765 c 24
 607.533 795.961 570.094 791.506 515.962 793 c 24
 478.912 794.022 457.465 789.644 421.962 779 c 24
 364.3 761.714 333.05 745.84 281.962 714 c 24
 213.006 671.024 173.902 643.764 119.962 583 c 24
 87.8516 546.828 73.9629 522.039 53.9619 478 c 24
 42.1758 452.049 37.2686 436.175 32.9619 408 c 24
 23.0615 343.228 19.5137 304.517 30.9619 240 c 24
 41.8965 178.381 44.8613 135.373 87.9619 90 c 24
 131.979 43.6611 175.92 39.3506 237.962 24 c 24
 313.108 5.40723 358.562 8.62988 435.962 10 c 24
 472.823 10.6523 496.064 5.50391 529.962 20 c 24
 578.813 40.8916 597.962 62 633.962 108 c 8
 671.171 155.545 680.223 171.326 727.962 231 c 0
 735.962 241 754.592 296.152 759.962 292 c 0
 778.04 278.02 790.669 149.135 817.962 123 c 8
 862.034 80.7979 892.234 58.7715 949.962 39 c 24
 1041.12 7.77734 1099.73 10.9834 1195.96 16 c 24
 1259.51 19.3135 1298.81 20.0215 1355.96 48 c 24
 1390.23 64.7764 1405.36 82.833 1429.96 112 c 24
 1483.44 175.396 1522.4 212.943 1539.96 294 c 16
 1565.96 414 1590.7 466.553 1565.96 582 c 0
 1553.96 638 1541.44 666.726 1505.96 708 c 24
 1476.49 742.289 1452.57 757.866 1409.96 773 c 24
 1338.39 798.421 1291.65 796.265 1215.96 790 c 24
 1166.19 785.881 1138.51 776.104 1091.96 758 c 24
 1028.55 733.336 992.215 717.067 937.962 676 c 16
 877.045 629.889 803.962 510 783.962 474 c 0
 780.927 468.536 776.581 503.298 771.962 516 c 0
811.962 376 m 24
 821.594 466.938 866.146 511.15 923.962 582 c 24
 960.711 627.033 988.398 647.637 1037.96 678 c 24
 1093.55 712.055 1127.84 731.223 1191.96 743 c 24
 1266.42 756.678 1314.98 762.345 1385.96 736 c 24
 1423.42 722.097 1445.86 706.53 1465.96 672 c 24
 1513.25 590.767 1510.25 527.785 1503.96 434 c 24
 1496.72 325.912 1478.92 261.353 1423.96 168 c 24
 1402.97 132.351 1385.74 112.768 1349.96 92 c 24
 1309.55 68.543 1280.53 65.8818 1233.96 62 c 24
 1198.07 59.0078 1177.35 63.29 1141.96 70 c 24
 1077.22 82.2764 1036.34 83.8848 979.962 118 c 24
 916.724 156.268 885.245 190.178 847.962 254 c 24
 822.938 296.835 806.736 326.668 811.962 376 c 24
345.962 64 m 24
 296.333 65.9043 268.032 74.4502 221.962 93 c 24
 181.57 109.263 152.416 115.415 125.962 150 c 24
 81.6973 207.87 79.4336 257.225 75.9619 330 c 24
 73.6211 379.06 77.1035 409.534 97.9619 454 c 24
 128.754 519.644 162.766 548.983 217.962 596 c 24
 285.885 653.857 327.817 690.761 413.962 714 c 24
 464.424 727.613 499.385 731.287 547.962 712 c 24
 594.143 693.664 614.677 667.526 641.962 626 c 24
 678.67 570.132 681.644 528.826 697.962 464 c 24
 711.077 411.896 727.485 381.2 719.962 328 c 24
 712.291 273.761 693.19 244.551 659.962 201 c 24
 620.703 149.546 592.769 120.029 533.962 93 c 24
 466.555 62.0166 420.095 61.1562 345.962 64 c 24
339.962 606 m 16
 388.274 608.426 391.193 606.348 423.933 605.534 c 24
 452.688 604.819 468.883 600.958 497.617 602.28 c 24
 517.891 603.213 529.927 602.905 549.175 609.341 c 24
 567.188 615.364 571.421 621.387 591.697 633.085 c 8
 598.195 636.834 599.409 624.186 603.513 617.906 c 24
 608.235 610.68 616.27 606.784 614.053 598.44 c 24
 611.896 590.321 600.206 594.208 595.746 587.09 c 24
 592.73 582.277 592.117 577.875 594.238 572.607 c 24
 601.064 555.654 627.202 560.419 630.033 542.364 c 24
 631.658 531.997 623.363 526.796 615.78 519.542 c 24
 605.618 509.822 598.281 503.938 584.38 501.82 c 24
 557.747 497.762 543.746 514.988 516.838 516.312 c 24
 466.104 518.807 411.986 512.04 387.424 501.616 c 0
 370.752 494.541 387.782 475.727 388.808 459.212 c 24
 389.972 440.463 391.353 433.26 393.204 411.247 c 8
 396.169 375.995 448.613 409.478 483.688 404.862 c 24
 522.608 399.741 572.003 423.557 582.511 385.732 c 24
 586.45 371.553 564.56 371.192 554.47 360.479 c 24
 542.345 347.606 542.614 331.6 526.195 325.031 c 24
 504.896 316.511 490.738 330.664 467.921 333.033 c 24
 448.728 335.025 434.029 348.059 418.566 336.516 c 24
 398.949 321.871 407.338 299.598 405.002 275.229 c 24
 401.465 238.334 395.03 216.607 407.538 180.227 c 8
 412.054 167.094 394.255 162.82 383.783 153.698 c 24
 372.198 143.606 366.468 131.318 351.108 131.69 c 24
 332.904 132.131 328.321 148.777 313.69 159.617 c 24
 294.629 173.739 288.112 191.903 264.688 195.655 c 24
 248.351 198.272 238.976 190.225 224.368 182.453 c 24
 211.122 175.406 203.73 170.251 194.011 158.822 c 24
 187.539 151.213 191.63 137.654 181.727 136.348 c 24
 173.361 135.244 173.391 146.744 166.783 151.991 c 24
 161.152 156.463 149.049 154.432 150.912 161.377 c 16
 159.49 193.353 172.578 208.039 198.654 224.629 c 24
 236.847 248.928 273.499 237.826 312.197 248.711 c 8
 331.72 254.202 322.689 279.193 323.559 299.455 c 24
 324.395 318.952 326.559 332.115 316.846 349.042 c 24
 311.623 358.145 305.637 362.404 295.646 365.613 c 24
 284.407 369.223 277.186 365.108 265.407 364.343 c 24
 247.438 363.175 229.912 345.664 219.411 360.294 c 24
 212.852 369.433 225.202 377.068 231.001 386.708 c 24
 240.684 402.805 245.146 414.237 260.896 424.473 c 24
 269.424 430.014 276.039 429.905 286.154 430.957 c 24
 293.308 431.7 299.077 425.509 304.576 430.144 c 24
 331.587 452.908 308.976 485.374 315.962 520 c 24
 322.849 554.134 305.185 604.254 339.962 606 c 16
1125.51 201.97 m 8
 1121.72 180.574 1091.35 207.956 1072.24 218.294 c 24
 1049.43 230.63 1017.85 235.116 1021.15 260.834 c 16
 1028.93 321.524 1025.97 350.614 1030.91 407.873 c 24
 1035.13 456.807 1037.3 488.516 1044.21 533.105 c 8
 1046.93 550.699 1066.8 549.588 1082.58 557.843 c 24
 1095.69 564.704 1103.13 575.196 1117.65 572.324 c 24
 1129.85 569.91 1139.07 562.227 1140.28 549.848 c 16
 1143.96 512 1141.21 518.246 1140.9 498.044 c 24
 1140.06 442.32 1137.72 410.931 1134.84 355.274 c 24
 1131.75 295.454 1135.57 258.811 1125.51 201.97 c 8
EndSplineSet
EndChar
StartChar: cent
Encoding: 162 162 35
Width: 362
VWidth: 1000
Flags: HW
VStem: 216.3 40.0981<554.326 615.338>
Fore
219.337 165.288 m 1
 206.062 165.083 192.383 166.5 178.206 169.499 c 0
 135.706 178.468 122.925 205.562 103.706 218.905 c 1
 100.05 221.515 97.7217 224.452 96.4248 228.374 c 0
 74.2061 295.687 89.1436 342.921 111.956 394.562 c 1
 112.878 396.608 114.128 398.437 115.8 400.108 c 0
 166.019 450.374 179.206 510.312 265.019 547.187 c 0
 271.426 549.938 277.742 552.196 284 554 c 1
 288.501 578.086 293.633 604.032 299.722 633.015 c 1
 300.628 637.265 301.909 640.671 303.753 643.608 c 0
 332.003 688.53 367.128 700.265 388.55 649.437 c 1
 391.69 641.077 392.597 634.14 390.925 624.374 c 0
 378.178 551.864 l 1
 396.613 547.211 422.129 538.814 429.784 513.343 c 0
 440.128 478.89 424.675 435.28 377.222 424.562 c 0
 367.83 422.441 359.727 423.255 352.905 425.561 c 1
 329.44 323.671 l 0
 321.743 291.378 l 1
 331.27 288.463 340.118 282.713 345.862 271.999 c 0
 366.784 232.968 325.378 205.343 302.034 190.624 c 0
 299.136 188.794 296.227 187.064 293.304 185.436 c 1
 272.956 110.765 l 1
 272.019 107.296 270.8 104.452 269.19 102.015 c 0
 260.315 88.6084 236.565 52.9834 217.503 83.1709 c 1
 213.128 91.1084 211.534 97.9365 212.737 109.187 c 0
 215.154 131.764 217.324 150.012 219.337 165.288 c 1
262.359 425.048 m 1
 248.478 408.672 216.188 392.731 202.503 361.265 c 1
 192.159 336.64 186.362 327.687 190.987 310.343 c 1
 191.394 308.812 191.581 307.249 191.519 305.655 c 0
 190.956 288.437 223.331 280.062 239.128 278.28 c 1
 241.94 294.421 l 0
 262.359 425.048 l 1
EndSplineSet
EndChar
StartChar: sterling
Encoding: 163 163 36
Width: 738
VWidth: 1080
Flags: HW
HStem: 325.666 132.626<327 371>
VStem: 201.119 124.881<445.798 582.018> 201.119 126.789<446.225 458.293>
Fore
279.314 299.646 m 0
 278.529 299.653 277.363 299.667 275.781 299.679 c 1
 276.021 300.23 l 2
 259.439 302.277 201.855 311.149 174.719 347.99 c 0
 147.953 384.342 183.562 427.278 214.125 445.133 c 0
 289.672 489.232 330.656 472.189 345.531 472.343 c 1
 348.078 478.988 379.781 519.214 384.047 576.773 c 0
 384.578 584.124 338.109 607.705 365.531 663.963 c 0
 388.531 711.11 433.609 737.586 480.875 747.876 c 0
 611.828 776.372 708.938 741.674 760.922 645.236 c 0
 769.547 629.25 788.5 509.521 718.766 526.732 c 0
 592.438 557.924 640.938 613.371 591.578 602.101 c 0
 581.594 599.819 569.109 586.497 560.641 573.268 c 2
 530.188 486.767 l 1
 530 483.857 516.094 485.955 539.438 483.75 c 0
 568.359 481.01 623.859 491.958 648.531 443.907 c 0
 663.578 414.63 662.281 369.948 623.672 342.508 c 0
 554.062 293.003 488.344 303.492 462.047 303.17 c 1
 439.344 244.063 377.078 213.179 335.812 118.808 c 1
 413.094 97.9824 451.328 91.0459 578.547 138.361 c 1
 592.312 172.447 581.312 204.145 617.844 268.426 c 0
 650.734 326.292 722.875 294.105 744 297.367 c 1
 768.75 293.875 775.359 293.462 772.531 269.115 c 0
 759.203 154.517 750.312 146.829 690.297 22.5684 c 1
 689.25 13.7793 666.75 4.48438 659.594 9.88965 c 0
 658.859 10.4258 625.5 20.4404 611.844 22.1855 c 1
 359.109 8.60352 361.406 -8.34766 51.2812 22.4004 c 1
 42.1562 23.748 36.5 26.9941 31.9531 34.8643 c 0
 9.1875 74.2334 30.5781 92.96 69.4844 133.201 c 1
 74.4375 138.07 79.5156 140.506 86.5156 140.827 c 0
 164.562 144.41 132.531 131.119 160.484 148.729 c 0
 260.975 212.025 280.177 283.941 279.314 299.646 c 0
EndSplineSet
EndChar
StartChar: currency
Encoding: 164 164 37
Width: 574
VWidth: 1080
Flags: HW
Fore
267.111 92.1611 m 0
 271.513 88.9443 278.118 87.9082 303.351 102.322 c 0
 340.128 123.33 346.183 148.932 375.527 202.607 c 0
 411.915 269.16 430.038 302.147 439.179 371.714 c 0
 443.975 408.219 444.721 410.916 441.849 413.829 c 0
 435.65 420.123 428.164 422.686 404.751 413.98 c 0
 361.193 397.79 348.727 370.649 316.948 315.392 c 0
 280.444 251.915 268.242 216.447 264.701 144.263 c 0
 262.633 102.125 261.699 96.1162 267.111 92.1611 c 0
333.782 482.508 m 1
 340.312 485.453 l 0
 391.235 507.361 448.198 512.519 496.003 476.386 c 1
 514.752 487.372 541.917 510.39 584.062 497.984 c 0
 614.047 489.156 633.344 464.922 636.828 434.875 c 0
 643.922 373.766 557.938 222.844 530.219 308.281 c 0
 529.115 311.678 528.117 314.893 527.22 317.934 c 1
 522.169 278.758 513.047 245.024 499.127 211.211 c 1
 520.383 212.347 544.007 205.945 556.375 181.156 c 0
 579.359 135.078 533.188 103.594 525.234 90.7969 c 0
 510.688 67.3906 500.75 34.3906 460.703 15.4062 c 0
 430.625 1.15625 397.406 -1.34375 365.875 16.1406 c 0
 361.976 18.3018 358.521 20.6664 355.45 23.1667 c 1
 353.25 22.5 l 0
 298.867 6.48825 247.111 17.3335 206.007 55.4724 c 1
 182.232 37.153 160.426 22.6351 130.172 9.15625 c 1
 126.891 7.71875 123.078 8.85938 120 7 c 0
 119.359 6.60938 85.6406 -15.2656 56.9375 14.7031 c 0
 8.42188 65.3906 20.8594 138.672 62.0938 186.359 c 0
 85.3281 213.234 124.266 222.969 156.844 203.438 c 0
 162.419 200.098 166.558 195.5 169.571 190.287 c 1
 172.475 244.38 187.655 281.103 212 328 c 0
 219.656 343.201 l 1
 212 338 l 0
 195.547 326.359 168.484 313.609 137.594 330.453 c 0
 87.4219 357.828 125.844 417.094 138.219 437.406 c 0
 166.859 484.438 215.484 484.656 266 498 c 0
 292.191 504.922 316.792 489.841 333.782 482.508 c 1
EndSplineSet
EndChar
StartChar: yen
Encoding: 165 165 38
Width: 595
VWidth: 1080
Flags: HW
HStem: 102.523 95.9823<444.786 510.786> 239.333 96.2882<446.286 512.286>
Fore
485.406 331.602 m 1
 473.172 311.672 l 1
 469.714 304.752 l 1
 500.658 301.598 535.088 295.022 561.312 272.375 c 0
 592.156 245.75 605.484 208.797 571.141 176.625 c 0
 520.469 129.174 440.623 132.886 377.575 132.194 c 1
 376.419 128.189 375.137 123.462 373.625 117.734 c 1
 389.391 114.375 416.25 106.062 423.984 94.9531 c 0
 443.344 67.1406 421.688 35.7188 421.797 36.4688 c 1
 418.484 23.9688 414.125 18.4219 400.469 16.4219 c 0
 325.297 5.39062 309.578 6.125 253.516 5.03125 c 0
 195.734 3.92188 167.703 7.82812 107.734 10.6406 c 1
 97.1094 11.8281 91.2031 15.0781 86.3906 23.9688 c 0
 79.3438 36.9375 70.9062 58.6094 79.0938 83.5312 c 1
 81.4688 90.0469 85.0625 94.3125 91.6406 97.4531 c 0
 142.375 121.766 171.922 100.047 178.516 107.031 c 1
 183.926 115.929 188.865 124.678 193.417 133.365 c 1
 157.353 139.311 123.477 151.705 95.7031 176 c 0
 61.7188 205.734 74.125 241.766 106.875 265.438 c 0
 151.092 297.399 204.283 297.921 250.896 297.567 c 1
 260.676 333.661 l 1
 227.033 339.996 195.531 352.318 169.422 375.156 c 0
 135.438 404.891 147.844 440.922 180.594 464.594 c 0
 215.966 490.162 257.081 495.61 295.977 496.586 c 1
 302.632 538.075 299.794 541.096 301.016 564.844 c 1
 310.312 562.859 264.234 575.797 264.188 575.781 c 0
 257.172 573.828 259.719 558.422 227.844 536.516 c 0
 219.016 530.469 198.078 502.516 159.766 510.141 c 0
 121.562 517.75 112.25 556.188 109.656 559.141 c 1
 102.297 569.609 100.844 576.391 108.25 586.844 c 0
 187.75 699.219 190.562 675.5 204.781 693.688 c 1
 205.219 694.266 205.688 694.797 206.188 695.344 c 0
 248.188 740.031 l 0
 250.391 742.344 252.859 744.141 255.844 745.531 c 0
 271.641 752.875 391.281 784.594 463.797 723.312 c 1
 468.641 719.016 471.219 714.531 471.875 708.359 c 0
 477.5 655.406 480.953 614.547 482.75 583.156 c 1
 501.25 600.438 526.578 621.031 560.891 645.688 c 1
 680.109 747.438 l 0
 682.953 749.844 686.047 751.5 689.734 752.547 c 0
 750.812 769.828 814.453 786.516 887.641 761.438 c 1
 897.922 757.062 902 752.109 903.891 741.734 c 0
 913.891 641.188 l 0
 914.344 635.594 913.203 630.969 909.906 626.281 c 0
 878.781 581.922 832.812 562.188 766.734 589.891 c 1
 765.844 590.266 764.984 590.688 764.141 591.156 c 0
 729.391 610.562 728.906 622.391 719.594 621.484 c 0
 662.641 615.953 649.781 570.312 598.484 510.891 c 0
 586.376 496.382 l 1
 603.778 491.545 620.64 483.959 635.031 471.531 c 0
 665.875 444.906 679.203 407.953 644.859 375.781 c 0
 602.985 336.557 541.179 332.29 485.406 331.602 c 1
EndSplineSet
EndChar
StartChar: brokenbar
Encoding: 166 166 39
Width: 273
VWidth: 1080
Flags: HW
Fore
295.541 429.163 m 0
 282.59 427.12 266.943 423.48 245.998 420.119 c 0
 218.495 415.706 196.193 417.725 179.297 416.684 c 1
 153.262 423.934 153.952 423.016 154.216 450.04 c 0
 247 710 l 1
 240.118 749.446 318.549 769.025 354.355 747.132 c 0
 418.837 707.705 356.161 555.684 315.924 445.4 c 1
 311.468 435.432 306.327 430.864 295.541 429.163 c 0
265.113 310.022 m 0
 233.082 208.272 193.348 126.616 183.441 47.6943 c 0
 172.863 -36.5869 -23.9805 13.2412 23.0664 73.0068 c 1
 111.832 325.772 l 0
 118.785 339.366 124.254 343.772 139.441 342.163 c 0
 161.316 339.819 194.863 342.429 231.238 343.788 c 0
 241.238 344.085 l 0
 266.77 336.022 273.16 335.554 265.113 310.022 c 0
EndSplineSet
EndChar
StartChar: section
Encoding: 167 167 40
Width: 451
Flags: HW
Fore
405.625 597.547 m 0
 389.875 567.969 361.25 550.766 355.406 509.484 c 0
 347.672 454.906 394.406 454.188 419.062 376.578 c 0
 440.25 309.922 493.75 259.016 460.734 154.469 c 0
 429.656 56.0781 367.828 21.4375 333.172 -9.28125 c 1
 338.625 -37.7969 349.547 -101.297 284 -178.219 c 0
 238.703 -231.359 184.031 -254.609 123.547 -258.938 c 0
 61.2812 -263.391 0.328125 -252.219 -9.34375 -183.484 c 0
 -13.7656 -152 8.10938 -124.797 31.7656 -108.438 c 0
 69.0469 -82.6406 105.203 -85.125 134.656 -92.8125 c 0
 181.781 -105.094 165.469 -138.641 166.297 -138.562 c 0
 175.844 -137.547 174.672 -124.219 182.672 -92.8125 c 0
 196.953 -36.875 192.562 -12 180.922 39.4844 c 0
 163.344 117.328 170.062 144.781 109.438 189.953 c 0
 53.3438 231.75 42.3438 299.188 78.6406 371.25 c 0
 115.422 444.297 190.719 443.062 222.656 483.5 c 0
 265.875 538.219 228.047 601.141 301.625 672 c 0
 348.922 717.547 402.047 738 457.906 732.891 c 0
 506.562 728.453 575.734 702.766 553.359 631.516 c 0
 538.594 584.5 487.859 563.656 449.141 560.109 c 0
 405.812 556.125 410.375 606.469 405.625 597.547 c 0
242.553 364.656 m 1
 225.877 341.136 192.239 308.226 226 250 c 1
 228.062 230.336 276.039 249.422 304 180 c 0
 318.977 142.828 294.7 118.621 309.794 122.254 c 1
 327.783 104.877 341.479 96.1221 348.108 87.2988 c 1
 377.795 188.514 367.714 171.148 334.263 220.387 c 1
 279.369 262.524 255.232 306.74 242.553 364.656 c 1
EndSplineSet
EndChar
StartChar: dieresis
Encoding: 168 168 41
Width: 418
VWidth: 1080
Flags: HW
Fore
345.151 313.9 m 24
 391.567 301.573 434.801 308.134 463.951 346.3 c 24
 492.073 383.121 485.152 423.902 463.951 465.1 c 24
 447.37 497.317 424.584 519.1 388.351 519.1 c 24
 352.117 519.1 329.33 497.317 312.751 465.1 c 24
 291.551 423.902 295.02 389.105 312.751 346.3 c 24
 319.59 329.79 327.879 318.486 345.151 313.9 c 24
118.151 313.9 m 24
 164.567 301.573 207.801 308.134 236.951 346.3 c 24
 265.073 383.121 258.152 423.902 236.951 465.1 c 24
 220.37 497.317 197.584 519.1 161.351 519.1 c 24
 125.117 519.1 102.33 497.317 85.751 465.1 c 24
 64.5498 423.902 68.0205 389.105 85.751 346.3 c 24
 92.5898 329.79 100.879 318.486 118.151 313.9 c 24
EndSplineSet
EndChar
StartChar: copyright
Encoding: 169 169 42
Width: 354
VWidth: 1000
Flags: HW
Fore
283.264 293.367 m 4
 268.557 289.477 261.256 305.355 261.215 305.367 c 4
 252.473 307.816 248.617 307.307 244.574 304.711 c 5
 229.164 290.777 228.971 284.098 220.668 261.721 c 5
 216.256 249.404 213.777 244.934 215.752 236.262 c 5
 215.928 235.488 216.004 234.715 215.98 233.918 c 4
 215.74 225.305 217.604 221.121 224.348 220.225 c 5
 224.863 220.154 226.182 219.492 225.859 219.896 c 4
 224.465 221.625 227.33 226.113 240.455 227.033 c 4
 244.709 227.332 262.814 232.547 269.887 217.084 c 4
 278.811 197.572 261.145 183.762 251.189 176.396 c 4
 234.889 164.332 217.709 161.039 198.355 165.832 c 4
 180.221 170.32 174.766 183.867 166.568 190.535 c 5
 165.01 191.842 164.014 193.312 163.463 195.27 c 4
 153.982 228.926 160.352 252.545 170.09 278.367 c 5
 170.482 279.393 171.016 280.301 171.725 281.139 c 4
 193.152 306.275 198.783 336.24 235.393 354.68 c 4
 250.82 362.449 265.018 362.344 280.434 357.949 c 4
 288.174 355.74 301.949 352.371 305.693 337.758 c 4
 310.105 320.531 303.514 298.729 283.264 293.367 c 4
134.844 64.585 m 4
 139.733 61.0107 147.073 59.8594 175.109 75.875 c 4
 215.973 99.2168 238.7 127.663 271.306 187.303 c 4
 311.736 261.251 331.873 297.903 342.029 375.199 c 4
 347.358 415.76 332.187 418.757 328.996 421.994 c 4
 322.108 428.987 297.791 431.834 271.776 422.162 c 4
 223.379 404.173 209.526 374.017 174.218 312.619 c 4
 133.658 242.09 120.1 202.681 116.165 122.476 c 4
 113.867 75.6562 128.83 68.9795 134.844 64.585 c 4
74.2002 52.4453 m 4
 36.7256 90.4443 41.9639 134.646 43.0098 172.688 c 4
 44.6367 231.873 60.127 270.029 85.8105 319.517 c 4
 117.283 380.158 136.618 443.617 214.119 476.964 c 4
 268.205 500.237 329.088 504.612 378.59 460.702 c 4
 415.66 427.819 406.452 384.667 404.97 354.762 c 4
 400.312 260.865 378.214 201.098 331.579 121.377 c 4
 307.647 80.4668 288.224 32.0264 227.062 14.0176 c 4
 170.17 -2.73242 116.154 9.9043 74.2002 52.4453 c 4
EndSplineSet
EndChar
StartChar: ordfeminine
Encoding: 170 170 43
Width: 280
Flags: HW
Fore
176.961 396.391 m 0
 186.234 391.719 194.695 402.758 214.422 418.898 c 0
 239.25 439.227 248.102 454.453 263.141 484.781 c 0
 271 500.633 274.977 505.258 273.078 514.789 c 0
 272.078 519.797 271.227 519.867 270.312 520.094 c 0
 259.242 522.859 253.742 516.312 236.984 503.344 c 0
 218.078 488.703 212.789 476.172 197.914 452.562 c 0
 186.641 434.68 179.734 428.586 177.727 413.57 c 0
 175.805 399.227 175.836 396.953 176.961 396.391 c 0
228.367 361.631 m 1
 227.891 361.093 227.384 360.571 226.844 360.07 c 0
 218.031 351.883 211.969 340.102 194.133 332.688 c 0
 177.875 325.922 163.766 325.953 148 328.945 c 0
 134.477 331.516 116.289 333.539 104.805 351.492 c 0
 90.4766 373.898 97.8828 394.891 102.172 413.094 c 0
 111.562 452.977 127.039 475.047 150.383 505.789 c 0
 171.547 533.664 187.609 551.555 219 570 c 0
 235.375 579.625 250.453 588.016 273.062 586.703 c 0
 302.047 585.023 308.461 572.836 312.969 567.648 c 0
 314.969 565.352 319.938 587.82 339.703 585.648 c 0
 358.258 583.617 366.852 567.641 368.719 553.914 c 1
 368.875 552.789 368.875 551.688 368.727 550.562 c 0
 362.531 504.398 336.273 485.375 322.961 451.641 c 1
 322.781 451.195 l 0
 311.953 426.594 301.375 420.57 302.773 406.461 c 0
 303.086 403.312 309.406 405.445 310.211 396.93 c 0
 310.484 394.047 318.953 403.086 328.102 387.578 c 0
 336.641 373.109 329.742 359.352 325.305 351.234 c 0
 319.547 340.695 310.703 334.383 300.852 330.57 c 0
 285.359 324.57 264.992 316.117 244.406 329.82 c 0
 231.344 338.521 229.136 351.384 228.367 361.631 c 1
52.3809 229.627 m 24
 46.9834 244.621 56.8125 262.954 74.0781 276.877 c 24
 106.839 303.294 132.429 291.229 169.198 297.127 c 24
 194.155 301.131 209.997 307.176 232.405 303.877 c 24
 252.012 300.99 268.32 300.446 274.535 283.627 c 24
 280.83 266.586 277.59 247.134 259.38 229.627 c 24
 228.527 199.966 198.077 203.984 161.803 202.627 c 24
 113.495 200.819 66.2832 191.001 52.3809 229.627 c 24
EndSplineSet
EndChar
StartChar: logicalnot
Encoding: 172 172 45
Width: 373
Flags: HW
Fore
261 216 m 1
 221.051 197.813 85.4443 174.76 63.5781 235.531 c 0
 50.5781 271.625 73.6406 304.938 100.328 326.469 c 0
 153.391 369.234 199.391 352.344 238.891 358.688 c 0
 269.047 363.516 294.062 373.141 330.766 367.734 c 0
 348.859 365.078 392.672 364.766 406.891 324.281 c 0
 433.391 248.859 379.156 191.25 350.047 121.391 c 0
 331.25 76.2656 223.344 57.8438 206.172 109.047 c 0
 201.955 121.609 253.35 197.71 261 216 c 1
EndSplineSet
EndChar
StartChar: registered
Encoding: 174 174 47
Width: 462
VWidth: 1000
Flags: HW
VStem: 239.3 10.8337<222.066 239.705>
Fore
90.75 70.4375 m 0
 43.9062 108.438 50.4531 152.641 51.7656 190.688 c 0
 53.7969 249.875 73.1562 288.031 105.266 337.516 c 0
 144.609 398.156 168.781 461.625 265.656 494.969 c 0
 333.266 518.234 409.359 522.609 471.234 478.703 c 0
 517.578 445.812 506.062 402.672 504.219 372.766 c 0
 498.391 278.859 470.766 219.094 412.469 139.375 c 0
 382.562 98.4688 358.281 50.0312 281.828 32.0156 c 0
 210.719 15.2656 143.188 27.9062 90.75 70.4375 c 0
405.158 318.906 m 1
 414.185 340.678 420.746 364.05 425.531 393.203 c 0
 432.203 433.766 413.234 436.75 409.25 440 c 0
 400.641 446.984 370.234 449.828 337.719 440.156 c 0
 277.219 422.172 259.906 392.016 215.781 330.625 c 0
 165.078 260.094 148.125 220.688 143.203 140.469 c 0
 140.344 93.6562 159.047 86.9844 166.562 82.5781 c 0
 172.672 79.0156 181.844 77.8594 216.891 93.875 c 0
 267.969 117.219 296.375 145.656 337.141 205.297 c 0
 366.009 247.546 386.601 277.623 401.316 310.059 c 0
 397.701 303.381 393.145 297.692 390.234 293.156 c 0
 388.047 289.75 380.609 271.031 361.922 272.969 c 0
 346.609 274.562 353.828 279.25 349.141 290.906 c 0
 340.938 311.297 326.906 265.156 302.719 232.906 c 0
 282.938 206.531 278.422 184.906 254.531 154.656 c 0
 248.578 147.125 242.641 126.781 219.719 123.062 c 0
 203.453 120.422 188.5 126.344 182.062 142.859 c 0
 171.156 170.859 194.797 188.641 200.969 201.344 c 0
 217.484 235.406 236.906 245.594 244.672 273.719 c 0
 250.594 295.188 254.109 302.766 251.25 304.156 c 0
 248.875 305.312 222.438 275.578 221.125 272.125 c 1
 209.266 268.078 206.859 266.828 202.594 279.375 c 0
 188.984 319.281 233.094 336.922 237.859 345.906 c 1
 260.703 360.531 l 0
 274.203 363.891 292.484 367.594 308.031 353.719 c 0
 312.984 349.312 316.031 342.344 317.719 335.969 c 1
 322.812 340.75 330.625 345.875 339.578 348.234 c 1
 343.734 350.062 350.547 359 368.094 359.875 c 0
 375.859 360.266 394.141 362.234 402.797 345.688 c 0
 407.944 335.85 407.693 326.857 405.158 318.906 c 1
EndSplineSet
EndChar
StartChar: degree
Encoding: 176 176 49
Width: 264
VWidth: 1000
Flags: HW
Fore
203.318 549.608 m 0
 204.948 548.417 207.395 548.033 216.74 553.372 c 0
 230.361 561.152 232.604 570.635 243.473 590.515 c 0
 256.949 615.164 263.661 627.382 267.047 653.146 c 0
 268.823 666.667 269.1 667.666 268.036 668.745 c 0
 265.74 671.076 262.967 672.024 254.296 668.801 c 0
 238.163 662.805 233.546 652.752 221.776 632.286 c 0
 208.256 608.776 203.736 595.641 202.425 568.905 c 0
 201.659 553.299 201.313 551.073 203.318 549.608 c 0
157.04 513.74 m 0
 138.303 532.74 140.922 554.841 141.445 573.862 c 0
 142.259 603.454 150.004 622.532 162.846 647.276 c 0
 178.582 677.597 188.249 709.326 227 726 c 0
 254.043 737.637 284.484 739.824 309.235 717.869 c 0
 327.771 701.428 323.166 679.852 322.425 664.898 c 0
 320.097 617.95 309.047 588.066 285.729 548.206 c 0
 273.764 527.751 264.053 503.531 233.472 494.526 c 0
 205.025 486.151 178.018 492.47 157.04 513.74 c 0
EndSplineSet
EndChar
StartChar: acute
Encoding: 180 180 53
Width: 303
VWidth: 1080
Flags: HW
Fore
157.359 453.906 m 0
 135.188 447.562 l 0
 112.688 448.562 106.25 449.516 104.938 472 c 0
 100.484 548.422 153.969 584.484 175.531 628.078 c 1
 176.75 630.516 178.25 632.641 180.156 634.578 c 0
 207.453 662.203 219.812 701.75 272.594 725.75 c 0
 301.203 738.766 356.391 769.609 397.188 726.094 c 0
 424.469 696.984 402.203 663.234 394.812 649.875 c 0
 365.297 596.625 321.859 587.859 289.75 561.641 c 0
 241.781 522.453 225.969 497.562 157.359 453.906 c 0
EndSplineSet
EndChar
StartChar: mu
Encoding: 181 181 54
Width: 516
VWidth: 1080
Flags: HW
VStem: 47 93<142 375> 291 86<127 394>
Fore
395.367 373.184 m 1
 378.741 371.248 345.215 389.33 340.047 408.5 c 0
 332.062 438.156 351.938 460.25 368.781 474.234 c 0
 397.344 497.953 425.562 496.547 445.859 498.844 c 0
 482.812 503.016 513.109 504.469 547.25 488.688 c 0
 550.516 487.172 588.781 475.328 581.219 438.922 c 0
 573.984 404.094 544.141 398.953 543.75 398.375 c 1
 445.094 127.328 l 1
 455.797 99.9688 441.609 125.203 470.516 92.5781 c 1
 479.969 76.7188 481.688 69.7812 468.219 57.1406 c 0
 413.219 5.5625 391.828 -10.4375 313.812 -33.0156 c 1
 311.188 -33.7656 308.578 -34.0938 305.859 -33.9844 c 0
 273.884 -32.6882 260.476 -9.53317 256.761 4.72552 c 1
 251.938 3.64062 l 0
 201.375 -8 182.641 2.75 154.75 -19.5312 c 0
 82.6562 -77.125 126.844 -189.578 25.1094 -264.156 c 0
 -169.562 -406.891 52.2656 100.766 51.9375 98.2344 c 1
 52.1719 100.062 52.5938 101.828 53.2344 103.547 c 0
 134.2 326.017 23.7806 25.3003 146.369 362.19 c 1
 137.195 363.792 120.744 382.753 117.625 399.391 c 0
 114.484 416.078 121.531 432.859 132.516 444.312 c 0
 168.625 481.938 207.375 487.781 244.281 496.359 c 0
 254.891 498.812 268.406 500.016 281.094 495.641 c 0
 294.047 491.156 319.281 482.141 323.344 452.375 c 1
 323.875 448.219 323.469 444.391 322.062 440.453 c 0
 212.875 140.469 l 1
 213.031 139.781 223.078 116.906 255.797 121.734 c 0
 282.047 125.609 304.062 146.797 322.844 171.188 c 1
 366.18 290.259 308.315 133.899 395.367 373.184 c 1
EndSplineSet
EndChar
StartChar: paragraph
Encoding: 182 182 55
Width: 769
VWidth: 1080
Flags: HW
VStem: 468.089 -88.5<-32.4487 326.051> 341.527 -58.422<188.051 809.051>
Fore
417.516 439.906 m 1
 427.188 447.859 430.812 478 461.203 520.875 c 1
 481.5 571.25 516.688 601.531 505.609 623.516 c 0
 499.219 636.172 489.5 637.875 464.172 631.5 c 0
 435.094 624.172 416.375 613.656 388.031 590.75 c 0
 335.75 548.469 321.844 522.453 304.75 477.344 c 0
 298.969 462.062 308.609 460.906 311.234 441.141 c 1
 371.344 450.266 404.562 433.797 417.516 439.906 c 1
443.642 -4.79102 m 1
 437.425 -6.86621 431.705 -7.12109 427.097 -4.51074 c 1
 401.717 -3.50781 369.179 -0.319336 342 0 c 8
 274.359 0.78125 233.719 9.25 168.609 4.04688 c 0
 105.531 -0.984375 98.4219 7.96875 39.2344 8.51562 c 0
 22.1094 8.67188 23.3125 14.2812 33.625 30.0156 c 1
 39.9531 37.5469 48.5469 80 111.531 113.516 c 0
 181.094 150.531 191.156 118.812 198 120 c 0
 233 148.391 222.156 165.656 245.891 205.484 c 1
 284 270.109 302.688 287.375 326.234 319.625 c 1
 297.797 328.625 187.266 290.766 132.328 336.391 c 0
 131.875 336.797 l 1
 120.953 347.484 101.188 350.875 95.5312 373.844 c 0
 86.8438 409.219 92.9062 440.406 119.109 490.172 c 0
 142.266 534.156 159.578 578.094 236.484 634.391 c 0
 326.953 700.625 404.453 723.438 485.844 745.266 c 0
 579.938 770.5 610.625 752.859 673.391 756.172 c 0
 674.391 756.219 675.359 756.219 676.266 756.172 c 1
 734.969 752.891 789.172 765.203 833.984 753.781 c 0
 834.299 753.697 l 2
 855.611 756.886 869.915 743.91 871.875 709.766 c 1
 872.016 698.641 869.859 689.375 862.891 676.359 c 0
 764.156 491.922 727.438 429.844 634.984 275.422 c 0
 573.865 173.357 614.707 221.987 533.17 90.4502 c 1
 536.237 86.9023 537.789 83.3828 537.344 79.9688 c 0
 532.812 44.9844 479.125 11.4844 468 0 c 0
 464.767 -3.33789 455.861 -4.61816 443.642 -4.79102 c 1
716.974 636.905 m 1
 713.778 638.372 711.236 639.778 709.125 640.594 c 0
 705.844 641.859 703.109 643.25 700.891 644.688 c 1
 684.031 607.609 732.141 676.719 580.891 438.172 c 1
 482.812 250.594 441.297 229.391 411.734 142.219 c 1
 409.494 143.03 435.213 136.317 463.956 126.106 c 1
 502.006 202.279 516.107 220.914 553.125 291 c 0
 635.588 447.109 638.896 493.087 716.974 636.905 c 1
EndSplineSet
EndChar
StartChar: ordmasculine
Encoding: 186 186 59
Width: 280
VWidth: 1000
Flags: HW
Fore
193.582 418.33 m 0
 195.538 416.9 198.474 416.439 209.688 422.846 c 0
 226.034 432.183 228.725 443.562 241.767 467.417 c 0
 257.939 496.996 265.994 511.657 270.057 542.575 c 0
 272.188 558.8 272.52 559.999 271.243 561.294 c 0
 268.488 564.091 265.161 565.229 254.755 561.361 c 0
 235.396 554.165 229.855 542.103 215.731 517.544 c 0
 199.508 489.332 194.084 473.568 192.511 441.486 c 0
 191.592 422.759 191.177 420.088 193.582 418.33 c 0
138.049 375.288 m 0
 115.563 398.088 118.707 424.609 119.334 447.435 c 0
 120.311 482.945 129.604 505.839 145.015 535.531 c 0
 163.898 571.916 175.499 609.991 222 630 c 0
 254.451 643.964 290.981 646.589 320.683 620.242 c 0
 342.925 600.513 337.399 574.621 336.511 556.679 c 0
 333.716 500.34 320.457 464.48 292.476 416.647 c 0
 278.117 392.102 266.463 363.037 229.766 352.231 c 0
 195.631 342.182 163.221 349.764 138.049 375.288 c 0
56.2285 246.627 m 24
 50.8311 261.621 60.6602 279.954 77.9258 293.877 c 24
 110.687 320.294 136.276 308.229 173.047 314.127 c 24
 198.004 318.131 213.846 324.176 236.253 320.877 c 24
 255.86 317.99 272.17 317.446 278.383 300.627 c 24
 284.679 283.586 281.438 264.134 263.229 246.627 c 24
 232.376 216.966 201.926 220.984 165.651 219.627 c 24
 117.343 217.819 70.1318 208.001 56.2285 246.627 c 24
EndSplineSet
EndChar
StartChar: onequarter
Encoding: 188 188 61
Width: 580
Flags: HW
VStem: 181.596 0<379 493> 348.59 48<8 116>
Fore
369.826 204.877 m 5
 447.582 207.438 345.366 203.727 421.363 208.442 c 5
 430.979 234.858 412.771 184.834 440.625 261.363 c 5
 440.046 266.348 360.481 203.378 369.826 204.877 c 5
428.301 34.002 m 4
 402.635 13.1689 374.615 10.4297 360.164 28.1816 c 5
 358.22 30.8262 357.79 33.5049 359.126 37.4336 c 4
 385.31 114.422 389.76 119.326 396.815 143.058 c 5
 363.623 145.616 364.174 124.3 295.989 142.551 c 5
 273.957 148.13 292.664 177.079 297.831 185.091 c 5
 298.562 186.222 299.398 187.268 300.38 188.269 c 4
 444.707 335.523 393.806 293.373 527.518 405.676 c 5
 529.492 407.317 531.488 408.485 533.769 409.294 c 4
 547.152 414.039 562.462 413.271 567.736 400.978 c 5
 568.55 398.997 568.663 396.948 568.006 394.455 c 4
 544.289 304.508 538.963 305.642 496.717 208.425 c 5
 514.726 207.309 508.103 222.444 591.925 217.692 c 5
 596.224 217.236 598.564 215.755 599.654 212 c 4
 607.961 183.398 573.754 155.2 547.864 141.311 c 5
 504.36 117.971 492.667 141.152 469.411 139.887 c 5
 449.244 84.4785 458.605 99.9541 434.09 41.5176 c 5
 432.805 38.5732 431.047 36.2314 428.301 34.002 c 4
402.395 406.22 m 0
 500.386 478.566 480.396 465.046 511.686 500.718 c 1
 488.807 496.396 489.213 496.447 489.248 505.378 c 0
 489.306 519.604 503.376 530.929 514.73 535.826 c 1
 516.97 536.777 519.032 537.245 521.174 537.245 c 0
 586.349 537.26 565.34 545.774 615.555 527.097 c 1
 617.72 526.255 619.135 524.988 619.987 522.995 c 0
 625.761 509.51 614.719 492.218 599.419 482.622 c 0
 581.888 471.628 564.306 478.702 572.521 481.88 c 1
 486.184 417.921 512.106 431.536 424.794 358 c 0
 353.912 298.302 342.783 292.294 277.962 232.208 c 1
 273.268 225.641 261.781 224.956 267.903 224.591 c 0
 280.602 223.833 289.549 232.482 289.988 217.451 c 0
 290.639 195.255 256.982 181.464 253.153 177.985 c 1
 249.078 174.531 245.678 172.938 241.071 172.921 c 0
 191.657 172.726 181.657 166.147 132.379 173.035 c 1
 129.193 173.565 127.223 174.826 125.954 177.334 c 0
 124.537 180.13 105.025 188.438 114.13 210.124 c 0
 122.097 229.103 142.088 236.366 153.854 240.417 c 0
 179.092 249.104 185.421 236.305 186.284 237.028 c 0
 291.174 324.972 320.499 345.756 402.395 406.22 c 0
181.909 387.359 m 0
 151.424 387.068 177.186 429.885 192.158 443.348 c 0
 208.71 458.229 223.43 455.607 216.13 445.826 c 1
 251.841 541.359 231.579 491.359 270.734 592.102 c 1
 271.633 585.09 256.571 578.347 251.592 595.518 c 0
 245.771 615.583 257.269 647.057 283.441 662 c 1
 286.322 663.605 288.896 664.377 291.691 664.359 c 0
 516.011 662.9 235.336 665.858 390.729 664.359 c 1
 393.773 664.271 395.91 663.424 397.562 661.456 c 0
 411.602 644.725 404.646 618.571 386.323 596.927 c 0
 366.536 573.553 370.328 590.221 372.27 593.311 c 1
 349.929 533.359 351.021 536.359 319.337 442.439 c 1
 319.621 455.498 323.014 457.801 329.068 443.612 c 0
 331.253 438.493 338.915 388.541 303.714 387.861 c 0
 148.572 384.87 337.392 388.85 181.909 387.359 c 0
EndSplineSet
LCarets: 0 65535 '    ' 2 0 0 
Ligature: 0 1 'frac' one slash four
Ligature: 0 1 'frac' one fraction four
EndChar
StartChar: onehalf
Encoding: 189 189 62
Width: 580
Flags: HW
VStem: 129.136 78<379 451.368 483.934 493.236 458.698 533.576> 207.136 0<379 493>
Fore
474.535 153.362 m 4
 502.144 163.294 518.623 163.34 533.222 150.701 c 5
 536.717 146.721 537.312 143.508 533.629 137.324 c 4
 500.735 82.084 509.312 97.9609 467.807 61.7012 c 5
 464.099 58.6221 460.884 57.1006 456.797 56.9072 c 4
 323.041 50.5859 406.975 53.8125 297.965 55.3428 c 4
 273.858 55.6816 294.433 87.7734 302.191 95.6475 c 4
 369.907 164.369 400.883 164.227 450.672 220.52 c 4
 465.062 236.79 470.511 248.688 465.894 257.728 c 4
 462.271 264.819 453.512 264.494 434.729 258.785 c 4
 413.336 252.282 414.523 241.667 373.264 214.592 c 5
 361.647 209.668 358.253 208.662 355.451 217.788 c 4
 347.681 243.102 363.216 258.202 372.338 266.854 c 4
 406.783 299.523 421.621 308.77 452.792 318.148 c 4
 489.342 329.145 532.374 341.263 552.762 310.615 c 4
 571.111 283.033 550.63 246.895 530.643 216 c 4
 502.05 171.804 467.883 163.53 443.772 139.62 c 5
 443.957 139.896 430.212 119.19 438.641 130.253 c 5
 454.972 129.061 395.77 128.189 462.996 129.401 c 5
 445.155 135.061 465.496 148.001 470.235 151.174 c 5
 471.631 152.104 473.039 152.823 474.535 153.362 c 4
403.452 406.22 m 4
 501.442 478.566 481.453 465.046 512.742 500.718 c 5
 489.863 496.396 490.27 496.447 490.306 505.378 c 4
 490.362 519.604 504.434 530.929 515.788 535.826 c 5
 518.026 536.777 520.089 537.245 522.231 537.245 c 4
 587.405 537.26 566.396 545.774 616.611 527.097 c 5
 618.777 526.255 620.192 524.988 621.045 522.995 c 4
 626.817 509.51 615.775 492.218 600.476 482.622 c 4
 582.944 471.628 565.362 478.702 573.579 481.88 c 5
 487.241 417.921 513.163 431.536 425.852 358 c 4
 354.969 298.302 343.84 292.294 279.019 232.208 c 5
 274.324 225.641 262.838 224.956 268.96 224.591 c 4
 281.658 223.833 290.605 232.482 291.046 217.451 c 4
 291.696 195.255 258.039 181.464 254.21 177.985 c 5
 250.135 174.531 246.735 172.938 242.128 172.921 c 4
 192.714 172.726 182.715 166.147 133.437 173.035 c 5
 130.25 173.565 128.279 174.826 127.011 177.334 c 4
 125.594 180.13 106.082 188.438 115.187 210.124 c 4
 123.154 229.103 143.145 236.366 154.91 240.417 c 4
 180.148 249.104 186.478 236.305 187.341 237.028 c 4
 292.231 324.972 321.556 345.756 403.452 406.22 c 4
182.966 387.359 m 4
 152.48 387.068 178.242 429.885 193.216 443.348 c 4
 209.767 458.229 224.487 455.607 217.187 445.826 c 5
 252.897 541.359 232.637 491.359 271.791 592.102 c 5
 272.69 585.09 257.629 578.347 252.648 595.518 c 4
 246.828 615.583 258.325 647.057 284.499 662 c 5
 287.38 663.605 289.953 664.377 292.749 664.359 c 4
 517.067 662.9 236.394 665.858 391.786 664.359 c 5
 394.831 664.271 396.968 663.424 398.618 661.456 c 4
 412.659 644.725 405.702 618.571 387.381 596.927 c 4
 367.593 573.553 371.385 590.221 373.326 593.311 c 5
 350.985 533.359 352.078 536.359 320.394 442.439 c 5
 320.678 455.498 324.071 457.801 330.126 443.612 c 4
 332.311 438.493 339.973 388.541 304.771 387.861 c 4
 149.63 384.87 338.449 388.85 182.966 387.359 c 4
EndSplineSet
LCarets: 0 65535 '    ' 2 0 0 
Ligature: 0 1 'frac' one slash two
Ligature: 0 1 'frac' one fraction two
EndChar
StartChar: threequarters
Encoding: 190 190 63
Width: 580
Flags: HW
VStem: 344.589 48<8 116>
Fore
209.254 473.337 m 4
 191.4 490.025 215.161 518.501 226.723 533.358 c 5
 227.764 534.691 228.926 535.863 230.283 536.938 c 4
 288.594 583.073 291.548 578.653 340.692 617.88 c 4
 341.57 618.58 343.391 624.552 337.833 631.654 c 4
 334.357 636.094 330.405 636.794 318.936 633.626 c 4
 302.004 628.948 294.662 602.892 254.072 588.94 c 4
 220.643 577.45 245.095 625.65 247.9 630.374 c 4
 269.728 667.134 298.239 692.741 332.459 708.868 c 4
 369.453 726.304 361.66 722.099 382.198 724.944 c 4
 397.919 727.122 419.693 725.624 435.498 709.714 c 4
 458.113 686.954 434.62 653.257 419.443 626.567 c 4
 392.537 579.253 361.911 579.075 356.365 560.528 c 5
 370.636 570.075 376.069 573.407 386.717 560.679 c 4
 400.598 544.083 396.789 524.014 392.782 503.638 c 4
 385.389 466.028 373.864 438.374 346.187 402.382 c 4
 324.384 374.03 303.697 351.591 268.236 336 c 4
 224.312 316.688 167.753 294.55 142.383 330.438 c 4
 126.911 352.328 141.364 389.284 171.549 411.413 c 5
 174.589 413.579 177.354 414.735 180.569 415.023 c 4
 216.773 418.264 199.2 413.739 226.091 415.06 c 5
 229.1 415.157 231.293 414.491 233.104 412.778 c 4
 242.098 404.278 234.264 403.671 231.866 388.052 c 4
 230.025 376.075 239.736 386.764 251.802 394.298 c 4
 276.251 409.562 286.408 424.316 299.758 452.035 c 4
 307.957 469.059 310.678 476.339 305.911 483.676 c 4
 300.801 491.539 292.42 490.572 272.612 489.11 c 5
 261.128 488.263 255.258 474.671 216.808 471.131 c 5
 213.549 470.894 211.202 471.517 209.254 473.337 c 4
370.801 204.877 m 1
 448.557 207.438 346.341 203.727 422.338 208.442 c 1
 431.953 234.858 413.745 184.834 441.6 261.363 c 1
 441.021 266.348 361.456 203.378 370.801 204.877 c 1
429.275 34.002 m 0
 403.609 13.1689 375.59 10.4297 361.139 28.1816 c 1
 359.194 30.8262 358.764 33.5049 360.1 37.4336 c 0
 386.283 114.422 390.734 119.326 397.79 143.058 c 1
 364.598 145.616 365.147 124.3 296.964 142.551 c 1
 274.932 148.13 293.639 177.079 298.806 185.091 c 1
 299.535 186.222 300.373 187.268 301.354 188.269 c 0
 445.682 335.523 394.78 293.373 528.492 405.676 c 1
 530.467 407.317 532.463 408.485 534.743 409.294 c 0
 548.127 414.039 563.437 413.271 568.71 400.978 c 1
 569.524 398.997 569.638 396.948 568.98 394.455 c 0
 545.264 304.508 539.937 305.642 497.69 208.425 c 1
 515.699 207.309 509.077 222.444 592.898 217.692 c 1
 597.198 217.236 599.539 215.755 600.629 212 c 0
 608.936 183.398 574.729 155.2 548.838 141.311 c 1
 505.334 117.971 493.642 141.152 470.386 139.887 c 1
 450.219 84.4785 459.58 99.9541 435.064 41.5176 c 1
 433.779 38.5732 432.021 36.2314 429.275 34.002 c 0
403.369 406.22 m 0
 501.36 478.566 481.37 465.046 512.66 500.718 c 1
 489.78 496.396 490.188 496.447 490.223 505.378 c 0
 490.279 519.604 504.351 530.929 515.705 535.826 c 1
 517.944 536.777 520.007 537.245 522.148 537.245 c 0
 587.323 537.26 566.313 545.774 616.529 527.097 c 1
 618.694 526.255 620.109 524.988 620.962 522.995 c 0
 626.734 509.51 615.693 492.218 600.394 482.622 c 0
 582.862 471.628 565.279 478.702 573.496 481.88 c 1
 487.158 417.921 513.081 431.536 425.769 358 c 0
 354.887 298.302 343.758 292.294 278.937 232.208 c 1
 274.242 225.641 262.756 224.956 268.878 224.591 c 0
 281.576 223.833 290.522 232.482 290.963 217.451 c 0
 291.613 195.255 257.957 181.464 254.128 177.985 c 1
 250.053 174.531 246.652 172.938 242.046 172.921 c 0
 192.632 172.726 182.632 166.147 133.354 173.035 c 1
 130.168 173.565 128.197 174.826 126.928 177.334 c 0
 125.511 180.13 106 188.438 115.104 210.124 c 0
 123.071 229.103 143.062 236.366 154.828 240.417 c 0
 180.065 249.104 186.396 236.305 187.259 237.028 c 0
 292.148 324.972 321.474 345.756 403.369 406.22 c 0
EndSplineSet
LCarets: 0 65535 '    ' 2 0 0 
Ligature: 0 1 'frac' three slash four
Ligature: 0 1 'frac' three fraction four
EndChar
StartChar: AE
Encoding: 198 198 71
Width: 1066
VWidth: 1080
Flags: HW
Fore
596.453 393.803 m 24
 603.495 385.935 613.815 389.66 623.528 393.803 c 24
 667.493 412.552 682.766 441.884 708.363 482.247 c 24
 727.337 512.168 756.688 535.389 740.854 567.082 c 24
 733.981 580.836 717.731 573.689 702.948 577.912 c 17
 672.909 542.771 640.122 516.892 605.479 475.027 c 9
 592.061 446.117 575.197 417.552 596.453 393.803 c 24
33.293 16.5576 m 1
 19.4756 42.9561 12.8887 64.4551 33.293 84.2451 c 9
 192.134 104.1 l 17
 258.918 161.859 341.948 272.868 428.588 386.582 c 9
 489.128 449.234 523.753 484.12 583.818 547.228 c 17
 608.122 580.777 646.935 589.704 665.043 633.868 c 9
 649.44 683.233 567.746 620.773 535.084 660.943 c 24
 517.985 681.971 516.046 711.146 535.084 730.435 c 24
 572.667 768.517 618.761 731.729 672.263 732.24 c 24
 731.394 732.805 764.765 731.83 823.884 733.143 c 24
 878.818 734.362 909.77 740.782 964.673 738.557 c 24
 1017.8 736.404 1055.35 751.109 1100.05 722.312 c 24
 1129.13 703.582 1141.63 680.805 1146.08 646.503 c 24
 1153.71 587.524 1150.41 535.878 1102.76 500.297 c 24
 1098.53 497.139 1091.74 495.658 1089.22 500.297 c 16
 1066.66 541.812 1072.83 581.043 1040.48 619.428 c 24
 1027.64 634.662 1016.19 640.595 997.163 646.503 c 24
 950.73 660.918 921.19 649.806 872.618 651.918 c 17
 848.27 597.942 790.823 483.023 791.394 401.022 c 9
 837.854 401.727 870.205 379.729 910.522 402.828 c 24
 942.315 421.043 926.85 466.057 959.259 483.15 c 24
 982.019 495.155 999.447 480.947 1025.14 479.54 c 17
 1002.11 396.624 986.806 304.208 949.331 258.428 c 9
 925.749 257.724 907.43 242.065 888.863 256.622 c 24
 865.067 275.279 895.596 312.778 872.618 332.432 c 17
 834.042 351.858 793.343 333.01 742.658 339.652 c 1
 715.553 293.093 728.409 212.982 693.923 117.638 c 1
 674.326 78.3193 711.225 84.4951 715.584 74.3184 c 1
 806.755 102.242 839.587 80.2939 894.278 85.1475 c 1
 952.6 99.3486 973.825 143.95 991.748 166.372 c 9
 1051.31 155.543 l 17
 1065.84 105.783 1010.98 52.6475 997.163 20.168 c 1
 886.492 -0.573242 818.577 28.3916 715.584 12.9473 c 1
 632.354 32.3975 561.756 -13.5283 468.298 12.9473 c 9
 471.114 41.1055 453.114 67.8584 475.519 85.1475 c 24
 496.957 101.693 517.358 78.541 544.108 74.3184 c 17
 575.473 158.477 598.526 224.485 630.748 305.357 c 9
 601.183 311.692 584.943 325.34 554.938 321.603 c 24
 488.708 313.354 461.35 275.357 401.513 245.793 c 17
 355.454 210.019 371.994 204.806 278.772 132.078 c 9
 280.886 115.183 273.674 102.15 284.188 88.7568 c 24
 293.957 76.3145 312.499 86.8955 322.094 74.3184 c 24
 335.39 56.8857 325.396 40.1846 327.509 18.3623 c 17
 300.311 8.7002 237.401 14.958 175.888 7.53223 c 1
 120.165 20.1592 71.4307 -1.99609 33.293 16.5576 c 1
EndSplineSet
EndChar
StartChar: Ccedilla
Encoding: 199 199 71
Width: 641
Flags: H
Fore
440.095 12.7749 m 1
 444.343 -10.2213 438.529 -35.7537 430 -62 c 12
 415.578 -106.391 387.125 -122.719 350 -151 c 28
 333.359 -163.688 322.719 -172 302 -175 c 28
 264.375 -180.469 184.406 -189.297 206 -158 c 20
 246 -100 278.109 -108.312 315 -67 c 28
 328.688 -51.6719 350.75 -42.4062 344 -23 c 20
 342.993 -20.1069 341.684 -17.7178 340.119 -15.7466 c 1
 323.045 -19.0038 304.726 -20.8082 284 -20 c 12
 231.438 -17.9531 199.094 -11.0938 154 16 c 28
 118.062 37.5938 108.859 63.5781 80 94 c 21
 47.625 177.156 61.5 246.812 74 352 c 13
 164 604 l 21
 220.047 692.281 277.062 713.109 386 743 c 5
 454.406 767.969 478.375 767.812 578 767 c 13
 606.078 750.234 618.469 732.703 650 724 c 28
 677.062 716.531 693.922 724 722 724 c 21
 745.922 668.969 711.266 580.75 716 514 c 13
 692.594 511.656 677.016 497.453 656 508 c 28
 631.609 520.25 634.781 545.062 620 568 c 28
 591.75 611.828 585.703 646.688 544 678 c 28
 526.25 691.328 512.203 695.781 490 696 c 28
 440.172 696.5 409.109 686.172 368 658 c 28
 308 616.891 284.516 577.047 252 512 c 28
 228.562 465.125 225.484 433.875 218 382 c 28
 212.547 344.156 211.656 322.094 215 284 c 28
 219.172 236.375 214.703 204.562 240 164 c 28
 268.234 118.719 296.828 95.1406 348 80 c 28
 374.281 72.2188 391.547 78.8906 418 86 c 28
 460.453 97.4219 486.703 105.297 520 134 c 28
 558.344 167.047 549.172 215.016 592 242 c 28
 606 250.828 629.984 264.047 634 248 c 20
 641 220 637.469 168.406 632 118 c 28
 626.938 71.3125 636.562 37.2812 608 0 c 28
 597.391 -13.8438 583.75 -27.5 568 -20 c 28
 555.016 -13.8125 570.75 6.45312 560 16 c 28
 542.406 31.6094 523.484 23.0938 500 22 c 20
 477.734 20.9691 458.247 17.4143 440.095 12.7749 c 1
EndSplineSet
EndChar
StartChar: Eth
Encoding: 208 208 80
Width: 732
VWidth: 1080
Flags: HW
VStem: 138.246 108.904<200.747 326.875>
Fore
341.844 430.566 m 1
 352.976 427.11 362.695 421.318 371 410 c 12
 387.656 387.281 392.781 361.344 377 338 c 20
 357.484 309.147 329.559 304.198 297.357 302.927 c 1
 292 288 l 8
 274.844 240.141 255.781 215.906 246 166 c 24
 240.297 136.906 244.781 119.641 244 90 c 17
 296.234 78.75 349.031 83.6719 400 78 c 9
 435.094 108.422 458.438 121.922 490 156 c 24
 540.766 210.828 571.625 242.656 604 310 c 24
 627.766 359.453 641.438 391.156 640 446 c 24
 638.203 514.797 632.328 563.109 586 614 c 24
 550.016 653.531 513.438 669.562 460 668 c 24
 433.844 667.234 416.547 658.266 400 638 c 24
 360.141 589.203 376.344 542.281 358 482 c 16
 341.844 430.566 l 1
192.786 425.453 m 1
 249 639 l 9
 213.516 653.438 175.656 642 158 676 c 24
 143.609 703.703 168.984 723.578 176 754 c 17
 236.891 756.109 277.5 757.719 338 760 c 9
 370.766 752.984 389.172 748.688 422 742 c 24
 510.734 723.938 569.469 739.438 650 698 c 24
 707.406 668.469 738.516 640.359 770 584 c 24
 791.188 546.078 791.828 518.438 793 475 c 24
 795 401.219 790.75 356.781 764 288 c 24
 751.766 256.547 737.109 242.328 716 216 c 24
 669.422 157.891 645.156 120.516 584 78 c 24
 512.859 28.5469 459.562 24.3125 380 -10 c 17
 243.188 0.671875 134.328 -24.1562 22 -8 c 9
 13.4219 19.2969 -9.07812 34.8594 0 62 c 24
 14.9062 106.547 70.2031 94.1406 98 132 c 24
 123.25 166.406 117.984 195.688 132 236 c 16
 156.069 302.097 l 1
 134.933 306.711 116.224 316.97 101 338 c 12
 86.5312 358 90.7344 382.438 107 401 c 20
 130.671 428.015 159.71 424.848 192.786 425.453 c 1
EndSplineSet
EndChar
StartChar: multiply
Encoding: 215 215 86
Width: 430
VWidth: 1080
Flags: W
Fore
386.968 439.5 m 5
 374.218 460.5 351.718 451.5 327.718 453.75 c 5
 332.218 447 287.968 390.75 285.718 382.5 c 5
 259.468 350.25 267.718 349.5 245.968 341.25 c 5
 233.968 336.75 223.468 336 212.218 342.75 c 5
 193.468 354.75 153.718 426.75 140.968 453.75 c 5
 101.218 453.75 139 457.75 88 445 c 5
 127.75 391 162.718 312 185.218 264 c 5
 160.468 220.5 155.218 216 104.218 165 c 5
 110.218 150 59.2178 97.5 74.2178 92.25 c 5
 104.218 85.5 100.25 84 134 87 c 5
 129.5 104.25 160.468 153 162.718 161.25 c 5
 176.968 186.75 180.718 178.5 196.468 194.25 c 5
 216.718 195 216.718 195 227.968 194.25 c 5
 245.218 186.75 253.468 183.75 257.968 165 c 5
 260.218 155.25 313.468 101.25 308.968 92.25 c 5
 335.218 95.25 344.218 92.25 372.718 105.75 c 5
 381.718 118.5 374.218 130.5 368.968 145.5 c 5
 323.218 204.75 281.968 225 257.968 285.75 c 5
 299.218 340.5 358.468 408.75 386.968 439.5 c 5
EndSplineSet
EndChar
StartChar: Oslash
Encoding: 216 216 87
Width: 736
VWidth: 1080
Flags: HW
Fore
700.306 662.695 m 1
 719.844 681 l 5
 718.562 702 675.781 684.703 672.266 706 c 20
 672.047 707.266 671.953 708.516 671.953 709.75 c 4
 671.953 722.312 682.297 733.625 695.25 740 c 5
 765.25 740 784.141 745 799.141 745 c 4
 814.141 745 825.25 740 879.734 720 c 5
 882.281 715.562 883.453 710.656 883.453 705.625 c 4
 883.453 692.516 875.453 678.453 862.734 669 c 4
 858.469 665.828 854.422 664.703 850.469 664.703 c 4
 840.938 664.703 831.875 671.219 821.141 671.219 c 4
 817.859 671.219 814.406 670.609 810.734 669 c 5
 742.172 605.555 l 1
 786.78 512.324 779.999 438.729 761 334 c 8
 745.266 247.312 718.703 199.047 664 130 c 24
 626.781 83.0156 596.281 63.3125 544 34 c 24
 510 14.9375 488.391 6.73438 450 0 c 24
 387.766 -10.9062 349.188 -15.7188 288 0 c 16
 266.72 5.463 250.561 13.2445 235.653 22.3038 c 1
 192.631 20.6805 167.848 16.7812 135.766 16.7812 c 4
 115.516 16.7812 92.3438 18.3281 59.8281 23 c 5
 48.3125 41.2344 26.125 47.6719 26.125 67.7344 c 4
 26.125 69.9688 26.3906 72.375 27 75 c 12
 32.2969 98.125 53.4375 108.141 76.4062 117 c 20
 80.875 118.719 85.2031 119.406 89.4219 119.406 c 4
 103.943 119.406 117.119 111.299 129.644 109.301 c 1
 100.544 152.004 94.921 197.488 86 276 c 1
 81.8281 347.531 79.9531 391.578 98 462 c 24
 114.453 526.219 126 566.406 170 616 c 24
 222.438 675.094 269.672 691.234 342 723 c 24
 348.672 725.922 352.984 726.047 360 728 c 17
 378.906 645.797 377.328 670.172 366 638 c 9
 326.219 593.547 295.906 574.406 264 524 c 24
 238.203 483.234 234.719 454.453 216 410 c 17
 200.783 320.843 188.996 256.88 215.639 179.03 c 1
 348.849 312.114 397.848 362.529 524 472 c 4
 597.209 539.233 614.589 567.692 646.357 605.494 c 1
 635.5 633.508 620.317 655.202 592 676 c 8
 568.672 693.141 548.672 697.953 520 694 c 17
 470.406 688.281 453.266 654.812 436 646 c 9
 422.438 642.391 414.047 646 400 646 c 17
 374.938 670.969 392.766 710.266 388 742 c 9
 425.438 747.453 446.234 758.297 484 756 c 17
 546 765.828 571.719 744.812 616 720 c 1
 646.883 697.104 675.947 683.673 700.306 662.695 c 1
666.612 526.673 m 1
 637.893 493.862 612.989 462.89 553.828 403 c 4
 469.781 312 416.031 268 301.406 134 c 5
 295.969 123.344 279.688 112.094 279.688 99.7344 c 4
 279.688 98.1719 279.953 96.5938 280.531 95 c 4
 282.406 89.75 287.156 88.3125 292.938 88.3125 c 4
 299.844 88.3125 308.234 90.375 314.922 90.375 c 4
 320.734 90.375 325.266 88.8125 326.406 83 c 4
 326.75 81.2656 326.906 79.5938 326.906 78 c 4
 326.906 70.4117 323.245 64.2337 317.649 58.5825 c 1
 322.082 56.2164 326.843 54.0158 332 52 c 8
 357.422 42.0625 375.906 43.9844 402 52 c 24
 477.688 75.25 518.703 105.672 570 166 c 24
 616.797 221.031 630.922 263.812 648 334 c 16
 666.045 408.163 676.877 460.024 666.612 526.673 c 1
EndSplineSet
EndChar
StartChar: Thorn
Encoding: 222 222 93
Width: 613
VWidth: 1080
Flags: HW
VStem: 139 118<-136 13>
Fore
307 270 m 1
 337.797 242.547 394.234 267.531 445 258 c 9
 466.062 279.062 485.297 285.562 499 312 c 24
 524.312 360.844 538.25 398.141 523 451 c 24
 514.266 481.25 498.719 500.609 469 511 c 24
 442.125 520.391 419.875 515.953 397 499 c 24
 354.688 467.641 360.406 425.188 337 378 c 17
 328.469 336.922 297.375 305.922 307 270 c 1
384.18 652.42 m 1
 383.931 623.052 383.704 594.406 387 594.406 c 1
 441.688 594.438 480.734 606 536 585 c 8
 597.266 561.734 643.141 541.641 668 481 c 24
 688.125 431.906 669.828 395.609 651 346 c 24
 631.891 295.625 612.969 268.125 573 232 c 24
 551.25 212.344 532.734 210.047 507 196 c 17
 438.625 161.953 363.203 216.188 287 176 c 24
 263.719 163.719 263 183.344 244 124 c 8
 238.875 108 246 140 228 84 c 8
 224.359 72.6875 244.391 74.5469 256 72 c 24
 283.438 65.9688 309.297 90.9531 328 70 c 24
 346.25 49.5625 324.344 27.2969 322 0 c 17
 262.266 1.65625 239.734 -3.8125 190 -5 c 0
 128.047 7.78125 77.0625 -13.4219 31 9 c 9
 31 36.2969 14.5781 57.1875 31 79 c 24
 45.4062 98.1406 66.9844 89.375 90 96 c 17
 150 204 156.953 303.75 203 424 c 1
 229.722 520 250.995 579.501 278.283 650.893 c 1
 255.992 652.51 233.814 653.965 199 653 c 9
 196.656 680.297 174.75 702.562 193 723 c 24
 211.703 743.953 237.016 722.594 265 725 c 24
 330.172 730.594 365.734 753.469 431 749 c 24
 454.891 747.359 475.594 751.141 490 732 c 24
 506.422 710.188 490 689.297 490 662 c 17
 457.817 646.334 423.232 651.964 384.18 652.42 c 1
EndSplineSet
EndChar
StartChar: adieresis
Encoding: 228 228 34
Width: 505
Flags: HW
Fore
447.75 525.75 m 28
 476.761 518.046 503.781 522.146 522 546 c 28
 539.577 569.013 535.251 594.502 522 620.25 c 28
 511.638 640.386 497.396 654 474.75 654 c 28
 452.104 654 437.862 640.386 427.5 620.25 c 28
 414.25 594.502 416.419 572.753 427.5 546 c 28
 431.774 535.682 436.956 528.617 447.75 525.75 c 28
297.75 525.75 m 28
 326.761 518.046 353.781 522.146 372 546 c 28
 389.577 569.013 385.251 594.502 372 620.25 c 28
 361.638 640.386 347.396 654 324.75 654 c 28
 302.104 654 287.862 640.386 277.5 620.25 c 28
 264.25 594.502 266.419 572.753 277.5 546 c 28
 281.774 535.682 286.956 528.617 297.75 525.75 c 28
EndSplineSet
Ref: 97 97 N 1 0 0 1 0 0
EndChar
StartChar: ae
Encoding: 230 230 36
Width: 652
VWidth: 1000
Flags: HW
Back
Fore
506 317 m 24
 540.989 279.134 590.31 326.668 632 357 c 24
 648.277 368.843 668.274 379.873 662 399 c 24
 654.58 421.617 627.685 420.372 604 418 c 24
 570.98 414.692 551.893 400.938 530 376 c 24
 513.612 357.332 489.142 335.244 506 317 c 24
169 93 m 24
 209.572 69.0938 242.242 115.226 277 147 c 24
 311.51 178.547 322.859 205.499 340 249 c 24
 348.748 271.202 374.344 317.379 352 309 c 16
 320 297 280.425 278.495 242 248 c 24
 207.395 220.536 181.008 205.552 166 164 c 24
 156.585 137.934 145.122 107.069 169 93 c 24
48 27 m 24
 16.3018 60.6885 40.6797 98.9805 36 145 c 17
 110.685 249.527 142.901 261.456 226 317 c 24
 322.884 381.758 380.284 415.45 496 445 c 0
 559.703 461.268 619.674 488.218 674 445 c 24
 706.575 419.086 712.085 380.171 698 341 c 24
 682.375 297.546 645.059 290.134 604 269 c 24
 568.461 250.707 540.884 258.514 506 239 c 24
 459.7 213.101 426.624 196.985 404 149 c 24
 394.016 127.822 385.723 105.829 402 89 c 24
 412.304 78.3477 425.18 89 440 89 c 17
 482.054 104.219 497.297 136.472 530 149 c 1
 582.387 174.036 595.289 158.842 584 119 c 1
 552.758 69.708 515.047 57.5068 476 23 c 9
 452.6 8.95996 443.003 -9.05762 416 -13 c 24
 381.743 -18.002 354.48 -15.4805 330 9 c 16
 306 33 294.735 50.8047 260 59 c 9
 220.22 39.5 201.826 15.4795 158 9 c 24
 114.997 2.6416 77.7891 -4.65918 48 27 c 24
EndSplineSet
EndChar
StartChar: ccedilla
Encoding: 231 231 36
Width: 334
Flags: H
Fore
251.884 34.9095 m 1
 253.825 16.2598 248.683 -4.1211 241.75 -25 c 12
 230.719 -58.2188 209.594 -70.5312 181.75 -91.75 c 28
 169.266 -101.266 161.281 -107.5 145.75 -109.75 c 28
 117.531 -113.844 57.5625 -120.469 73.75 -97 c 20
 103.75 -53.5 127.844 -59.7344 155.5 -28.75 c 20
 165.509 -17.5372 181.49 -10.6618 177.589 3.1731 c 1
 162.164 1.90548 145.904 3.56766 128 8 c 12
 91.4062 17.0625 82.25 45.2031 53 69 c 21
 29.4844 152.766 44.2656 206.766 70 275 c 13
 133.188 349.094 145.031 421.188 232 465 c 28
 267.609 482.938 295.656 482.938 334 472 c 28
 357.109 465.406 378.031 459.281 384 436 c 28
 393.438 399.156 378.766 357.734 342 348 c 28
 320.875 342.406 317.125 374.406 296 380 c 28
 271.016 386.609 251.75 387.969 230 374 c 21
 182.203 330.812 177.062 299.391 158 248 c 13
 147.062 217.453 136.797 197.625 144 166 c 21
 142.891 126.344 156.438 108.188 188 104 c 13
 207.109 98.1406 216.062 120.594 236 122 c 28
 257.516 123.516 281.031 129.625 290 110 c 20
 303.705 80.0431 278.34 54.9858 251.884 34.9095 c 1
EndSplineSet
EndChar
StartChar: edieresis
Encoding: 235 235 40
Width: 336
Flags: HW
Fore
331.75 505.75 m 28
 360.761 498.046 387.781 502.147 406 526 c 28
 423.577 549.013 419.251 574.502 406 600.25 c 28
 395.638 620.386 381.395 634 358.75 634 c 28
 336.104 634 321.862 620.386 311.5 600.25 c 28
 298.25 574.502 300.419 552.753 311.5 526 c 28
 315.774 515.682 320.956 508.617 331.75 505.75 c 28
181.75 505.75 m 28
 210.761 498.046 237.781 502.147 256 526 c 28
 273.577 549.013 269.251 574.502 256 600.25 c 28
 245.638 620.386 231.396 634 208.75 634 c 28
 186.104 634 171.862 620.386 161.5 600.25 c 28
 148.25 574.502 150.419 552.753 161.5 526 c 28
 165.774 515.682 170.956 508.617 181.75 505.75 c 28
EndSplineSet
Ref: 101 101 N 1 0 0 1 0 0
EndChar
StartChar: idieresis
Encoding: 239 239 44
Width: 296
Flags: HW
VStem: 97 80<66 72> 97 85<72 151.447>
Fore
268.312 482.812 m 28
 290.07 477.035 310.336 480.11 324 498 c 28
 337.182 515.26 333.938 534.376 324 553.688 c 28
 316.228 568.789 305.547 579 288.562 579 c 28
 271.578 579 260.896 568.789 253.125 553.688 c 28
 243.187 534.376 244.814 518.065 253.125 498 c 28
 256.331 490.261 260.217 484.963 268.312 482.812 c 28
155.812 482.812 m 28
 177.57 477.035 197.836 480.11 211.5 498 c 28
 224.682 515.26 221.438 534.376 211.5 553.688 c 28
 203.729 568.789 193.047 579 176.062 579 c 28
 159.078 579 148.396 568.789 140.625 553.688 c 28
 130.688 534.376 132.314 518.065 140.625 498 c 28
 143.831 490.261 147.717 484.963 155.812 482.812 c 28
EndSplineSet
Ref: 305 305 N 1 0 0 1 0 0
EndChar
StartChar: eth
Encoding: 240 240 45
Width: 444
VWidth: 1000
Flags: HW
Fore
122 84 m 24
 166.328 54.9531 201.094 118.109 236 158 c 24
 268.391 195.031 282.812 223.328 290 272 c 24
 292.312 287.609 295.141 300.828 284 312 c 24
 262.281 333.797 233.344 338.141 206 324 c 17
 176.875 275.797 166.688 237.953 140 192 c 9
 126.797 151.391 86.2812 107.406 122 84 c 24
460.694 636.114 m 1
 465.925 636.342 471.487 636.125 477.75 635.25 c 12
 498.406 632.359 514.906 631.812 527.25 615 c 28
 539.75 597.953 543.594 578.5 531.75 561 c 20
 518.208 540.982 499.27 536.306 477.386 534.963 c 1
 473.098 464.572 443.304 390.578 424 318 c 1
 408.281 268.438 383.156 245.891 364 192 c 1
 396.391 150.469 441.203 145.969 444 102 c 1
 408.047 63.4219 372.141 23.8125 328 0 c 9
 256 18 l 17
 242.375 50.1094 271.359 80.7344 262 120 c 1
 254 166 225.703 47.8594 184 23 c 24
 150.625 3.09375 123.234 -6.125 86 5 c 24
 51.9062 15.1875 30.2031 33.9062 20 68 c 24
 8.0625 107.875 28.5 133.375 44 172 c 24
 69.0156 234.328 97.6875 262.281 132 320 c 17
 180.797 379.25 212.812 419.203 274 458 c 1
 340.344 476.141 366.828 455.625 386 428 c 1
 401.359 469.297 414.172 467.312 414 496 c 16
 413.868 518.337 417.148 520.602 411.116 532.124 c 1
 376.643 530.253 346.124 531.482 324.75 561 c 12
 313.891 576 317.047 594.328 329.25 608.25 c 20
 332.773 612.272 336.454 615.402 340.286 617.839 c 1
 323.548 630.534 308.638 642.715 298 666 c 0
 286.719 690.672 304.266 729.547 334.531 737.281 c 24
 386.062 750.438 409.062 700.438 447.312 660.625 c 1
 452.509 652.558 456.946 644.384 460.694 636.114 c 1
EndSplineSet
EndChar
StartChar: ocircumflex
Encoding: 244 244 48
Width: 354
Flags: HW
Fore
261.737 474.412 m 4
 265.3 497.926 270.287 525 282.4 559.2 c 5
 313.037 542.812 316.6 485.1 328 468 c 4
 335.451 456.822 409.336 458.697 405.593 472.275 c 4
 399.361 494.88 392.225 518.306 383.575 542.812 c 12
 367.327 588.85 367.9 609.787 335.125 658.238 c 5
 308.05 673.912 286.675 662.513 255.325 646.837 c 5
 209.708 558.398 196.023 530.438 175.922 476.551 c 4
 172.061 466.195 259.581 460.178 261.737 474.412 c 4
EndSplineSet
Ref: 111 111 N 1 0 0 1 0 0
EndChar
StartChar: odieresis
Encoding: 246 246 50
Width: 354
Flags: HW
Fore
319.75 475.75 m 28
 348.76 468.046 375.781 472.147 394 496 c 28
 411.577 519.013 407.251 544.502 394 570.25 c 28
 383.637 590.386 369.396 604 346.75 604 c 28
 324.104 604 309.862 590.386 299.5 570.25 c 28
 286.25 544.502 288.419 522.753 299.5 496 c 28
 303.774 485.682 308.956 478.617 319.75 475.75 c 28
169.75 475.75 m 28
 198.76 468.046 225.781 472.147 244 496 c 28
 261.577 519.013 257.251 544.502 244 570.25 c 28
 233.637 590.386 219.396 604 196.75 604 c 28
 174.104 604 159.862 590.386 149.5 570.25 c 28
 136.25 544.502 138.419 522.753 149.5 496 c 28
 153.774 485.682 158.956 478.617 169.75 475.75 c 28
EndSplineSet
Ref: 111 111 N 1 0 0 1 0 0
EndChar
StartChar: divide
Encoding: 247 247 51
Width: 346
Flags: W
Fore
154.312 322.812 m 28
 176.07 317.034 196.336 320.109 210 338 c 28
 223.182 355.26 219.938 374.377 210 393.688 c 28
 202.229 408.789 191.547 419 174.562 419 c 28
 157.578 419 146.896 408.789 139.125 393.688 c 28
 129.188 374.377 130.813 358.065 139.125 338 c 28
 142.331 330.262 146.217 324.963 154.312 322.812 c 28
154.312 49.8125 m 28
 176.07 44.0342 196.336 47.1094 210 65 c 28
 223.182 82.2598 219.938 101.377 210 120.688 c 28
 202.229 135.789 191.547 146 174.562 146 c 28
 157.578 146 146.896 135.789 139.125 120.688 c 28
 129.188 101.377 130.813 85.0654 139.125 65 c 28
 142.331 57.2617 146.217 51.9629 154.312 49.8125 c 28
33 202 m 28
 18.5273 221.992 22.7354 246.436 39 265 c 28
 69.8604 300.223 109.836 284.136 156 292 c 28
 187.333 297.338 205.521 305.398 237 301 c 28
 264.543 297.151 286.553 296.426 303 274 c 28
 319.664 251.278 324.784 225.342 309 202 c 28
 282.258 162.452 239.707 167.81 192 166 c 28
 128.466 163.59 70.2822 150.499 33 202 c 28
EndSplineSet
EndChar
StartChar: oslash
Encoding: 248 248 52
Width: 352
VWidth: 1000
Flags: HW
Fore
307.233 418.779 m 1
 319.672 437.75 l 9
 349.787 453.356 363.184 481.545 396.891 477.766 c 24
 418.08 475.39 432.556 462.916 438.656 442.484 c 24
 453.127 394.019 425.41 273.5 401.688 318.172 c 16
 386.168 347.396 382.288 358.516 381.488 361.989 c 0
 380.406 366.682 384.945 357.423 374 360 c 0
 367.072 361.633 360.982 361.314 355.415 359.62 c 1
 356.614 345.691 354.818 330.443 354 314 c 8
 349.487 223.33 329.839 170.359 284 92 c 24
 258.087 47.7021 243.231 10.4932 194 -4 c 16
 151.709 -16.4502 114.442 -10.9727 81.915 13.8975 c 1
 63.9443 -5.46387 34.5195 -34.875 16.7812 -46.8438 c 9
 3.82031 -49.1289 -5.83887 -60.4844 -16.4531 -52.7031 c 24
 -49.0371 -28.8174 -50.7168 15.3145 -30 50 c 24
 -20.3789 66.1074 -2.54688 73.7783 14.9766 67.0742 c 16
 32.1074 60.5205 28.2725 63.4805 47.4697 56.3896 c 1
 39.3047 78.0391 41.2275 101.949 42 130 c 8
 43.5215 185.266 56.5322 216.929 82 266 c 24
 115.5 330.549 131.2 383.248 198 412 c 16
 236.303 428.486 273.62 433.728 307.233 418.779 c 1
264.475 349.303 m 1
 254.858 350.223 244.512 347.904 234 344 c 8
 192.094 328.422 178.281 298.75 156 260 c 16
 131.924 218.138 120.26 187.858 115.7 144.58 c 1
 161.969 214.969 l 8
 188.25 253.469 197.656 279.969 231.078 312.469 c 16
 253.906 334.652 257.493 337.857 264.475 349.303 c 1
296.122 305.674 m 1
 281.137 285.231 274.475 264.654 257.078 239.875 c 8
 236.156 210.062 245.844 211.484 201.234 165.031 c 0
 175.438 138.188 153.047 108.094 129.969 68.1875 c 1
 125.1 62.6777 l 1
 126 62 l 8
 143.109 49.5 161.594 57.4844 180 68 c 24
 215.562 88.3125 223.359 116.062 243 152 c 24
 269.75 200.938 285.734 230.688 293 286 c 16
 293.906 292.896 295.277 299.452 296.122 305.674 c 1
EndSplineSet
EndChar
